<svg width="114" height="71" viewBox="0 0 114 71" fill="none" xmlns="http://www.w3.org/2000/svg">
<path d="M94.0951 0.85466L11.0012 15.5494L20.646 70.2456L103.74 55.5508L94.0951 0.85466Z" fill="#F1F1F1"/>
<path d="M15.5 49C24.0604 49 31 42.0604 31 33.5C31 24.9396 24.0604 18 15.5 18C6.93959 18 0 24.9396 0 33.5C0 42.0604 6.93959 49 15.5 49Z" fill="#E6E6E6"/>
<path d="M16 46C23.1797 46 29 40.4036 29 33.5C29 26.5964 23.1797 21 16 21C8.8203 21 3 26.5964 3 33.5C3 40.4036 8.8203 46 16 46Z" fill="#37B5E8"/>
<path d="M57.5 49C66.0604 49 73 42.0604 73 33.5C73 24.9396 66.0604 18 57.5 18C48.9396 18 42 24.9396 42 33.5C42 42.0604 48.9396 49 57.5 49Z" fill="#E6E6E6"/>
<path d="M57 46C64.1797 46 70 40.4036 70 33.5C70 26.5964 64.1797 21 57 21C49.8203 21 44 26.5964 44 33.5C44 40.4036 49.8203 46 57 46Z" fill="white"/>
<path d="M98.5 49C107.06 49 114 42.0604 114 33.5C114 24.9396 107.06 18 98.5 18C89.9396 18 83 24.9396 83 33.5C83 42.0604 89.9396 49 98.5 49Z" fill="#E6E6E6"/>
<path d="M98 46C105.18 46 111 40.4036 111 33.5C111 26.5964 105.18 21 98 21C90.8203 21 85 26.5964 85 33.5C85 40.4036 90.8203 46 98 46Z" fill="white"/>
<path d="M14.7625 39L11 33.9808L13.188 32.2149L14.9695 34.5915L20.9877 28L23 29.9782L14.7625 39Z" fill="white"/>
</svg>
