<svg width="126" height="82" viewBox="0 0 126 82" fill="none" xmlns="http://www.w3.org/2000/svg">
<rect width="126" height="82" fill="white"/>
<path d="M20.5 57C29.0604 57 36 50.0604 36 41.5C36 32.9396 29.0604 26 20.5 26C11.9396 26 5 32.9396 5 41.5C5 50.0604 11.9396 57 20.5 57Z" fill="#E6E6E6"/>
<path d="M21 54C28.1797 54 34 48.4036 34 41.5C34 34.5964 28.1797 29 21 29C13.8203 29 8 34.5964 8 41.5C8 48.4036 13.8203 54 21 54Z" fill="#37B5E8"/>
<path d="M62.5 57C71.0604 57 78 50.0604 78 41.5C78 32.9396 71.0604 26 62.5 26C53.9396 26 47 32.9396 47 41.5C47 50.0604 53.9396 57 62.5 57Z" fill="#E6E6E6"/>
<path d="M62 54C69.1797 54 75 48.4036 75 41.5C75 34.5964 69.1797 29 62 29C54.8203 29 49 34.5964 49 41.5C49 48.4036 54.8203 54 62 54Z" fill="white"/>
<path d="M103.5 57C112.06 57 119 50.0604 119 41.5C119 32.9396 112.06 26 103.5 26C94.9396 26 88 32.9396 88 41.5C88 50.0604 94.9396 57 103.5 57Z" fill="#E6E6E6"/>
<path d="M103 54C110.18 54 116 48.4036 116 41.5C116 34.5964 110.18 29 103 29C95.8203 29 90 34.5964 90 41.5C90 48.4036 95.8203 54 103 54Z" fill="white"/>
<path d="M19.7625 47L16 41.9808L18.188 40.2149L19.9695 42.5915L25.9877 36L28 37.9782L19.7625 47Z" fill="white"/>
</svg>
