<svg width="91" height="91" viewBox="0 0 91 91" fill="none" xmlns="http://www.w3.org/2000/svg">
<path d="M45.5 91C70.629 91 91 70.629 91 45.5C91 20.371 70.629 0 45.5 0C20.371 0 0 20.371 0 45.5C0 70.629 20.371 91 45.5 91Z" fill="#E6E6E6"/>
<path d="M46 82C66.9868 82 84 65.6584 84 45.5C84 25.3416 66.9868 9 46 9C25.0132 9 8 25.3416 8 45.5C8 65.6584 25.0132 82 46 82Z" fill="#37B5E8"/>
<path d="M39.2874 62L28 46.9423L34.5639 41.6446L39.9084 48.7746L57.963 29L64 34.9347L39.2874 62Z" fill="white"/>
</svg>
