<svg width="138" height="76" viewBox="0 0 138 76" fill="none" xmlns="http://www.w3.org/2000/svg">
<path d="M116.88 46.7576C125.842 46.7576 133.107 39.4432 133.107 30.4204C133.107 21.3976 125.842 14.0831 116.88 14.0831C107.918 14.0831 100.652 21.3976 100.652 30.4204C100.652 39.4432 107.918 46.7576 116.88 46.7576Z" fill="#F2F2F2"/>
<path d="M114.241 44.3667C123.203 44.3667 130.469 37.0523 130.469 28.0295C130.469 19.0067 123.203 11.6923 114.241 11.6923C105.279 11.6923 98.0137 19.0067 98.0137 28.0295C98.0137 37.0523 105.279 44.3667 114.241 44.3667Z" fill="#37B5E8"/>
<path d="M79.8071 41.8432C79.8071 30.6376 88.8623 21.5212 99.9926 21.5212C111.123 21.5212 120.178 30.6376 120.178 41.8432C120.178 53.0487 111.123 62.1651 99.9926 62.1651C88.8623 62.1651 79.8071 53.0487 79.8071 41.8432ZM80.071 41.8432C80.071 52.9022 89.0078 61.8994 99.9926 61.8994C110.977 61.8994 119.914 52.9022 119.914 41.8432C119.914 30.7841 110.977 21.7869 99.9926 21.7869C89.0078 21.7869 80.071 30.7841 80.071 41.8432Z" fill="#3F3D56"/>
<path d="M88.9211 19.2594L0.131395 5.97705L0.0654297 75.7756H115.373L88.9211 19.2594ZM23.7471 45.1599C23.7025 45.1599 23.6591 45.1555 23.6151 45.1531V50.4728H9.36658V36.1279H14.9077C14.9077 35.4586 15.1718 34.8167 15.6419 34.3434C16.112 33.8701 16.7496 33.6042 17.4144 33.6042C18.0792 33.6042 18.7168 33.8701 19.1869 34.3434C19.657 34.8167 19.9211 35.4586 19.9211 36.1279H23.6151V40.1193C23.6591 40.117 23.7025 40.1126 23.7471 40.1126C24.4119 40.1126 25.0495 40.3785 25.5196 40.8517C25.9897 41.325 26.2538 41.9669 26.2538 42.6362C26.2538 43.3055 25.9897 43.9474 25.5196 44.4207C25.0495 44.894 24.4119 45.1599 23.7471 45.1599ZM78.3006 41.2416C78.3047 44.2223 77.6674 47.1686 76.4325 49.8777C76.2992 50.1713 76.1589 50.4608 76.0116 50.7464C75.4215 51.8972 74.7249 52.9894 73.931 54.0085C73.5247 54.5305 73.095 55.0313 72.6421 55.5108C72.3096 55.8641 71.9648 56.205 71.6077 56.5335C68.4852 59.416 64.5524 61.254 60.35 61.7946C59.4775 61.9062 58.5989 61.9621 57.7193 61.962C52.4072 61.9682 47.2985 59.9062 43.4617 56.2074C39.6249 52.5087 37.3573 47.4596 37.1333 42.1163C36.9092 36.773 38.7459 31.5495 42.2594 27.5382C45.7728 23.527 50.6907 21.0389 55.9844 20.5942C56.0306 20.5902 56.0781 20.5863 56.1256 20.5823C56.4845 20.5544 56.8473 20.5358 57.2114 20.5278C57.3803 20.5238 57.5491 20.5212 57.7193 20.5212C58.8705 20.5206 60.0197 20.617 61.1548 20.8094C61.3118 20.8346 61.4675 20.8639 61.6232 20.8931C61.7195 20.9117 61.8145 20.9316 61.9095 20.9515C66.5414 21.922 70.6999 24.4691 73.6852 28.1643C76.6705 31.8595 78.3004 36.4771 78.3006 41.2402V41.2416Z" fill="#3F3D56"/>
<path d="M57.4236 7.45834H57.4236C53.4417 8.5443 51.1842 13.0311 52.3813 17.48L53.9022 23.1323L55.6289 22.6614L56.0651 20.2945L56.3787 22.4569L67.4774 19.43L67.8739 17.2783L68.159 19.2441L69.4086 18.9033L68.2144 14.4652C66.8369 9.34579 62.0057 6.20869 57.4236 7.45834Z" fill="#2F2E41"/>
<path d="M71.9607 54.7484L70.6414 61.9208L74.9951 61.2567L75.193 53.7522L71.9607 54.7484Z" fill="#FFB8B8"/>
<path d="M58.8994 20.2144C61.5225 20.2144 63.6489 18.0736 63.6489 15.4328C63.6489 12.7919 61.5225 10.6511 58.8994 10.6511C56.2763 10.6511 54.1499 12.7919 54.1499 15.4328C54.1499 18.0736 56.2763 20.2144 58.8994 20.2144Z" fill="#FFB8B8"/>
<path d="M57.3823 18.9525L57.1185 21.6089L55.0076 22.8044L60.5487 35.1569L64.7705 24.9295L61.9999 22.8044L61.7361 17.7571L57.3823 18.9525Z" fill="#FFB8B8"/>
<path d="M83.4384 48.6384C83.2722 51.4012 78.5979 53.5834 75.165 54.8187C74.1755 55.176 73.2889 55.4536 72.6425 55.6435C72.2401 55.7617 71.9314 55.8468 71.7493 55.8959C71.6293 55.9278 71.5646 55.9437 71.5646 55.9437V53.0216L60.3505 53.9514V61.9274C59.4779 62.039 58.5993 62.0949 57.7198 62.0948C54.2521 62.1002 50.8398 61.2196 47.8025 59.5352C47.7273 58.5377 47.6442 57.5177 47.5531 56.475C47.4555 55.3513 47.4133 54.2834 47.4172 53.2713C47.4489 45.3564 50.3158 40.8364 51.4517 39.3568C51.5936 39.1663 51.7456 38.9836 51.9069 38.8095L52.5665 37.0828L52.0889 34.0173L50.4767 23.6677L50.4556 23.5349C51.0097 23.0461 52.4781 22.7339 53.7447 22.5493C54.5943 22.4245 55.3542 22.3567 55.6893 22.3288C55.7949 22.3209 55.8582 22.3169 55.8701 22.3156H55.8714L61.274 32.1684L63.1342 23.6743L68.2663 26.0585C68.2663 26.0585 67.4747 29.3791 67.4747 32.1684C67.4741 32.5413 67.4262 32.9127 67.3323 33.2735C67.1126 34.0736 66.7402 34.8229 66.2359 35.4797C65.7942 36.0766 65.2795 36.6152 64.7042 37.0828L63.6487 40.0049L64.7042 43.9896L71.9696 41.8087L74.5331 41.0396C74.7489 40.9748 74.9689 40.9247 75.1914 40.8895C76.2192 40.7247 77.2724 40.8779 78.2117 41.3291C79.151 41.7802 79.9321 42.5079 80.4515 43.4158L83.4384 48.6384Z" fill="#2F2E41"/>
<path d="M71.0372 60.7253C71.0372 60.7253 74.8124 61.0982 75.5634 59.3843L79.3489 62.452C79.3489 62.452 86.2047 64.3005 82.3833 65.9054C78.8212 67.4014 75.259 65.8042 75.259 66.1711C75.259 66.1711 74.2036 65.2413 73.0162 65.9054C71.8288 66.5695 68.2667 65.9054 68.3986 64.8428C68.5305 63.7802 69.0582 59.9284 71.0372 60.7253Z" fill="#2F2E41"/>
<path d="M60.0704 9.11841C59.094 8.37744 57.8664 8.07424 56.6745 8.3993L56.533 8.4379C53.8038 9.18222 52.2604 12.2719 53.0856 15.3389V15.3389L54.0001 15.0895L53.8433 13.9175L54.3643 14.9901L59.788 13.511L59.9848 12.4296L60.1288 13.418L61.1958 13.127C62.3635 15.4806 62.318 18.1651 61.0591 21.1805L62.8767 20.6848L63.2703 18.5221L63.5583 20.499L67.0231 19.554L66.5196 14.9638C65.6321 11.6654 62.9759 9.38751 60.0704 9.11841Z" fill="#2F2E41"/>
<path d="M61.2083 8.5923C62.5198 8.5923 63.583 7.5219 63.583 6.20148C63.583 4.88107 62.5198 3.81067 61.2083 3.81067C59.8967 3.81067 58.8335 4.88107 58.8335 6.20148C58.8335 7.5219 59.8967 8.5923 61.2083 8.5923Z" fill="#2F2E41"/>
<path d="M61.0763 7.52967C60.5202 7.52999 59.9817 7.33374 59.5547 6.97516C59.1276 6.61658 58.8392 6.11844 58.7398 5.56766C58.6403 5.01688 58.7361 4.44841 59.0104 3.96146C59.2847 3.4745 59.7201 3.09996 60.2407 2.9032C59.9083 2.94614 59.5887 3.05947 59.3029 3.23572C59.0172 3.41198 58.7717 3.64716 58.5827 3.9258C58.3938 4.20443 58.2656 4.5202 58.2065 4.85232C58.1475 5.18443 58.159 5.52537 58.2403 5.85268C58.3216 6.18 58.4708 6.48627 58.6781 6.75135C58.8855 7.01642 59.1462 7.23428 59.4432 7.3906C59.7402 7.54691 60.0667 7.63813 60.4012 7.65825C60.7358 7.67837 61.0707 7.62694 61.3841 7.50734C61.2821 7.52147 61.1792 7.52893 61.0763 7.52967Z" fill="#2F2E41"/>
<path d="M61.9338 16.296C62.2617 16.296 62.5275 15.9095 62.5275 15.4327C62.5275 14.9559 62.2617 14.5693 61.9338 14.5693C61.6059 14.5693 61.3401 14.9559 61.3401 15.4327C61.3401 15.9095 61.6059 16.296 61.9338 16.296Z" fill="#FFB8B8"/>
<path d="M49.0046 31.5043L48.6088 36.8172C48.6088 36.8172 46.7618 39.7393 46.366 45.982L46.2341 49.8339C46.2341 49.8339 43.4635 55.2796 45.7063 55.1468C47.9492 55.014 47.8172 49.9667 47.8172 49.9667L51.7752 38.4111V32.8325L49.0046 31.5043Z" fill="#FFB8B8"/>
<path d="M51.3792 23.6677H50.4557C50.4557 23.6677 49.0045 24.5975 47.8171 28.5822C46.6297 32.5669 46.4978 32.6997 46.4978 32.6997L52.6986 34.1607L51.3792 23.6677Z" fill="#2F2E41"/>
<path d="M81.2915 25.526C81.9555 25.526 82.4939 24.984 82.4939 24.3155C82.4939 23.6469 81.9555 23.105 81.2915 23.105C80.6274 23.105 80.0891 23.6469 80.0891 24.3155C80.0891 24.984 80.6274 25.526 81.2915 25.526Z" fill="#D0CDE1"/>
<path d="M88.3105 47.3892C88.6057 47.3892 88.8449 47.1484 88.8449 46.8512C88.8449 46.5541 88.6057 46.3132 88.3105 46.3132C88.0154 46.3132 87.7761 46.5541 87.7761 46.8512C87.7761 47.1484 88.0154 47.3892 88.3105 47.3892Z" fill="#D0CDE1"/>
<path d="M80.7905 72.4929C81.0856 72.4929 81.3249 72.252 81.3249 71.9549C81.3249 71.6577 81.0856 71.4169 80.7905 71.4169C80.4954 71.4169 80.2561 71.6577 80.2561 71.9549C80.2561 72.252 80.4954 72.4929 80.7905 72.4929Z" fill="#D0CDE1"/>
<path d="M9.2839 70.8989C9.57904 70.8989 9.81829 70.658 9.81829 70.3609C9.81829 70.0638 9.57904 69.8229 9.2839 69.8229C8.98877 69.8229 8.74951 70.0638 8.74951 70.3609C8.74951 70.658 8.98877 70.8989 9.2839 70.8989Z" fill="#D0CDE1"/>
<path d="M34.4826 24.9422C34.7778 24.9422 35.017 24.7013 35.017 24.4042C35.017 24.1071 34.7778 23.8662 34.4826 23.8662C34.1875 23.8662 33.9482 24.1071 33.9482 24.4042C33.9482 24.7013 34.1875 24.9422 34.4826 24.9422Z" fill="#D0CDE1"/>
<path d="M88.6077 34.0619H88.3405V33.793H88.2069V34.0619H87.9397V34.1965H88.2069V34.4655H88.3405V34.1965H88.6077V34.0619Z" fill="#D0CDE1"/>
<path d="M97.7109 59.2984H97.4438V59.0294H97.3101V59.2984H97.043V59.4329H97.3101V59.7019H97.4438V59.4329H97.7109V59.2984Z" fill="#D0CDE1"/>
<path d="M67.3667 70.4555H67.0995V70.1865H66.9659V70.4555H66.6987V70.59H66.9659V70.859H67.0995V70.59H67.3667V70.4555Z" fill="#D0CDE1"/>
<path d="M49.9519 18.3888H49.6847V18.1199H49.5511V18.3888H49.2839V18.5234H49.5511V18.7924H49.6847V18.5234H49.9519V18.3888Z" fill="#D0CDE1"/>
<path d="M2.72046 28.8819H2.4533V28.6129H2.31965V28.8819H2.05249V29.0164H2.31965V29.2854H2.4533V29.0164H2.72046V28.8819Z" fill="#D0CDE1"/>
<path d="M7.86596 19.4515H7.5988V19.1825H7.46516V19.4515H7.198V19.586H7.46516V19.855H7.5988V19.586H7.86596V19.4515Z" fill="#D0CDE1"/>
<path d="M45.2024 70.8539H44.9352V70.585H44.8016V70.8539H44.5344V70.9885H44.8016V71.2574H44.9352V70.9885H45.2024V70.8539Z" fill="#D0CDE1"/>
<path d="M25.1489 15.3339H24.8818V15.0649H24.7481V15.3339H24.481V15.4685H24.7481V15.7374H24.8818V15.4685H25.1489V15.3339Z" fill="#D0CDE1"/>
<path d="M3.11621 46.2817H2.84905V46.0127H2.7154V46.2817H2.44824V46.4162H2.7154V46.6852H2.84905V46.4162H3.11621V46.2817Z" fill="#D0CDE1"/>
<path d="M23.3018 31.2726H23.0346V31.0037H22.9009V31.2726H22.6338V31.4072H22.9009V31.6761H23.0346V31.4072H23.3018V31.2726Z" fill="#D0CDE1"/>
<path d="M23.6975 69.7914H23.4303V69.5225H23.2967V69.7914H23.0295V69.926H23.2967V70.1949H23.4303V69.926H23.6975V69.7914Z" fill="#D0CDE1"/>
<path d="M35.7034 61.1579H35.4362V60.8889H35.3026V61.1579H35.0354V61.2924H35.3026V61.5614H35.4362V61.2924H35.7034V61.1579Z" fill="#D0CDE1"/>
<path d="M101.801 71.5181H101.534V71.2491H101.4V71.5181H101.133V71.6527H101.4V71.9216H101.534V71.6527H101.801V71.5181Z" fill="#D0CDE1"/>
<path d="M86.9937 66.1755H63.3613V66.4429H86.9937V66.1755Z" fill="#D0CDE1"/>
<path d="M76.5201 47.8163H62.2715V62.1612H76.5201V47.8163Z" fill="#37B5E8"/>
<path d="M65.0422 58.9734V47.8163H64.7783V59.2391H76.5202V58.9734H65.0422Z" fill="#D0CDE1"/>
<path d="M70.6412 31.1058L72.7521 36.2859C72.7521 36.2859 74.9949 38.9424 75.3907 41.8645L76.0504 45.3179C76.0504 45.3179 77.6336 51.4278 75.1269 51.1621C72.6202 50.8965 73.2798 45.0523 73.2798 45.0523L72.884 43.3256L70.6412 39.6065L67.3318 33.2735L70.6412 31.1058Z" fill="#FFB8B8"/>
<path d="M66.5515 25.5272L68.2666 26.0585L71.9607 31.6371L65.2322 36.1531L66.5515 25.5272Z" fill="#2F2E41"/>
<path d="M70.1874 56.8483C72.009 56.8483 73.4857 55.3616 73.4857 53.5277C73.4857 51.6938 72.009 50.2072 70.1874 50.2072C68.3658 50.2072 66.8892 51.6938 66.8892 53.5277C66.8892 55.3616 68.3658 56.8483 70.1874 56.8483Z" fill="#D0CDE1"/>
<path d="M69.3959 49.9414C70.7803 49.9414 71.9026 48.8116 71.9026 47.4178C71.9026 46.024 70.7803 44.8942 69.3959 44.8942C68.0114 44.8942 66.8892 46.024 66.8892 47.4178C66.8892 48.8116 68.0114 49.9414 69.3959 49.9414Z" fill="#37B5E8"/>
<path d="M76.5201 56.9811C77.9045 56.9811 79.0268 55.8512 79.0268 54.4575C79.0268 53.0637 77.9045 51.9338 76.5201 51.9338C75.1357 51.9338 74.0134 53.0637 74.0134 54.4575C74.0134 55.8512 75.1357 56.9811 76.5201 56.9811Z" fill="#37B5E8"/>
</svg>
