<svg width="106" height="85" viewBox="0 0 106 85" fill="none" xmlns="http://www.w3.org/2000/svg">
<g clip-path="url(#clip0)">
<path d="M69.7479 47.5899C67.5118 48.9217 63.5278 50.5904 59.4566 48.8755L56.8248 47.7669L62.0986 41.8959C57.8902 37.2877 55.562 31.2876 55.5684 25.0665C55.5748 18.8454 57.9154 12.85 62.1333 8.2504C66.3513 3.65083 72.1438 0.777278 78.3803 0.190621C84.6167 -0.396036 90.8495 1.34631 95.8621 5.07758C100.875 8.80884 104.307 14.2612 105.49 20.3704C106.672 26.4797 105.52 32.8073 102.257 38.1182C98.9952 43.4291 93.857 47.3421 87.846 49.0934C81.8349 50.8447 75.3824 50.3087 69.7479 47.5899ZM59.6433 25.0525C59.6317 27.9202 60.2177 30.7594 61.3646 33.3913C62.5115 36.0233 64.1944 38.391 66.3074 40.3458L67.7621 41.7033L64.4435 45.3977C66.1721 45.0494 67.6777 44.1207 68.4411 43.5813L69.4886 42.8411L70.6152 43.4559C73.7294 45.1491 77.2227 46.0365 80.7731 46.0361C92.4241 46.0361 101.903 36.6229 101.903 25.0525C101.903 13.482 92.4241 4.06878 80.7731 4.06878C69.1221 4.06878 59.6433 13.482 59.6433 25.0525Z" fill="#ECECEC"/>
<path d="M57.5947 25.0525C57.5947 12.34 67.9721 2.03442 80.7731 2.03442C93.5742 2.03442 103.951 12.34 103.951 25.0525C103.951 37.7651 93.5742 48.0707 80.7731 48.0707C76.8772 48.0763 73.0432 47.1022 69.6288 45.2391C68.0265 46.3712 64.1179 48.6293 60.2566 47.0027L64.9045 41.8285C62.594 39.6786 60.7529 37.0801 59.4955 34.1943C58.2381 31.3085 57.5911 28.1969 57.5947 25.0525Z" fill="#37B5E8"/>
<path opacity="0.1" d="M100.003 25.1025C100.003 13.0756 90.7143 3.20494 78.873 2.17486C79.5482 2.11613 80.2311 2.08435 80.9216 2.08435C93.7227 2.08435 104.1 12.3899 104.1 25.1025C104.1 37.815 93.7227 48.1206 80.9216 48.1206C80.2322 48.1206 79.5504 48.0884 78.8763 48.0298C90.716 46.9982 100.003 37.1282 100.003 25.1025Z" fill="black"/>
<path d="M27.3609 79.5671C21.5694 79.5698 15.9529 77.5956 11.4527 73.9752C6.95249 70.3548 3.84207 65.3084 2.6427 59.6816C1.44333 54.0547 2.22791 48.1895 4.86493 43.0688C7.50196 37.948 11.8312 33.883 17.1271 31.555C22.423 29.227 28.3637 28.7774 33.9537 30.2816C39.5437 31.7858 44.4432 35.1523 47.8311 39.8171C51.219 44.4818 52.8895 50.1613 52.5626 55.9036C52.2356 61.646 49.9312 67.1022 46.0354 71.358L51.3092 77.229L48.6774 78.3376C44.6062 80.0526 40.6222 78.3838 38.3861 77.052C34.9494 78.7065 31.1801 79.5664 27.3609 79.5671ZM27.3609 33.5309C15.71 33.5309 6.23117 42.9442 6.23117 54.5146C6.23117 66.085 15.71 75.4983 27.3609 75.4983C30.9113 75.4986 34.4046 74.6113 37.5188 72.918L38.6454 72.3032L39.6929 73.0434C40.4563 73.5828 41.9619 74.5115 43.6905 74.8598L40.3719 71.1655L41.8266 69.8079C43.9396 67.8532 45.6225 65.4854 46.7694 62.8534C47.9163 60.2215 48.5023 57.3824 48.4907 54.5146C48.4907 42.9442 39.0119 33.5309 27.3609 33.5309Z" fill="#ECECEC"/>
<path d="M50.5393 54.5145C50.5393 41.8019 40.162 31.4963 27.361 31.4963C14.5599 31.4963 4.18262 41.8019 4.18262 54.5145C4.18262 67.227 14.5599 77.5326 27.361 77.5326C31.2569 77.5382 35.0908 76.5641 38.5053 74.701C40.1076 75.8331 44.0162 78.0912 47.8775 76.4646L43.2295 71.2904C45.5401 69.1405 47.3812 66.542 48.6386 63.6562C49.896 60.7704 50.543 57.6588 50.5393 54.5145Z" fill="#37B5E8"/>
<path opacity="0.1" d="M8.2798 54.3982C8.2798 42.3714 17.5683 32.5007 29.4096 31.4706C28.7344 31.4119 28.0515 31.3801 27.361 31.3801C14.5599 31.3801 4.18262 41.6857 4.18262 54.3982C4.18262 67.1108 14.5599 77.4163 27.361 77.4163C28.0504 77.4163 28.7322 77.3841 29.4063 77.3255C17.5666 76.294 8.2798 66.4239 8.2798 54.3982Z" fill="black"/>
<path d="M86.2143 17.7397C84.6978 15.195 81.6975 15.0764 81.6975 15.0764C81.6975 15.0764 78.7739 14.7051 76.8984 18.5808C75.1503 22.1932 72.7376 25.6811 76.51 26.5267L77.1913 24.4206L77.6133 26.6835C78.1504 26.7219 78.6892 26.731 79.2274 26.7109C83.2672 26.5814 87.1146 26.7488 86.9907 25.3092C86.826 23.3954 87.6735 20.1883 86.2143 17.7397Z" fill="#2F2E41"/>
<path d="M76.2946 40.0252C76.2501 40.3051 76.1854 40.5815 76.1012 40.8523C76.0063 41.1173 75.8598 41.3623 75.773 41.6301C75.4964 42.4835 75.8798 43.4351 76.4922 44.0938C77.0233 44.6628 77.7088 45.067 78.466 45.2577C79.0235 45.3762 79.5921 45.4355 80.1622 45.4347C81.7387 45.4878 83.3558 45.5353 84.8496 45.0322C85.3216 44.8693 85.7774 44.6636 86.2114 44.4178C86.3485 44.3529 86.4692 44.2585 86.5648 44.1415C86.6649 43.97 86.7094 43.7721 86.6923 43.5746C86.689 42.9109 86.5535 42.2506 86.5857 41.5877C86.6035 41.2205 86.6727 40.8535 86.6386 40.4875C86.5915 40.0717 86.4161 39.6806 86.1365 39.3676C85.8569 39.0547 85.4867 38.8352 85.0767 38.7392C84.6529 38.6488 84.2134 38.698 83.7819 38.7392C82.662 38.8461 81.5374 38.896 80.4123 38.8889C79.2628 38.8816 78.1204 38.7073 76.9767 38.6891C76.6384 38.6837 76.6453 38.7873 76.5376 39.1124C76.4384 39.4116 76.3573 39.7164 76.2946 40.0252Z" fill="#2F2E41"/>
<path d="M79.5569 23.6368C79.5016 23.924 79.4419 24.2218 79.2681 24.4578C79.0681 24.7294 78.7421 24.8846 78.5269 25.1445C78.2031 25.5357 78.1845 26.0863 78.1832 26.5927C78.182 27.0592 78.1915 27.5568 78.4535 27.9441C78.6399 28.1847 78.8713 28.3873 79.135 28.5408C80.1175 29.1984 81.1791 29.8677 82.3637 29.8894C82.8545 29.8983 83.3807 29.7725 83.7037 29.4053C83.8431 29.2329 83.9527 29.0386 84.0281 28.8305C84.331 28.0891 84.5146 27.3049 84.5722 26.5068C84.6158 26.1316 84.5805 25.7515 84.4686 25.3906C84.3247 24.9921 84.0337 24.6643 83.8414 24.2865C83.6141 23.8373 83.531 23.3297 83.6032 22.8321C83.6128 22.7971 83.6098 22.7598 83.5949 22.7267C83.579 22.709 83.5593 22.6951 83.5372 22.6863C83.5151 22.6774 83.4912 22.6737 83.4674 22.6755L81.1187 22.5075C80.9 22.4967 80.6821 22.472 80.4666 22.4335C80.34 22.4079 80.0056 22.2293 79.8848 22.2768C79.6613 22.3647 79.6027 23.3986 79.5569 23.6368Z" fill="#A0616A"/>
<path opacity="0.1" d="M79.5569 23.7095C79.5017 23.9968 79.4419 24.2945 79.2681 24.5306C79.0681 24.8022 78.7421 24.9574 78.5269 25.2173C78.2031 25.6085 78.1845 26.159 78.1832 26.6654C78.182 27.132 78.1915 27.6296 78.4535 28.0168C78.6399 28.2574 78.8713 28.46 79.135 28.6136C80.1175 29.2711 81.1792 29.9404 82.3637 29.9621C82.8545 29.9711 83.3808 29.8452 83.7037 29.4781C83.8431 29.3056 83.9528 29.1114 84.0281 28.9033C84.331 28.1618 84.5146 27.3777 84.5722 26.5796C84.6158 26.2044 84.5806 25.8243 84.4686 25.4633C84.3247 25.0649 84.0338 24.7371 83.8415 24.3593C83.6141 23.9101 83.531 23.4025 83.6033 22.9049C83.6128 22.8698 83.6099 22.8326 83.5949 22.7995C83.5791 22.7818 83.5593 22.7679 83.5372 22.759C83.5151 22.7501 83.4913 22.7464 83.4675 22.7482L81.1187 22.5803C80.9 22.5695 80.6822 22.5448 80.4666 22.5062C80.34 22.4806 80.0056 22.3021 79.8848 22.3495C79.6614 22.4375 79.6027 23.4714 79.5569 23.7095Z" fill="black"/>
<path d="M81.8031 23.9496C83.7062 23.9496 85.2489 22.4175 85.2489 20.5275C85.2489 18.6376 83.7062 17.1055 81.8031 17.1055C79.8999 17.1055 78.3572 18.6376 78.3572 20.5275C78.3572 22.4175 79.8999 23.9496 81.8031 23.9496Z" fill="#A0616A"/>
<path d="M80.04 28.1921C80.2103 28.3878 80.4155 28.5507 80.6453 28.6723C80.8849 28.7707 81.1422 28.8193 81.4014 28.8153C82.0226 28.8327 82.6959 28.7196 83.128 28.2762C83.685 27.7045 83.6667 26.7824 84.1033 26.1155C84.1385 26.0551 84.1865 26.0029 84.244 25.9627C84.3172 25.9231 84.4 25.9042 84.4833 25.9081C85.0347 25.903 85.515 26.2581 85.9485 26.5966C86.1525 26.736 86.3276 26.9132 86.4642 27.1183C86.55 27.2844 86.6086 27.4629 86.6382 27.6472C86.8533 28.6901 86.9229 29.7564 86.9921 30.8187C87.0303 31.4054 87.0685 31.9928 87.0656 32.5808C87.0563 34.5179 86.6029 36.4226 86.152 38.3073C86.094 38.5502 86.0145 38.8216 85.7921 38.9379C85.6929 38.9822 85.5865 39.008 85.478 39.014C84.1866 39.1647 82.8926 39.3155 81.5925 39.3353C81.0852 39.3431 80.578 39.3309 80.0711 39.2987C79.9839 39.2976 79.8973 39.2826 79.8148 39.2544C79.7029 39.201 79.6066 39.1198 79.5354 39.0187C78.8322 38.1387 78.7907 36.9221 78.7952 35.7986C78.8062 33.0518 78.905 30.3073 79.0917 27.5649C79.1071 27.3386 79.1104 27.0637 78.9462 26.8856C79.266 27.3563 79.6324 27.7939 80.04 28.1921Z" fill="white"/>
<path d="M79.31 24.2409C79.1936 24.4501 78.3356 24.9696 78.17 25.143C77.2444 26.1119 75.5552 26.0755 74.7087 27.1132C74.4109 27.4783 74.2562 27.937 74.1424 28.3931C73.9815 29.0381 73.8955 29.7415 74.1651 30.3497C74.4246 30.9349 74.9707 31.3395 75.3415 31.8623C75.7486 32.4363 75.9317 33.1332 76.1071 33.8133C76.2366 34.3155 76.3672 34.8301 76.3168 35.346C76.2594 35.9327 75.9736 36.4698 75.8048 37.0349C75.636 37.6 75.6069 38.273 75.9971 38.717C76.2838 39.0433 76.7335 39.1726 77.1633 39.2454C77.7138 39.3275 78.269 39.3755 78.8255 39.3891C79.3169 39.4106 79.8585 39.4148 80.2362 39.102C80.5342 38.8552 80.6638 38.4546 80.6805 38.0696C80.6973 37.6846 80.6166 37.303 80.5661 36.9208C80.5137 36.5247 80.4936 36.1252 80.4768 35.726C80.4012 33.935 80.3909 32.1428 80.4458 30.3495C80.4735 29.9768 80.4551 29.6021 80.391 29.2338C80.2857 28.7541 80.0246 28.3254 79.8067 27.8846C79.3714 27.0544 79.1742 26.1214 79.2367 25.1874C79.3027 24.2276 79.7242 23.4964 79.31 24.2409Z" fill="white"/>
<path d="M84.149 24.3136C84.3263 24.4945 84.9286 24.5541 85.1541 24.6707C85.3662 24.768 85.5876 24.8441 85.8149 24.8979C86.6374 25.1335 87.4198 25.4901 88.136 25.9558C88.2849 26.0423 88.4164 26.1552 88.5242 26.2888C88.6377 26.4722 88.7109 26.6775 88.7389 26.891C88.8493 27.4341 88.9603 27.9839 88.9355 28.5374C88.9092 29.1251 88.7309 29.6942 88.5541 30.2555L87.8934 32.3531C87.4003 33.9188 86.904 35.5 86.7652 37.1347C86.6885 38.0407 86.7226 38.9526 86.8669 39.8504C86.8804 39.8941 86.8845 39.9402 86.8787 39.9855C86.873 40.0309 86.8576 40.0745 86.8336 40.1135C86.79 40.1562 86.7328 40.1824 86.6718 40.1874C86.3529 40.2369 86.0443 40.0754 85.7554 39.9326C84.8724 39.4962 83.93 39.1899 82.958 39.0236C83.3378 38.4785 83.6309 37.8785 83.8269 37.2448C83.9382 36.8425 84.0258 36.434 84.0894 36.0215L84.3967 34.2563C84.5218 33.611 84.6098 32.9593 84.6604 32.3041C84.6836 32.0583 84.6692 31.8104 84.6176 31.5688C84.5468 31.3389 84.4527 31.1167 84.3369 30.9056C83.8304 29.8593 83.5927 28.6653 83.792 27.5213C83.8792 27.0207 84.0487 26.5194 83.978 26.0162C83.9101 25.5324 83.9807 25.1564 83.8557 24.6776C83.3425 22.7117 83.8155 23.9732 84.149 24.3136Z" fill="white"/>
<path d="M74.7003 28.7673C74.4694 29.2432 74.0833 29.6486 73.9519 30.1605C73.9008 30.3997 73.8789 30.6442 73.8867 30.8886C73.8639 31.257 73.9006 31.6266 73.9955 31.9835C74.0688 32.2092 74.1881 32.4173 74.274 32.6386C74.3939 32.9478 74.4472 33.2784 74.4308 33.6093C74.4076 34.0677 74.2507 34.5126 74.2385 34.9714C74.2192 35.6929 74.5553 36.3712 74.8831 37.0153C74.9657 36.8123 75.0919 36.6297 75.2529 36.4802C75.4139 36.3308 75.6059 36.218 75.8153 36.1499C76.0248 36.0818 76.2467 36.06 76.4656 36.086C76.6844 36.1119 76.8949 36.1851 77.0823 36.3003C77.1574 36.2087 77.1931 36.0913 77.1815 35.9738C77.2057 35.1368 77.2291 34.2997 77.2516 33.4626C77.2871 32.168 77.3209 30.8561 77.021 29.5957C76.8856 29.0266 76.6749 28.4597 76.2887 28.0184C76.0854 27.786 75.395 27.1738 75.0612 27.4341C74.911 27.5512 74.9461 27.8699 74.9223 28.0313C74.8864 28.2865 74.8115 28.5346 74.7003 28.7673Z" fill="white"/>
<path d="M89.0032 27.396C89.0961 27.7392 89.1359 28.0943 89.1212 28.4494C89.1256 29.173 89.1159 29.8965 89.0922 30.6199C89.0958 30.9909 89.0481 31.3607 88.9502 31.7188C88.8756 31.9516 88.7606 32.17 88.6836 32.4021C88.4528 33.0977 88.5789 33.8521 88.5987 34.5841C88.6126 34.8211 88.5923 35.0588 88.5382 35.29C88.4164 35.7438 88.0891 36.1105 87.8606 36.5218C87.6436 36.9123 87.5127 37.3501 87.2536 37.7145C86.9944 38.0788 86.5458 38.3675 86.111 38.2557C85.7815 38.1709 85.5474 37.8813 85.3855 37.584C85.0322 36.9304 84.9113 36.1775 85.0425 35.4472C85.2051 34.5587 85.7307 33.7704 85.9202 32.8872C86.1805 31.6743 85.7849 30.4226 85.7967 29.1826C85.7913 28.9882 85.8179 28.7942 85.8753 28.6083C85.9747 28.3251 86.1882 28.0988 86.3855 27.8717C86.632 27.5878 86.861 27.2893 87.0712 26.978C87.2124 26.7688 87.4042 26.2309 87.6546 26.1862C88.2135 26.0863 88.8646 26.9671 89.0032 27.396Z" fill="white"/>
<path d="M71.7995 39.4858C71.4904 39.4086 71.1719 39.375 70.8534 39.3859C70.5187 39.4043 70.1918 39.4932 69.8944 39.6468C69.597 39.8003 69.3359 40.015 69.1286 40.2765C68.9212 40.538 68.7722 40.8403 68.6916 41.1634C68.611 41.4865 68.6006 41.823 68.661 42.1504C68.7382 42.5051 68.8644 42.8474 69.036 43.1678C69.2869 43.6735 69.5878 44.178 70.0523 44.502C70.3322 44.6802 70.6336 44.8227 70.9493 44.9261L73.3958 45.8413C73.7557 45.976 74.1156 46.1106 74.4791 46.2355C76.3051 46.8623 78.2089 47.2381 80.1375 47.3526C80.7243 47.4072 81.316 47.3774 81.8943 47.2642C82.0341 47.2461 82.1622 47.1773 82.2541 47.0711C82.3008 46.9905 82.3282 46.9003 82.3345 46.8074L82.4851 45.7608C82.5187 45.6151 82.5143 45.4632 82.4723 45.3196C82.4033 45.1437 82.2304 45.0331 82.0656 44.9391C80.4572 44.0217 78.5792 43.5156 77.2254 42.2565C76.9067 41.96 76.64 41.4902 76.2528 41.2888C75.8137 41.0605 75.2966 40.9302 74.8427 40.7198C73.8504 40.2598 72.8749 39.7313 71.7995 39.4858Z" fill="#2F2E41"/>
<path opacity="0.1" d="M74.242 40.8968C75.1067 41.1659 78.7576 43.0301 79.3834 43.681C79.2995 43.711 76.4536 42.1271 76.3682 42.1017C75.5854 41.8882 74.8188 41.6199 74.0742 41.2989C73.9259 41.2308 73.1108 40.9106 73.1477 40.7248C73.1894 40.5151 74.0885 40.849 74.242 40.8968Z" fill="black"/>
<path d="M85.0302 47.8953C85.0793 47.8989 85.128 47.8847 85.1673 47.8553C85.1845 47.8333 85.1972 47.8081 85.2045 47.7812C85.2119 47.7543 85.2138 47.7262 85.2101 47.6986L85.2061 46.2727C84.7932 46.0774 84.3314 46.0148 83.8781 45.9546L81.763 45.6738C81.8116 45.6803 81.4323 46.5785 81.4905 46.6984C81.593 46.9098 82.3763 47.0971 82.5974 47.1969C83.366 47.5438 84.1646 47.9252 85.0302 47.8953Z" fill="#A0616A"/>
<path d="M78.3943 46.2679C77.9949 46.331 77.5492 46.3869 77.2906 46.6956C76.9626 47.0871 77.1023 47.6707 77.2587 48.1557C77.2682 48.2183 77.2903 48.2784 77.3236 48.3323C77.357 48.3863 77.4009 48.4331 77.4527 48.4699C77.5046 48.5067 77.5633 48.5329 77.6255 48.5467C77.6877 48.5606 77.7521 48.562 77.8148 48.5507C78.179 48.5736 78.5666 48.5916 78.8848 48.4142C79.0289 48.3196 79.1677 48.2171 79.3005 48.1073C79.5351 47.9523 79.793 47.8352 80.0647 47.7604C80.564 47.6044 81.0779 47.4992 81.5987 47.4464C81.8038 47.4371 82.007 47.4016 82.203 47.3406C82.3009 47.3093 82.3902 47.256 82.464 47.1848C82.5378 47.1137 82.5941 47.0266 82.6285 46.9303C82.7022 46.6712 82.5506 46.407 82.4052 46.1798C82.2376 45.8821 82.02 45.6151 81.7619 45.3902C81.3678 45.0862 81.1729 45.3196 80.7759 45.5141C80.0245 45.8824 79.2217 46.1365 78.3943 46.2679Z" fill="#A0616A"/>
<path d="M77.3505 46.6251L74.8148 45.8808C74.5107 45.7756 74.1929 45.7144 73.8712 45.6992C73.7101 45.6926 73.5495 45.7203 73.4001 45.7803C73.2506 45.8403 73.1158 45.9313 73.0046 46.0472C72.808 46.2764 72.7517 46.5896 72.7027 46.8867L72.5978 47.5223C72.5279 47.8427 72.5081 48.172 72.5391 48.4984C72.556 48.6616 72.6101 48.8189 72.6974 48.9582C72.7847 49.0976 72.9029 49.2153 73.0429 49.3025C73.3938 49.4926 73.8238 49.3997 74.2154 49.3202C75.0065 49.1596 75.8111 49.0739 76.6184 49.0643C76.9219 49.0607 77.2402 49.0645 77.5084 48.9233C77.6641 48.8317 77.7949 48.7036 77.8894 48.5504C77.9839 48.3971 78.0393 48.2232 78.0508 48.0439C78.1007 47.5009 77.9184 46.7918 77.3505 46.6251Z" fill="#2F2E41"/>
<path d="M86.0266 45.9765C86.3554 45.9193 86.6455 45.7338 86.9605 45.6243C87.4038 45.4701 87.8843 45.4701 88.354 45.4718C88.5267 45.4562 88.7003 45.4907 88.8536 45.5712C89.0605 45.708 89.1136 45.9818 89.1487 46.2261L89.361 47.7005C89.4178 47.9756 89.4237 48.2586 89.3784 48.5357C89.3161 48.809 89.1285 49.0724 88.8555 49.1429C88.524 49.2285 88.1989 49.0181 87.8858 48.8799C87.1033 48.5346 86.1937 48.6228 85.3778 48.3647C85.2998 48.3492 85.226 48.3174 85.1613 48.2714C85.0966 48.2255 85.0425 48.1664 85.0025 48.0982C84.9746 48.0163 84.9646 47.9294 84.9733 47.8434C84.9872 47.3695 84.8866 46.7223 85.0303 46.2694C85.1595 45.8621 85.6597 45.9765 86.0266 45.9765Z" fill="#2F2E41"/>
<path d="M91.3929 38.8923C91.8996 38.7661 92.4248 38.7305 92.9441 38.7871C93.3588 38.8324 93.786 38.947 94.0888 39.2321C94.4573 39.579 94.5757 40.1155 94.5856 40.6197C94.6018 41.6239 94.2664 42.6025 93.6367 43.3885C93.483 43.5872 93.3001 43.762 93.0943 43.9071C92.8722 44.045 92.6355 44.1583 92.3885 44.2448L86.9097 46.3909C85.4683 46.9555 84.0219 47.5217 82.5185 47.8939C82.4774 47.9136 82.4328 47.9249 82.3872 47.9272C82.3416 47.9295 82.296 47.9228 82.2531 47.9073C82.2102 47.8919 82.1708 47.8681 82.1373 47.8373C82.1038 47.8065 82.0768 47.7694 82.058 47.7281C81.578 47.0471 81.1753 46.3156 80.8572 45.5467C80.8421 45.5284 80.8317 45.5068 80.8269 45.4837C80.822 45.4606 80.8228 45.4367 80.8292 45.4139C80.8356 45.3912 80.8475 45.3703 80.8637 45.3531C80.88 45.3359 80.9002 45.3228 80.9226 45.3149L84.7978 43.1038C85.082 42.9566 85.3468 42.7753 85.5865 42.5641C85.754 42.4029 85.8912 42.2133 85.9915 42.0042C86.0718 41.8376 86.0793 41.4444 86.1819 41.3212C86.2824 41.2007 86.626 41.191 86.7847 41.1436C87.0086 41.0755 87.2278 40.9932 87.441 40.8972C88.3078 40.5121 89.0797 39.9526 89.9107 39.5016C90.3768 39.237 90.8749 39.0322 91.3929 38.8923Z" fill="#2F2E41"/>
<path opacity="0.1" d="M89.1962 40.5436C88.5304 41.0402 87.6684 41.4967 87.0085 42.0063C86.7833 42.1803 83.0292 44.2763 82.9761 44.5547C83.5917 44.6577 87.5132 41.9333 88.0742 41.6615C88.6353 41.3896 89.1327 41.0062 89.6255 40.6257C89.7511 40.5287 90.2834 40.2372 89.9228 40.1288C89.7197 40.0678 89.3462 40.4443 89.1962 40.5436Z" fill="black"/>
<path d="M84.6152 24.3617H78.771C78.5336 24.3617 78.3059 24.4554 78.138 24.6221C77.9701 24.7888 77.8758 25.015 77.8758 25.2508V25.5763H77.8123V26.3044H77.8758V26.8141H77.8123V27.251H77.8758V32.6233C77.8758 32.8591 77.9701 33.0852 78.138 33.2519C78.3059 33.4187 78.5336 33.5123 78.771 33.5123H84.6152C84.8527 33.5123 85.0804 33.4187 85.2483 33.2519C85.4162 33.0852 85.5105 32.8591 85.5105 32.6233V25.2508C85.5105 25.015 85.4162 24.7888 85.2483 24.6221C85.0804 24.4554 84.8527 24.3617 84.6152 24.3617Z" fill="#D0CDE1"/>
<path d="M85.5439 17.4944L82.5797 15.9524L78.4863 16.5832L77.6394 20.2979L79.7476 20.2172L80.3365 18.8526V20.1949L81.3093 20.1577L81.8739 17.9849L82.2268 20.2979L85.685 20.2277L85.5439 17.4944Z" fill="#2F2E41"/>
<path d="M75.4756 38.4112C75.6097 38.6376 75.8003 38.8258 76.0289 38.9578C76.1789 39.0259 76.3426 39.059 76.5074 39.0546C76.6722 39.0502 76.8339 39.0084 76.98 38.9325C77.2718 38.7771 77.5107 38.5393 77.6664 38.2491C77.9886 37.6842 78.0553 37.0082 78.0151 36.3602C77.9749 35.7122 77.8356 35.0741 77.7739 34.4278C77.7291 33.9579 77.7254 33.4853 77.7218 33.0134C77.7107 32.9141 77.7316 32.8139 77.7817 32.7273C77.8678 32.6423 77.9792 32.587 78.0994 32.5697C78.7496 32.3779 79.1812 31.7727 79.4906 31.1733C79.6972 30.7731 79.8768 30.3356 79.837 29.8875C79.7971 29.4395 79.4728 28.9882 79.0223 28.9425C78.6509 28.9048 78.3079 29.1391 78.0399 29.3973C77.364 30.0528 76.9296 30.915 76.8066 31.8452C76.7477 32.3007 76.7646 32.7687 76.6398 33.2109C76.3734 34.1551 75.5399 34.7341 75.1246 35.5837C74.6669 36.52 74.9195 37.5828 75.4756 38.4112Z" fill="#A0616A"/>
<path d="M87.7409 34.8037C87.6461 35.0227 87.5081 35.2206 87.335 35.3858C87.162 35.5509 86.9573 35.68 86.7332 35.7653C86.4546 35.8764 86.1473 35.8951 85.8572 35.8186C85.7133 35.7789 85.5805 35.7069 85.4693 35.608C85.358 35.5091 85.2711 35.3861 85.2155 35.2485C85.1711 35.1099 85.1467 34.9658 85.1432 34.8204C85.1015 34.1836 85.1176 33.5274 85.3505 32.9327C85.4403 32.7033 85.5615 32.4858 85.6323 32.25C85.702 31.9776 85.7377 31.6977 85.7385 31.4167L85.815 29.6793C85.8277 29.5532 85.8189 29.4258 85.7891 29.3026C85.7127 29.0512 85.4761 28.8878 85.259 28.7379C84.7347 28.3758 84.2167 27.9534 83.9626 27.3715C83.8754 27.1964 83.8441 26.9989 83.8731 26.8056C83.9447 26.4606 84.2953 26.2372 84.6418 26.162C84.8685 26.1127 85.103 26.1096 85.3309 26.1527C85.5589 26.1959 85.7758 26.2844 85.9684 26.413C86.161 26.5415 86.3254 26.7075 86.4517 26.9009C86.578 27.0942 86.6636 27.311 86.7033 27.5381C86.7376 27.7341 86.7371 27.9344 86.7572 28.1324C86.7998 28.5524 86.934 28.9573 87.018 29.3711C87.2249 30.3904 87.1177 31.4441 87.3223 32.4632C87.4934 33.3153 88.1385 33.8713 87.7409 34.8037Z" fill="#A0616A"/>
<path d="M81.771 28.2703C82.1759 28.2703 82.5041 27.9443 82.5041 27.5422C82.5041 27.1401 82.1759 26.8141 81.771 26.8141C81.3661 26.8141 81.0378 27.1401 81.0378 27.5422C81.0378 27.9443 81.3661 28.2703 81.771 28.2703Z" fill="#6C63FF"/>
<path d="M2.16299 53.7101C3.35744 53.7101 4.32574 52.7485 4.32574 51.5623C4.32574 50.3761 3.35744 49.4146 2.16299 49.4146C0.968539 49.4146 0.000244141 50.3761 0.000244141 51.5623C0.000244141 52.7485 0.968539 53.7101 2.16299 53.7101Z" fill="#2F2E41"/>
<path d="M10.0026 57.9385L8.91328 56.887L6.72583 57.5617L6.93593 60.077L11.4336 59.8696L10.0519 58.0051L10.0026 57.9385Z" fill="#FBBEBE"/>
<path d="M7.6201 57.9168C9.5512 57.9168 11.1167 56.3622 11.1167 54.4444C11.1167 52.5267 9.5512 50.972 7.6201 50.972C5.689 50.972 4.12354 52.5267 4.12354 54.4444C4.12354 56.3622 5.689 57.9168 7.6201 57.9168Z" fill="#FBBEBE"/>
<path d="M29.3269 62.3954C29.3269 62.3954 33.6225 69.7264 34.6448 70.827C35.131 71.3686 35.6489 71.8813 36.196 72.3623C36.196 72.3623 35.7153 73.9454 34.9499 73.8889C34.5136 73.8628 34.0857 73.7581 33.6872 73.5799C33.6872 73.5799 33.3456 72.7004 32.7497 72.3147C32.1537 71.929 27.2851 67.1724 27.3989 65.6521C27.5127 64.1318 29.3269 62.3954 29.3269 62.3954Z" fill="#2F2E41"/>
<path d="M14.0291 72.8571C14.0291 72.8571 18.6091 76.3874 24.8336 73.0702L25.37 72.6781C25.37 72.6781 24.4648 74.7005 24.3808 75.2488C24.2834 75.8846 21.9266 79.6087 21.542 79.7871C21.1574 79.9656 21.0726 80.1302 21.0726 80.1302L22.7047 81.9142L23.3082 81.4732C23.3082 81.4732 25.6613 78.1624 26.3495 77.5568C27.0377 76.9511 30.3167 70.7053 30.3167 70.7053C30.3167 70.7053 31.5704 68.352 28.4416 68.175C25.3129 67.998 23.8731 68.8448 23.8731 68.8448L18.3204 69.7208L14.0291 72.8571Z" fill="#2F2E41"/>
<path d="M36.2492 72.0155L38.5658 73.6073C38.5658 73.6073 41.5212 74.5269 39.7007 75.1388C37.8801 75.7508 33.0826 75.9721 32.9738 75.1278C32.8649 74.2835 33.163 72.9546 33.4024 73.0273C33.6417 73.0999 35.3029 73.5283 36.2492 72.0155Z" fill="#2F2E41"/>
<path d="M23.5132 80.9263L23.942 83.2646C23.942 83.2646 25.1612 85.5803 23.6973 84.8618C22.2334 84.1433 19.2175 81.4141 19.6628 80.842C20.1082 80.2698 21.0911 79.6493 21.191 79.8358C21.2908 80.0222 22.0296 81.2706 23.5132 80.9263Z" fill="#2F2E41"/>
<path d="M19.096 70.4884C19.096 70.4884 15.9825 74.0983 14.0923 73.2214C12.2021 72.3445 4.46893 62.1879 5.35193 60.3108C6.23493 58.4337 6.531 58.8332 6.531 58.8332L10.5239 59.1999L9.37503 57.3706C9.37503 57.3706 9.91145 56.9786 10.4226 57.5288C10.9338 58.0791 12.9859 59.4536 13.7008 61.3947C14.4158 63.3358 16.5147 63.239 16.5147 63.239L19.096 70.4884Z" fill="white"/>
<path d="M31.6689 63.0448L26.2719 68.7341L21.4373 60.2573L26.0334 54.7426L31.6689 63.0448Z" fill="#3F3D56"/>
<path d="M31.2615 62.9833L26.3871 67.9828L21.97 60.2786L26.0208 55.2139L31.2615 62.9833Z" fill="white"/>
<path d="M26.0075 68.5168L26.2719 68.7342L26.1024 69.0633L18.5557 71.2939L18.4844 71.0372L18.8277 70.6845L26.0075 68.5168Z" fill="#B3B3B3"/>
<path d="M26.3388 68.6852L18.524 71.1117L13.7603 62.1724L21.4371 60.2573L26.3388 68.6852Z" fill="#D0CDE1"/>
<path d="M25.7505 67.4727L25.4152 67.7177L21.6941 61.3013L22.0787 61.1229L25.7505 67.4727Z" fill="#3F3D56"/>
<path d="M24.9814 67.8296L21.6756 68.8085L17.9229 62.2099L21.1933 61.4623L24.9814 67.8296Z" fill="#3F3D56"/>
<path d="M15.6683 62.9337L16.3528 62.7415C16.3528 62.7415 20.1698 62.3128 20.2255 63.5039C20.2812 64.695 15.8404 64.1424 15.8404 64.1424L15.2483 63.3433L15.6683 62.9337Z" fill="#FBBEBE"/>
<path d="M19.0161 68.2884L19.9688 67.9002C19.9688 67.9002 22.8445 66.6197 22.0195 65.7855C21.1946 64.9513 18.6504 66.4 18.6504 66.4L18.1633 66.8587L19.0161 68.2884Z" fill="#FBBEBE"/>
<path d="M18.1671 66.4453C18.1671 66.4453 19.7183 67.9805 19.3653 68.3412C19.0124 68.7018 13.2244 73.445 11.7897 71.9273C10.3549 70.4096 3.36448 62.7898 6.08456 62.1363C8.80465 61.4828 9.52333 63.0106 9.52333 63.0106L13.1142 69.1116L18.1671 66.4453Z" fill="white"/>
<path d="M13.5224 61.7817L16.0704 62.6398L16.0288 64.4666L13.334 64.1778L13.5224 61.7817Z" fill="white"/>
<path opacity="0.2" d="M15.8192 67.3915L13.0739 68.9873L9.93726 64.1967L12.965 68.1429L15.8192 67.3915Z" fill="black"/>
<path d="M6.08543 57.5717C8.38436 57.5717 10.248 55.7209 10.248 53.4379C10.248 51.1548 8.38436 49.3041 6.08543 49.3041C3.7865 49.3041 1.92285 51.1548 1.92285 53.4379C1.92285 55.7209 3.7865 57.5717 6.08543 57.5717Z" fill="#2F2E41"/>
<path d="M28.5767 63.4056L25.6621 59.1713L26.8976 57.6525L29.9262 62.0088L28.5767 63.4056Z" fill="#6C63FF"/>
<path d="M28.4944 65.108L24.0571 58.7018L24.276 58.4392L28.6925 64.8605L28.4944 65.108Z" fill="#E6E6E6"/>
<path d="M27.9229 65.7312L23.4856 59.325L23.7044 59.0624L28.121 65.4838L27.9229 65.7312Z" fill="#E6E6E6"/>
<path d="M27.4358 66.1898L22.9985 59.7836L23.2174 59.521L27.6339 65.9424L27.4358 66.1898Z" fill="#E6E6E6"/>
<path d="M7.92847 50.6781H9.21616C9.86814 50.6781 10.4934 50.9353 10.9544 51.3931C11.4155 51.851 11.6745 52.4719 11.6745 53.1194H7.92847V50.6781Z" fill="#2F2E41"/>
<path d="M25.6666 49.1246L25.4331 49.1073C25.4241 49.2278 25.4176 49.3491 25.4099 49.47L24.3621 49.4352L25.4612 51.4806L26.6956 49.5128L25.6439 49.4778C25.6515 49.3601 25.6577 49.242 25.6666 49.1246Z" fill="#3F3D56"/>
<path d="M31.8123 32.4518L31.9984 32.593C32.2775 32.2298 32.5691 31.8673 32.865 31.5155L32.6853 31.3665C32.3872 31.7209 32.0935 32.086 31.8123 32.4518Z" fill="#3F3D56"/>
<path d="M33.6057 30.3204L33.7786 30.4772C34.0892 30.1394 34.4117 29.8039 34.737 29.48L34.5712 29.3158C34.2434 29.6421 33.9186 29.9801 33.6057 30.3204Z" fill="#3F3D56"/>
<path d="M35.5801 28.3543L35.7384 28.5257C36.0781 28.2159 36.4288 27.9099 36.7808 27.6162L36.6303 27.4382C36.2756 27.7341 35.9223 28.0424 35.5801 28.3543Z" fill="#3F3D56"/>
<path d="M30.2144 34.7329L30.4122 34.8571C30.6583 34.4704 30.9167 34.0837 31.1802 33.7075L30.9881 33.5747C30.7226 33.9537 30.4623 34.3434 30.2144 34.7329Z" fill="#3F3D56"/>
<path d="M37.72 26.569L37.8625 26.7534C38.2283 26.4744 38.6047 26.2004 38.9811 25.9388L38.8469 25.7483C38.4676 26.0118 38.0885 26.2879 37.72 26.569Z" fill="#3F3D56"/>
<path d="M28.825 37.146L29.0331 37.2523C29.244 36.8449 29.4671 36.4368 29.696 36.0393L29.4927 35.9238C29.2621 36.3244 29.0374 36.7356 28.825 37.146Z" fill="#3F3D56"/>
<path d="M26.5668 43.6905L26.3401 43.6326C26.2244 44.0787 26.1173 44.5336 26.0217 44.9847L26.2508 45.0327C26.3457 44.5849 26.452 44.1333 26.5668 43.6905Z" fill="#3F3D56"/>
<path d="M40.0085 24.9779L40.1342 25.1741C40.5222 24.9289 40.9212 24.6889 41.3201 24.4609L41.2032 24.2594C40.8014 24.4892 40.3995 24.7309 40.0085 24.9779Z" fill="#3F3D56"/>
<path d="M25.9951 46.3874L25.7641 46.3497C25.6889 46.8036 25.6229 47.2661 25.5679 47.7244L25.8004 47.7519C25.855 47.2971 25.9205 46.838 25.9951 46.3874Z" fill="#3F3D56"/>
<path d="M27.6562 39.6736L27.8731 39.7611C28.0467 39.3368 28.2324 38.9104 28.4251 38.4938L28.2123 38.3967C28.0182 38.8165 27.8311 39.2461 27.6562 39.6736Z" fill="#3F3D56"/>
<path d="M26.7185 42.2959L26.9425 42.3638C27.0775 41.9251 27.2242 41.4837 27.3786 41.0519L27.158 40.9741C27.0024 41.4091 26.8545 41.8539 26.7185 42.2959Z" fill="#3F3D56"/>
<path d="M55.8459 20.3438C56.3049 20.328 56.7722 20.3217 57.2345 20.326L57.2366 20.0935C56.7711 20.0892 56.3001 20.0955 55.8379 20.1114L55.8459 20.3438Z" fill="#3F3D56"/>
<path d="M42.4285 23.5945L42.5362 23.8008C42.945 23.5905 43.3635 23.3866 43.7802 23.1949L43.6818 22.984C43.262 23.1771 42.8404 23.3825 42.4285 23.5945Z" fill="#3F3D56"/>
<path d="M61.386 20.6337C61.8427 20.6979 62.3036 20.773 62.756 20.8571L62.799 20.6286C62.3433 20.5439 61.8789 20.4681 61.4187 20.4034L61.386 20.6337Z" fill="#3F3D56"/>
<path d="M64.1147 21.1407C64.5631 21.2447 65.0156 21.3602 65.4593 21.4842L65.5227 21.2603C65.0756 21.1355 64.6198 21.0191 64.168 20.9143L64.1147 21.1407Z" fill="#3F3D56"/>
<path d="M66.7869 21.8868C67.224 22.03 67.6643 22.1851 68.0952 22.3478L68.1785 22.1305C67.7442 21.9666 67.3007 21.8103 66.8603 21.666L66.7869 21.8868Z" fill="#3F3D56"/>
<path d="M58.6226 20.3682C59.0836 20.3922 59.5495 20.4267 60.0073 20.4706L60.0299 20.2392C59.5687 20.1949 59.0993 20.1602 58.6349 20.136L58.6226 20.3682Z" fill="#3F3D56"/>
<path d="M53.0508 20.3288L53.0794 20.5596C53.5356 20.5039 54.0002 20.4574 54.4601 20.4215L54.4418 20.1897C53.9784 20.2259 53.5104 20.2727 53.0508 20.3288Z" fill="#3F3D56"/>
<path d="M47.5891 21.4921L47.6584 21.7141C48.0983 21.5789 48.5473 21.4516 48.993 21.3359L48.9337 21.111C48.4848 21.2275 48.0324 21.3557 47.5891 21.4921Z" fill="#3F3D56"/>
<path d="M44.9607 22.4296L45.0496 22.6448C45.4752 22.4713 45.9101 22.3053 46.3419 22.1511L46.2628 21.9324C45.8276 22.0876 45.3896 22.2549 44.9607 22.4296Z" fill="#3F3D56"/>
<path d="M50.2939 20.7898L50.343 21.0172C50.7928 20.9214 51.2514 20.8343 51.7061 20.7583L51.6673 20.5289C51.2091 20.6056 50.747 20.6933 50.2939 20.7898Z" fill="#3F3D56"/>
<path d="M71.5887 23.7853L70.2803 21.8651L69.8203 22.8055C69.7089 22.7561 69.5982 22.7057 69.4869 22.6579L69.3939 22.8713C69.5025 22.918 69.6099 22.9669 69.7179 23.0148L69.26 23.9507L71.5887 23.7853Z" fill="#3F3D56"/>
</g>
<defs>
<clipPath id="clip0">
<rect width="106" height="85" fill="white"/>
</clipPath>
</defs>
</svg>
