<svg width="99" height="78" viewBox="0 0 99 78" fill="none" xmlns="http://www.w3.org/2000/svg">
<path d="M89.2926 17.9274L19.126 0.926392L4.63883 60.5884L74.8054 77.5895L89.2926 17.9274Z" fill="#F1F1F1"/>
<path d="M98.8421 17.7081H0.552979V57.7684H98.8421V17.7081Z" fill="#3F3D56"/>
<path d="M14.6788 32.6216H7.35089C6.85081 29.7332 6.85081 26.7805 7.35089 23.8922H14.6788C13.8533 26.7435 13.8533 29.7702 14.6788 32.6216Z" fill="#FF6584"/>
<path d="M21.0234 36.3399H28.3514C28.8515 33.4516 28.8515 30.4989 28.3514 27.6106H21.0234C21.849 30.4619 21.849 33.4886 21.0234 36.3399Z" fill="#37B5E8"/>
<path d="M37.3165 23.5336C38.52 29.5924 38.8627 35.7906 38.3343 41.945C38.1953 43.5475 37.9969 45.1432 37.739 46.7322C37.6214 47.4545 37.4874 48.1735 37.3497 48.8923C37.2708 49.3042 37.1053 49.8169 37.3645 50.2046C37.8694 50.9597 39.5995 50.7626 40.3619 50.7872C41.948 50.8385 43.5364 50.8471 45.123 50.8748L49.8964 50.958L52.1947 50.9981C52.9777 51.0118 53.8354 51.133 54.6123 51.033C55.6348 50.9013 55.3857 49.8314 55.3702 49.0366C55.3396 47.4653 55.2977 45.8942 55.2444 44.3234C55.0335 38.0987 54.6452 31.8833 54.0795 25.6773C54.0073 24.8855 54.0524 23.9383 53.8389 23.1727C53.7526 22.8632 53.6667 22.7738 53.3303 22.7182C52.5597 22.5908 51.6413 22.7249 50.8617 22.7303L48.2545 22.7485L37.6523 22.8222C37.5833 22.8246 37.5179 22.8536 37.47 22.9032C37.422 22.9528 37.3952 23.0191 37.3952 23.0881C37.3952 23.157 37.422 23.2233 37.47 23.2729C37.5179 23.3225 37.5833 23.3516 37.6523 23.354L46.3427 23.2935L50.1664 23.2669L52.2521 23.2524C52.6808 23.2495 53.0814 23.1198 53.3503 23.591C53.5204 23.8892 53.4507 24.6348 53.4831 24.9817C54.0023 30.5456 54.379 36.1203 54.613 41.7059C54.6715 43.1017 54.7211 44.4978 54.7617 45.8943C54.7786 46.4761 54.794 47.058 54.8078 47.6399C54.8161 47.9891 54.8238 48.3382 54.831 48.6874C54.8384 49.0476 54.9876 49.7534 54.8567 50.0842C54.5776 50.7897 53.3335 50.4862 52.7251 50.4756L50.6036 50.4386L46.3606 50.3646L42.1176 50.2906C41.416 50.2784 40.7137 50.273 40.0126 50.2432C39.78 50.2333 39.5471 50.2221 39.3149 50.2056C38.6233 50.1564 37.8787 50.3197 37.7965 49.3648C37.7458 48.7754 38.0684 47.9627 38.1691 47.3732C38.2829 46.7075 38.3863 46.0401 38.4792 45.371C38.653 44.121 38.7916 42.8669 38.8948 41.6085C39.382 35.5164 39.0236 29.3862 37.8297 23.3922C37.7633 23.0568 37.2502 23.1988 37.3165 23.5335V23.5336Z" fill="#F1F1F1"/>
<path d="M72.2676 23.5336C73.4712 29.5924 73.8138 35.7906 73.2854 41.945C73.1465 43.5475 72.9481 45.1432 72.6902 46.7322C72.5726 47.4545 72.4386 48.1735 72.3009 48.8923C72.222 49.3042 72.0565 49.8169 72.3157 50.2046C72.8206 50.9597 74.5507 50.7626 75.3131 50.7872C76.8992 50.8385 78.4876 50.8471 80.0742 50.8748L84.8476 50.958L87.1459 50.9981C87.9289 51.0118 88.7866 51.133 89.5635 51.033C90.5859 50.9013 90.3369 49.8314 90.3214 49.0366C90.2908 47.4653 90.2489 45.8942 90.1956 44.3234C89.9847 38.0987 89.5964 31.8833 89.0307 25.6773C88.9585 24.8855 89.0035 23.9383 88.7901 23.1727C88.7038 22.8632 88.6179 22.7738 88.2815 22.7182C87.5109 22.5908 86.5925 22.7249 85.8128 22.7303L83.2057 22.7485L72.6035 22.8222C72.5345 22.8246 72.4691 22.8536 72.4212 22.9032C72.3732 22.9528 72.3464 23.0191 72.3464 23.0881C72.3464 23.157 72.3732 23.2233 72.4212 23.2729C72.4691 23.3225 72.5345 23.3516 72.6035 23.354L81.2938 23.2935L85.1176 23.2669L87.2033 23.2524C87.632 23.2495 88.0326 23.1198 88.3015 23.591C88.4716 23.8892 88.4019 24.6348 88.4342 24.9817C88.9535 30.5456 89.3302 36.1203 89.5642 41.7059C89.6227 43.1017 89.6722 44.4978 89.7128 45.8943C89.7298 46.4761 89.7451 47.058 89.7589 47.6399C89.7672 47.9891 89.775 48.3382 89.7822 48.6874C89.7896 49.0476 89.9388 49.7534 89.8079 50.0842C89.5288 50.7897 88.2846 50.4862 87.6762 50.4756L85.5548 50.4386L81.3118 50.3646L77.0688 50.2906C76.3672 50.2784 75.6649 50.273 74.9638 50.2432C74.7312 50.2333 74.4983 50.2221 74.266 50.2056C73.5744 50.1564 72.8299 50.3197 72.7477 49.3648C72.6969 48.7754 73.0195 47.9627 73.1203 47.3732C73.2341 46.7075 73.3374 46.0401 73.4304 45.371C73.6042 44.121 73.7427 42.8669 73.8459 41.6085C74.3332 35.5164 73.9748 29.3862 72.7809 23.3922C72.7145 23.0568 72.2014 23.1988 72.2676 23.5335V23.5336Z" fill="#F1F1F1"/>
<path d="M39.7634 24.9023H43.2838C43.3528 24.8999 43.4182 24.8708 43.4661 24.8212C43.5141 24.7716 43.5409 24.7053 43.5409 24.6364C43.5409 24.5674 43.5141 24.5011 43.4661 24.4515C43.4182 24.4019 43.3528 24.3729 43.2838 24.3705H39.7634C39.6944 24.3729 39.6291 24.4019 39.5811 24.4515C39.5332 24.5011 39.5063 24.5674 39.5063 24.6364C39.5063 24.7053 39.5332 24.7716 39.5811 24.8212C39.6291 24.8708 39.6944 24.8999 39.7634 24.9023Z" fill="#F1F1F1"/>
<path d="M39.7631 26.1019L43.0814 25.9766C43.4228 25.9637 43.4245 25.4319 43.0814 25.4448L39.7631 25.5701C39.4216 25.583 39.4199 26.1149 39.7631 26.1019Z" fill="#F1F1F1"/>
<path d="M39.7634 27.1131H42.9821C43.051 27.1107 43.1164 27.0816 43.1644 27.032C43.2123 26.9824 43.2391 26.9161 43.2391 26.8472C43.2391 26.7782 43.2123 26.7119 43.1644 26.6623C43.1164 26.6127 43.051 26.5837 42.9821 26.5813H39.7634C39.6944 26.5837 39.6291 26.6127 39.5811 26.6623C39.5332 26.7119 39.5063 26.7782 39.5063 26.8472C39.5063 26.9161 39.5332 26.9824 39.5811 27.032C39.6291 27.0816 39.6944 27.1107 39.7634 27.1131Z" fill="#F1F1F1"/>
<path d="M50.4299 24.6527C49.7075 24.2761 49.0518 24.8954 48.9501 25.603C48.9003 25.949 48.8896 26.4218 49.1102 26.7157C49.3355 27.0159 49.7688 27.1417 50.1287 27.1639C50.8157 27.2063 51.5467 26.8234 51.7158 26.1204C51.7954 25.8084 51.7566 25.4779 51.6067 25.1927C51.4569 24.9076 51.2066 24.688 50.9043 24.5763C50.58 24.4641 50.4406 24.9776 50.7628 25.0891C50.9121 25.1512 51.0373 25.26 51.1194 25.3992C51.2015 25.5384 51.2362 25.7005 51.2182 25.8611C51.197 26.0458 51.1161 26.2186 50.9877 26.3531C50.8593 26.4877 50.6905 26.5767 50.5068 26.6066C50.0675 26.7075 49.5527 26.5992 49.4678 26.1041C49.4042 25.7337 49.6056 24.8222 50.1613 25.1119C50.4646 25.27 50.7341 24.8113 50.4299 24.6527V24.6527Z" fill="#F1F1F1"/>
<path d="M74.7148 24.9023H78.2352C78.3042 24.8999 78.3696 24.8708 78.4175 24.8212C78.4655 24.7716 78.4923 24.7053 78.4923 24.6364C78.4923 24.5674 78.4655 24.5011 78.4175 24.4515C78.3696 24.4019 78.3042 24.3729 78.2352 24.3705H74.7148C74.6458 24.3729 74.5805 24.4019 74.5325 24.4515C74.4846 24.5011 74.4578 24.5674 74.4578 24.6364C74.4578 24.7053 74.4846 24.7716 74.5325 24.8212C74.5805 24.8708 74.6458 24.8999 74.7148 24.9023Z" fill="#F1F1F1"/>
<path d="M74.7145 26.1019L78.0328 25.9766C78.3742 25.9637 78.3759 25.4319 78.0328 25.4448L74.7145 25.5701C74.373 25.583 74.3714 26.1149 74.7145 26.1019Z" fill="#F1F1F1"/>
<path d="M74.7148 27.1131H77.9335C78.0025 27.1107 78.0678 27.0816 78.1158 27.032C78.1637 26.9824 78.1905 26.9161 78.1905 26.8472C78.1905 26.7782 78.1637 26.7119 78.1158 26.6623C78.0678 26.6127 78.0025 26.5837 77.9335 26.5813H74.7148C74.6458 26.5837 74.5805 26.6127 74.5325 26.6623C74.4846 26.7119 74.4578 26.7782 74.4578 26.8472C74.4578 26.9161 74.4846 26.9824 74.5325 27.032C74.5805 27.0816 74.6458 27.1107 74.7148 27.1131Z" fill="#F1F1F1"/>
<path d="M85.3809 24.6527C84.6585 24.2761 84.0027 24.8954 83.901 25.603C83.8513 25.949 83.8405 26.4218 84.0611 26.7157C84.2864 27.0159 84.7198 27.1417 85.0796 27.1639C85.7667 27.2063 86.4977 26.8234 86.6667 26.1204C86.7464 25.8084 86.7075 25.4779 86.5577 25.1927C86.4078 24.9076 86.1575 24.688 85.8552 24.5763C85.5309 24.4641 85.3915 24.9776 85.7137 25.0891C85.8631 25.1512 85.9882 25.26 86.0704 25.3992C86.1525 25.5384 86.1871 25.7005 86.1691 25.8611C86.148 26.0458 86.067 26.2186 85.9386 26.3531C85.8102 26.4877 85.6414 26.5767 85.4578 26.6066C85.0185 26.7075 84.5036 26.5992 84.4187 26.1041C84.3551 25.7337 84.5565 24.8222 85.1122 25.1119C85.4156 25.27 85.685 24.8113 85.3809 24.6527V24.6527Z" fill="#F1F1F1"/>
<path d="M40.4678 30.0295C44.34 30.0702 48.2083 29.9508 52.0725 29.6712L51.8159 29.3346C51.1834 30.936 51.2008 32.6237 51.2846 34.3178C51.3056 34.7422 51.4389 35.3145 51.3527 35.7349C51.2443 36.2636 50.7693 36.1372 50.2969 36.1524C49.2564 36.186 48.2157 36.2102 47.1747 36.2249C46.1916 36.2388 45.2084 36.2442 44.2252 36.2413C43.7625 36.2399 43.2998 36.2366 42.8371 36.2315C42.2938 36.2254 41.6763 36.383 41.536 35.7543C41.4461 35.3515 41.5366 34.8218 41.5369 34.4076L41.5379 32.8926L41.5399 29.8626C41.5375 29.7937 41.5084 29.7284 41.4588 29.6805C41.4091 29.6326 41.3428 29.6058 41.2738 29.6058C41.2048 29.6058 41.1384 29.6326 41.0888 29.6805C41.0391 29.7284 41.0101 29.7937 41.0077 29.8626L41.0052 33.566L41.0041 35.2493C41.0038 35.5836 40.9343 35.9876 41.0593 36.305C41.3467 37.0352 42.5887 36.7613 43.1841 36.7667C44.3986 36.7779 45.6131 36.7761 46.8277 36.7612C48.0422 36.7465 49.2564 36.719 50.4703 36.6786C50.9933 36.6612 51.717 36.7801 51.8756 36.1356C51.9868 35.6839 51.8572 35.0948 51.8334 34.6338C51.8064 34.1076 51.7773 33.5814 51.7702 33.0545C51.7537 31.8242 51.8744 30.6273 52.3292 29.476C52.3398 29.4365 52.3412 29.3951 52.3333 29.355C52.3255 29.3149 52.3085 29.2772 52.2837 29.2446C52.2589 29.2121 52.227 29.1857 52.1904 29.1675C52.1537 29.1492 52.1134 29.1396 52.0725 29.1394C48.2102 29.4189 44.3419 29.5384 40.4678 29.4977C40.3988 29.5001 40.3334 29.5292 40.2855 29.5788C40.2375 29.6284 40.2107 29.6947 40.2107 29.7636C40.2107 29.8326 40.2375 29.8989 40.2855 29.9485C40.3334 29.9981 40.3988 30.0271 40.4678 30.0295L40.4678 30.0295Z" fill="#F1F1F1"/>
<path d="M41.5714 30.3184C43.2289 30.9045 44.8449 31.6017 46.4083 32.4053C47.8111 33.1296 49.6474 33.9208 50.6128 35.2152C50.8151 35.4865 51.2773 35.2217 51.0724 34.9468C50.0866 33.625 48.3895 32.8472 46.964 32.0959C45.2706 31.208 43.5158 30.4426 41.7129 29.8056C41.3896 29.6906 41.2504 30.2042 41.5714 30.3184Z" fill="#F1F1F1"/>
<path d="M51.9818 29.3713C50.2229 30.1228 48.7328 31.5705 47.161 32.6433C45.4596 33.8045 43.7076 34.8851 41.905 35.8852C41.6059 36.0521 41.874 36.5116 42.1737 36.3444C43.9724 35.3409 45.7244 34.2602 47.4296 33.1025C49.0011 32.0299 50.492 30.5817 52.2504 29.8305C52.5644 29.6963 52.2936 29.2381 51.9818 29.3713V29.3713Z" fill="#F1F1F1"/>
<path d="M75.4187 30.0295C79.2909 30.0702 83.1592 29.9508 87.0235 29.6712L86.7668 29.3346C86.1343 30.936 86.1517 32.6237 86.2356 34.3178C86.2566 34.7422 86.3898 35.3145 86.3036 35.7349C86.1952 36.2636 85.7203 36.1372 85.2479 36.1524C84.2074 36.186 83.1666 36.2102 82.1256 36.2249C81.1425 36.2388 80.1593 36.2442 79.1761 36.2413C78.7134 36.2399 78.2507 36.2366 77.7881 36.2315C77.2448 36.2254 76.6272 36.383 76.4869 35.7543C76.397 35.3515 76.4875 34.8218 76.4878 34.4076L76.4888 32.8926L76.4908 29.8626C76.4885 29.7937 76.4594 29.7284 76.4097 29.6805C76.3601 29.6326 76.2937 29.6058 76.2247 29.6058C76.1557 29.6058 76.0894 29.6326 76.0397 29.6805C75.9901 29.7284 75.961 29.7937 75.9586 29.8626L75.9561 33.566L75.955 35.2493C75.9548 35.5836 75.8852 35.9876 76.0102 36.305C76.2976 37.0352 77.5397 36.7613 78.1351 36.7667C79.3496 36.7779 80.5641 36.7761 81.7786 36.7612C82.9931 36.7465 84.2073 36.719 85.4213 36.6786C85.9442 36.6612 86.6679 36.7801 86.8265 36.1356C86.9377 35.6839 86.8081 35.0948 86.7844 34.6338C86.7573 34.1076 86.7282 33.5814 86.7211 33.0545C86.7046 31.8242 86.8253 30.6273 87.2801 29.476C87.2907 29.4365 87.2921 29.3951 87.2843 29.355C87.2764 29.3149 87.2594 29.2772 87.2346 29.2446C87.2098 29.2121 87.1779 29.1857 87.1413 29.1675C87.1047 29.1492 87.0644 29.1396 87.0235 29.1394C83.1611 29.4189 79.2929 29.5384 75.4187 29.4977C75.3497 29.5001 75.2843 29.5292 75.2364 29.5788C75.1884 29.6284 75.1616 29.6947 75.1616 29.7636C75.1616 29.8326 75.1884 29.8989 75.2364 29.9485C75.2843 29.9981 75.3497 30.0271 75.4187 30.0295L75.4187 30.0295Z" fill="#F1F1F1"/>
<path d="M76.5223 30.3184C78.1798 30.9045 79.7958 31.6017 81.3593 32.4053C82.762 33.1296 84.5983 33.9208 85.5637 35.2152C85.766 35.4865 86.2282 35.2217 86.0233 34.9468C85.0375 33.625 83.3404 32.8472 81.9149 32.0959C80.2216 31.208 78.4667 30.4426 76.6638 29.8056C76.3405 29.6906 76.2014 30.2042 76.5223 30.3184Z" fill="#F1F1F1"/>
<path d="M86.9332 29.3713C85.1743 30.1228 83.6842 31.5705 82.1124 32.6433C80.411 33.8045 78.6591 34.8851 76.8564 35.8852C76.5573 36.0521 76.8254 36.5116 77.1251 36.3444C78.9239 35.3409 80.6758 34.2602 82.381 33.1025C83.9525 32.0299 85.4434 30.5817 87.2018 29.8305C87.5158 29.6963 87.2449 29.2381 86.9332 29.3713V29.3713Z" fill="#F1F1F1"/>
<path d="M75.4187 40.6648C79.2909 40.7055 83.1592 40.586 87.0235 40.3064L86.7668 39.9699C86.1343 41.5712 86.1517 43.259 86.2356 44.953C86.2566 45.3774 86.3898 45.9498 86.3036 46.3701C86.1952 46.8988 85.7203 46.7724 85.2479 46.7877C84.2074 46.8213 83.1666 46.8454 82.1256 46.8601C81.1425 46.874 80.1593 46.8795 79.1761 46.8766C78.7134 46.8751 78.2507 46.8718 77.7881 46.8667C77.2448 46.8607 76.6272 47.0183 76.4869 46.3895C76.397 45.9868 76.4875 45.4571 76.4878 45.0429L76.4888 43.5279L76.4908 40.4979C76.4885 40.429 76.4594 40.3637 76.4097 40.3158C76.3601 40.2678 76.2937 40.2411 76.2247 40.2411C76.1557 40.2411 76.0894 40.2678 76.0397 40.3158C75.9901 40.3637 75.961 40.429 75.9586 40.4979L75.9561 44.2012L75.955 45.8845C75.9548 46.2189 75.8852 46.6229 76.0102 46.9403C76.2976 47.6705 77.5397 47.3965 78.1351 47.402C79.3496 47.4132 80.5641 47.4113 81.7786 47.3965C82.9931 47.3818 84.2073 47.3542 85.4213 47.3138C85.9442 47.2965 86.6679 47.4153 86.8265 46.7709C86.9377 46.3191 86.8081 45.73 86.7844 45.269C86.7573 44.7429 86.7282 44.2167 86.7211 43.6898C86.7046 42.4595 86.8253 41.2626 87.2801 40.1112C87.2907 40.0718 87.2921 40.0304 87.2843 39.9903C87.2764 39.9502 87.2594 39.9124 87.2346 39.8799C87.2098 39.8474 87.1779 39.821 87.1413 39.8027C87.1047 39.7845 87.0644 39.7749 87.0235 39.7747C83.1611 40.0542 79.2929 40.1736 75.4187 40.133C75.3497 40.1354 75.2843 40.1645 75.2364 40.2141C75.1884 40.2637 75.1616 40.3299 75.1616 40.3989C75.1616 40.4679 75.1884 40.5341 75.2364 40.5837C75.2843 40.6333 75.3497 40.6624 75.4187 40.6648H75.4187Z" fill="#F1F1F1"/>
<path d="M76.5223 40.9538C78.1798 41.5398 79.7958 42.2371 81.3593 43.0407C82.762 43.765 84.5983 44.5561 85.5637 45.8506C85.766 46.1219 86.2282 45.8571 86.0233 45.5822C85.0375 44.2603 83.3404 43.4826 81.9149 42.7312C80.2216 41.8434 78.4667 41.078 76.6638 40.441C76.3405 40.326 76.2014 40.8396 76.5223 40.9538Z" fill="#F1F1F1"/>
<path d="M86.9332 40.0068C85.1743 40.7582 83.6842 42.206 82.1124 43.2788C80.411 44.44 78.6591 45.5206 76.8564 46.5207C76.5573 46.6876 76.8254 47.1471 77.1251 46.9799C78.9239 45.9763 80.6758 44.8957 82.381 43.738C83.9525 42.6654 85.4434 41.2172 87.2018 40.466C87.5158 40.3318 87.2449 39.8736 86.9332 40.0068Z" fill="#F1F1F1"/>
<path d="M41.4739 40.2639C45.0617 40.3185 48.6495 40.3042 52.2371 40.2211C52.579 40.2132 52.5803 39.6813 52.2371 39.6893C48.6497 39.7724 45.062 39.7867 41.4739 39.7322C41.4049 39.7346 41.3395 39.7636 41.2916 39.8132C41.2436 39.8628 41.2168 39.9291 41.2168 39.9981C41.2168 40.067 41.2436 40.1333 41.2916 40.1829C41.3395 40.2325 41.4049 40.2616 41.4739 40.2639Z" fill="#F1F1F1"/>
<path d="M41.7756 42.6751C45.464 42.7339 49.1522 42.718 52.8404 42.6276C53.1823 42.6192 53.1836 42.0874 52.8404 42.0958C49.1526 42.1863 45.4644 42.2021 41.7756 42.1433C41.4329 42.1378 41.4328 42.6696 41.7756 42.6751Z" fill="#F1F1F1"/>
<path d="M41.3718 45.2781L51.8332 44.7927C52.1742 44.7769 52.1762 44.2451 51.8332 44.261L41.3718 44.7463C41.0307 44.7622 41.0288 45.294 41.3718 45.2781Z" fill="#F1F1F1"/>
<path d="M57.6672 37.7653H67.6249C67.6939 37.7629 67.7593 37.7338 67.8072 37.6842C67.8552 37.6346 67.882 37.5684 67.882 37.4994C67.882 37.4304 67.8552 37.3642 67.8072 37.3146C67.7593 37.265 67.6939 37.2359 67.6249 37.2335H57.6672C57.5982 37.2359 57.5329 37.265 57.4849 37.3146C57.437 37.3642 57.4102 37.4304 57.4102 37.4994C57.4102 37.5684 57.437 37.6346 57.4849 37.6842C57.5329 37.7338 57.5982 37.7629 57.6672 37.7653Z" fill="#F1F1F1"/>
<path d="M67.1887 34.7251L68.7445 36.1439C68.9224 36.3061 69.4118 36.6411 69.5224 36.8533C69.7509 37.2919 69.5053 37.1918 69.1137 37.3438C68.1512 37.7265 67.2644 38.2766 66.4943 38.9688C66.2368 39.1955 66.6145 39.5704 66.8707 39.3448C67.573 38.7142 68.3799 38.2106 69.2552 37.8566C69.569 37.7325 70.1645 37.6599 70.3136 37.2864C70.4961 36.8292 69.9148 36.4919 69.6394 36.2408L67.5651 34.3491C67.3125 34.1187 66.9351 34.4938 67.1887 34.7251V34.7251Z" fill="#F1F1F1"/>
<path d="M43.0232 55.4838H50.3512C50.8512 52.5954 50.8512 49.6427 50.3512 46.7544H43.0232C43.8487 49.6057 43.8487 52.6324 43.0232 55.4838Z" fill="#37B5E8"/>
<path d="M12.5073 48.9253H19.8353C20.3354 46.0369 20.3354 43.0843 19.8353 40.1959H12.5073C13.3329 43.0473 13.3329 46.0739 12.5073 48.9253Z" fill="#37B5E8"/>
<path d="M58.813 29.7814H66.141C66.641 26.893 66.641 23.9403 66.141 21.052H58.813C59.6385 23.9033 59.6385 26.93 58.813 29.7814Z" fill="#37B5E8"/>
</svg>
