<svg width="102" height="82" viewBox="0 0 102 82" fill="none" xmlns="http://www.w3.org/2000/svg">
<path d="M35.7718 57.5029L20.2883 74.6467L20.3201 76.3883C19.1878 76.3942 18.0662 76.3816 16.9551 76.3502L17.726 53.9615L17.7047 53.7891L17.733 53.7558L17.8057 51.6397L0.815918 35.0903L17.7862 50.0562L17.8465 50.5032L18.4277 33.5877L3.7521 16.4308L18.4702 30.6169L18.3692 7.73948L18.3373 0.25H18.4861L18.7502 7.73948L19.2959 23.1904L32.6691 11.9704L19.3385 25.5692L19.6308 40.7003L31.939 25.933L19.6769 42.9246L19.8382 51.3378L37.737 30.7678L19.8931 54.2729L20.2564 72.9812L35.7718 57.5029Z" fill="#E6E6E6"/>
<path d="M100.342 52.3915L97.2534 58.5522L89.5151 73.9853H87.7389L87.7769 72.3149L78.4456 58.5522L77.0659 56.5176L78.5897 58.5522L87.7646 70.8034L87.8026 71.2301L88.0908 58.5522L88.169 55.0832L78.917 38.706L88.1958 52.2474L88.0986 18.795V18.6838L88.102 18.7939L88.7164 45.1584L97.1473 34.4483L88.7432 47.4291L88.8851 58.5522L88.9275 61.8726L90.7551 58.5522L96.687 47.7763L91.5505 58.5522L88.9566 63.9958L89.0582 72.0267L96.8021 58.5522L100.342 52.3915Z" fill="#E6E6E6"/>
<path d="M98.7032 73.9028C98.7032 75.9258 80.017 82 56.9663 82C33.9157 82 15.2295 75.9258 15.2295 73.9028C15.2295 71.8798 33.9157 74.674 56.9663 74.674C80.017 74.674 98.7032 71.8798 98.7032 73.9028Z" fill="#3F3D56"/>
<path opacity="0.2" d="M98.7032 73.9028C98.7032 75.9258 80.017 82 56.9663 82C33.9157 82 15.2295 75.9258 15.2295 73.9028C15.2295 71.8798 33.9157 74.674 56.9663 74.674C80.017 74.674 98.7032 71.8798 98.7032 73.9028Z" fill="black"/>
<path d="M56.9663 77.5658C80.017 77.5658 98.7032 75.9258 98.7032 73.9028C98.7032 71.8797 80.017 70.2397 56.9663 70.2397C33.9157 70.2397 15.2295 71.8797 15.2295 73.9028C15.2295 75.9258 33.9157 77.5658 56.9663 77.5658Z" fill="#3F3D56"/>
<path opacity="0.2" d="M56.6456 75.8785C66.1318 75.8785 73.8219 75.1581 73.8219 74.2695C73.8219 73.3808 66.1318 72.6604 56.6456 72.6604C47.1593 72.6604 39.4692 73.3808 39.4692 74.2695C39.4692 75.1581 47.1593 75.8785 56.6456 75.8785Z" fill="black"/>
<path d="M90.0957 37.3029H71.3334V37.422H26.4663V43.9387C26.4663 60.6899 40.0138 74.2694 56.7255 74.2694H56.7255C62.0144 74.2715 67.2114 72.8834 71.798 70.2435C76.3845 67.6037 80.2002 63.8044 82.8644 59.2247H90.0957C92.9959 59.2247 95.7773 58.0699 97.828 56.0143C99.8787 53.9588 101.031 51.1708 101.031 48.2638C101.031 45.3568 99.8787 42.5688 97.828 40.5132C95.7773 38.4577 92.9959 37.3029 90.0957 37.3029ZM90.0957 55.8457H84.5628C86.1658 52.0819 86.9898 48.0311 86.9847 43.9387V40.6819H90.0957C92.1018 40.6819 94.0258 41.4807 95.4443 42.9026C96.8628 44.3244 97.6597 46.2529 97.6597 48.2638C97.6597 50.2746 96.8628 52.2031 95.4443 53.625C94.0258 55.0469 92.1018 55.8457 90.0957 55.8457V55.8457Z" fill="#3F3D56"/>
<path d="M29.2756 40.2379V43.9388C29.2756 59.1106 41.5897 71.4537 56.7256 71.4537C71.8617 71.4537 84.1756 59.1106 84.1756 43.9388V40.2379H29.2756Z" fill="#37B5E8"/>
<path d="M49.5482 66.4121L43.2639 59.9202C42.6297 59.265 42.2811 58.3842 42.2948 57.4714C42.3085 56.5586 42.6835 55.6887 43.3371 55.053L52.8418 45.8088C53.0683 45.5884 53.3357 45.4147 53.6288 45.2973L55.6933 44.4704C56.1386 44.292 56.6268 44.2503 57.0958 44.3506C57.5647 44.4509 57.9934 44.6886 58.3274 45.0336L64.8899 51.8129C65.2136 52.1473 65.4343 52.5682 65.5257 53.025C65.6171 53.4819 65.5752 53.9555 65.4051 54.3891L64.7106 56.1594C64.5845 56.4809 64.3912 56.7718 64.1438 57.0124L54.4038 66.4855C53.7502 67.1212 52.8714 67.4706 51.9608 67.4568C51.0502 67.443 50.1824 67.0673 49.5482 66.4121Z" fill="#E6E6E6"/>
<path d="M62.289 50.7036L59.2361 47.5498L58.7641 48.0088L61.817 51.1626L62.289 50.7036Z" fill="#3F3D56"/>
<path d="M60.8245 49.5224C61.3803 48.201 63.0362 47.9163 64.2677 47.6543C65.577 47.3759 67.0683 46.8913 67.6122 45.5264C67.7295 45.247 67.7749 44.9426 67.7442 44.641C67.7134 44.3394 67.6076 44.0504 67.4363 43.8006C67.1163 43.3404 66.5774 42.966 65.9948 43.0183C64.7755 43.1277 64.5583 44.5712 65.0241 45.4821C65.6528 46.7117 67.2675 46.8188 68.4758 46.8491C69.6431 46.8784 70.8957 46.8336 71.9624 46.3049C72.4648 46.0598 72.8848 45.6727 73.1704 45.1913C73.4561 44.7099 73.595 44.1552 73.5699 43.5957C73.5325 42.4151 73.0127 41.3136 72.7024 40.1917C72.4042 39.1133 72.3104 37.9177 73.1044 37.0209C73.8736 36.1519 75.0863 35.8087 76.1919 35.6334C76.4758 35.5884 76.7615 35.5578 77.0479 35.5347C77.3548 35.5099 77.3574 35.027 77.0479 35.052C74.998 35.2172 72.3115 35.9252 72.0171 38.3517C71.8825 39.4608 72.3006 40.5551 72.6379 41.5906C72.9515 42.553 73.3183 43.6616 72.9171 44.6543C72.496 45.6965 71.4056 46.1205 70.3726 46.2795C69.8157 46.3566 69.2534 46.3871 68.6915 46.3708C68.0404 46.3878 67.3898 46.3222 66.7551 46.1757C66.2113 46.0262 65.6871 45.74 65.4293 45.2171C65.2399 44.8328 65.1793 44.3143 65.3917 43.9262C65.4473 43.827 65.5225 43.7402 65.6127 43.6712C65.7029 43.6021 65.8062 43.5523 65.9163 43.5247C66.0265 43.4971 66.141 43.4924 66.253 43.5108C66.365 43.5292 66.4721 43.5703 66.5677 43.6317C66.8004 43.7619 66.9904 43.9569 67.1147 44.1931C67.239 44.4294 67.2923 44.6967 67.2682 44.9627C67.0921 46.3301 65.5324 46.8793 64.3907 47.1343C63.1331 47.4153 61.7141 47.6212 60.8158 48.6528C60.625 48.8736 60.4711 49.124 60.3601 49.3941C60.3436 49.4558 60.3519 49.5216 60.3834 49.5772C60.4149 49.6327 60.4669 49.6736 60.5283 49.691C60.5898 49.7065 60.6549 49.6976 60.7101 49.6662C60.7652 49.6348 60.8062 49.5833 60.8245 49.5224V49.5224Z" fill="#3F3D56"/>
<path d="M41.3954 47.5591C42.3706 47.5591 43.1612 46.7666 43.1612 45.7891C43.1612 44.8116 42.3706 44.0192 41.3954 44.0192C40.4202 44.0192 39.6296 44.8116 39.6296 45.7891C39.6296 46.7666 40.4202 47.5591 41.3954 47.5591Z" fill="#E6E6E6"/>
<path d="M73.8217 54.1563C74.7969 54.1563 75.5875 53.3638 75.5875 52.3863C75.5875 51.4088 74.7969 50.6163 73.8217 50.6163C72.8465 50.6163 72.0559 51.4088 72.0559 52.3863C72.0559 53.3638 72.8465 54.1563 73.8217 54.1563Z" fill="#E6E6E6"/>
<path d="M64.9927 63.006C65.702 63.006 66.2769 62.4297 66.2769 61.7188C66.2769 61.0078 65.702 60.4315 64.9927 60.4315C64.2835 60.4315 63.7085 61.0078 63.7085 61.7188C63.7085 62.4297 64.2835 63.006 64.9927 63.006Z" fill="#E6E6E6"/>
<path d="M19.2136 73.3418C24.4577 74.5144 30.245 73.648 30.245 73.648C30.245 73.648 27.5301 70.8804 22.2861 69.7078C17.042 68.5352 11.2546 69.4015 11.2546 69.4015C11.2546 69.4015 13.9696 72.1691 19.2136 73.3418Z" fill="#E6E6E6"/>
<path d="M19.7311 75.3191C25.4404 75.4843 30.2851 73.6399 30.2851 73.6399C27.0838 72.2509 23.6502 71.4784 20.1638 71.3628C14.4545 71.1976 9.60986 73.042 9.60986 73.042C12.8111 74.431 16.2447 75.2035 19.7311 75.3191V75.3191Z" fill="#37B5E8"/>
<path d="M20.1366 71.3694C24.2153 73.4306 30.222 73.6883 30.222 73.6883C30.222 73.6883 29.6158 70.6042 25.5371 68.543C21.4584 66.4818 15.4517 66.2241 15.4517 66.2241C15.4517 66.2241 16.0578 69.3082 20.1366 71.3694Z" fill="#37B5E8"/>
<path d="M6.5532 54.643C5.51735 55.6828 4.36462 55.7161 3.38884 55.3093C3.36617 55.2999 3.34381 55.2903 3.32176 55.2805C3.2773 55.2609 3.23415 55.2407 3.19232 55.2198C2.36018 54.8039 2.05609 54.1371 3.01943 53.1701C4.01636 52.1693 6.91133 51.5887 7.12711 51.5465H7.12741L7.13978 51.5441C7.13978 51.5441 7.58896 53.6033 6.5532 54.643Z" fill="#E6E6E6"/>
<path d="M82.3425 28.996C81.8246 30.0358 81.2482 30.0691 80.7603 29.6624C80.749 29.6529 80.7378 29.6433 80.7268 29.6336C80.7046 29.614 80.683 29.5937 80.6621 29.5728C80.246 29.157 80.094 28.4901 80.5756 27.5231C81.0741 26.5223 82.5216 25.9417 82.6295 25.8995H82.6296L82.6358 25.8971C82.6358 25.8971 82.8604 27.9563 82.3425 28.996Z" fill="#E6E6E6"/>
<path d="M38.5329 19.6834C39.689 20.4769 39.4748 21.1134 38.7127 21.5569C38.695 21.5672 38.6771 21.5774 38.6592 21.5873C38.623 21.6072 38.5863 21.6263 38.5489 21.6446C37.807 22.0077 36.8482 22.0275 35.7731 21.2896C34.6604 20.526 34.5347 18.8183 34.5267 18.6913L34.5268 18.6911L34.5264 18.6838C34.5264 18.6838 37.3769 18.8901 38.5329 19.6834Z" fill="#E6E6E6"/>
<path d="M81.2677 40.0571L78.5019 41.4555C78.2375 41.6011 77.9263 41.6357 77.6365 41.5516C77.3467 41.4675 77.102 41.2717 76.9561 41.007L75.0528 37.2251C75.0074 37.1346 74.9813 37.0355 74.9763 36.9342L74.94 36.216C74.9356 36.0551 74.9776 35.8965 75.0611 35.759C75.1445 35.6215 75.2658 35.5112 75.4103 35.4412L78.2985 33.9808C78.4365 33.9083 78.5919 33.8759 78.7473 33.8872C78.9027 33.8985 79.0518 33.9531 79.1778 34.0449L79.6664 34.4169C79.7546 34.4838 79.8264 34.57 79.8763 34.6688L81.8266 38.5444C81.9522 38.8193 81.9639 39.133 81.8591 39.4165C81.7543 39.7001 81.5417 39.9305 81.2677 40.0571V40.0571Z" fill="#E6E6E6"/>
<path d="M77.6576 34.6976L76.314 35.377L76.4085 35.5647L77.7521 34.8854L77.6576 34.6976Z" fill="#3F3D56"/>
<path d="M79.0645 35.381L76.084 36.871L76.5138 37.7349L79.4944 36.2449L79.0645 35.381Z" fill="#37B5E8"/>
<path d="M79.7066 36.5073L76.7261 37.9973L77.1559 38.8612L80.1365 37.3713L79.7066 36.5073Z" fill="#37B5E8"/>
<path d="M80.3487 37.7946L77.3682 39.2845L77.798 40.1485L80.7785 38.6585L80.3487 37.7946Z" fill="#37B5E8"/>
</svg>
