<svg width="115" height="119" viewBox="0 0 115 119" fill="none" xmlns="http://www.w3.org/2000/svg">
<path d="M14.3615 107.501C16.058 113.772 21.8686 117.655 21.8686 117.655C21.8686 117.655 24.9288 111.372 23.2324 105.101C21.536 98.8298 15.7253 94.946 15.7253 94.946C15.7253 94.946 12.6651 101.23 14.3615 107.501Z" fill="#3F3D56"/>
<path d="M22.2985 117.865L22.0669 117.852C21.9963 117.849 14.9586 117.415 10.3029 112.883C5.64748 108.351 5.02462 101.327 5.01888 101.257L5 101.026L5.23164 101.038C5.30219 101.042 12.3399 101.476 16.9955 106.008C21.651 110.54 22.2739 117.563 22.2796 117.634L22.2985 117.865ZM5.44826 101.462C5.60094 102.716 6.52007 108.636 10.5854 112.593C14.6507 116.55 20.5927 117.31 21.8503 117.429C21.6976 116.175 20.7784 110.255 16.7131 106.298C12.6448 102.338 6.70526 101.58 5.44826 101.462Z" fill="#3F3D56"/>
<path d="M101.122 66.1626H40.2325V117.886H101.122V66.1626Z" fill="#D0CDE1"/>
<path d="M91.6311 111.014H30.0815V58.6302H91.6311V111.014ZM30.7424 110.353H90.9703V59.2911H30.7424V110.353Z" fill="#3F3D56"/>
<path d="M69.4378 45.0012L68.1898 46.476C68.0772 46.6003 67.9398 46.6995 67.7865 46.7675C67.6332 46.8354 67.4674 46.8705 67.2997 46.8705C67.132 46.8705 66.9662 46.8354 66.8129 46.7675C66.6596 46.6995 66.5222 46.6003 66.4095 46.476L65.1615 45.0012V34.7542H69.4378V45.0012Z" fill="#37B5E8"/>
<path d="M74.1041 26.439H71.807C72.4317 25.5303 72.7654 24.4532 72.7639 23.3505C72.7639 20.3327 70.3175 15.0354 67.2997 15.0354C64.2819 15.0354 61.8354 20.3327 61.8354 23.3505C61.8339 24.4532 62.1676 25.5303 62.7924 26.439H60.4952C60.032 26.4404 59.5881 26.625 59.2605 26.9526C58.9329 27.2801 58.7483 27.724 58.7469 28.1873V29.4422C58.7483 29.9055 58.9329 30.3494 59.2605 30.677C59.5881 31.0045 60.032 31.1892 60.4952 31.1905H74.1041C74.5673 31.1892 75.0112 31.0045 75.3388 30.677C75.6664 30.3494 75.851 29.9055 75.8524 29.4422V28.1873C75.851 27.724 75.6664 27.2801 75.3388 26.9526C75.0112 26.625 74.5673 26.4404 74.1041 26.439Z" fill="#3F3D56"/>
<path d="M67.2998 48.3083C67.0133 48.3095 66.7306 48.2434 66.4744 48.1153C66.2182 47.9872 65.9957 47.8007 65.8248 47.5708L63.9177 45.0281V27.452H70.6818V45.0281L68.7747 47.5708C68.6038 47.8007 68.3813 47.9872 68.1251 48.1153C67.8689 48.2434 67.5862 48.3095 67.2998 48.3083ZM64.2674 44.9115L66.1045 47.361C66.2436 47.5466 66.4241 47.6972 66.6316 47.8009C66.839 47.9047 67.0678 47.9587 67.2998 47.9587C67.5317 47.9587 67.7605 47.9047 67.968 47.8009C68.1754 47.6972 68.3559 47.5466 68.4951 47.361L70.3321 44.9115V27.8017H64.2674V44.9115Z" fill="#3F3D56"/>
<path d="M69.3977 54.0224C69.3977 54.5788 69.1767 55.1124 68.7832 55.5058C68.3898 55.8993 67.8561 56.1203 67.2997 56.1203C66.7433 56.1203 66.2097 55.8993 65.8163 55.5058C65.4228 55.1124 65.2018 54.5788 65.2018 54.0224C65.2018 52.8637 67.2997 50.5258 67.2997 50.5258C67.2997 50.5258 69.3977 52.8637 69.3977 54.0224Z" fill="#37B5E8"/>
<path opacity="0.2" d="M91.6011 66.2605C91.5767 72.6896 89.0056 78.8471 84.4509 83.3846C79.8962 87.9221 73.7289 90.4698 67.2998 90.4698C60.8706 90.4698 54.7033 87.9221 50.1486 83.3846C45.5939 78.8471 43.0228 72.6896 42.9984 66.2605H91.6011Z" fill="#37B5E8"/>
<path d="M87.4034 66.1626C87.3836 71.4814 85.2567 76.5756 81.4887 80.3296C77.7207 84.0836 72.6186 86.1914 67.2997 86.1914C61.9808 86.1914 56.8787 84.0836 53.1107 80.3296C49.3427 76.5756 47.2159 71.4814 47.196 66.1626H87.4034Z" fill="#37B5E8"/>
<path d="M51.565 11.1891C54.6548 11.1891 57.1596 8.68434 57.1596 5.59455C57.1596 2.50477 54.6548 0 51.565 0C48.4752 0 45.9705 2.50477 45.9705 5.59455C45.9705 8.68434 48.4752 11.1891 51.565 11.1891Z" fill="#3F3D56"/>
<path d="M67.2998 11.1891C70.3895 11.1891 72.8943 8.68434 72.8943 5.59455C72.8943 2.50477 70.3895 0 67.2998 0C64.21 0 61.7052 2.50477 61.7052 5.59455C61.7052 8.68434 64.21 11.1891 67.2998 11.1891Z" fill="#37B5E8"/>
<path d="M83.0344 11.1891C86.1242 11.1891 88.6289 8.68434 88.6289 5.59455C88.6289 2.50477 86.1242 0 83.0344 0C79.9446 0 77.4398 2.50477 77.4398 5.59455C77.4398 8.68434 79.9446 11.1891 83.0344 11.1891Z" fill="#D0CDE1"/>
<path d="M114.145 118H0V118.405H114.145V118Z" fill="#3F3D56"/>
</svg>
