<svg width="169" height="133" viewBox="0 0 169 133" fill="none" xmlns="http://www.w3.org/2000/svg">
<g clip-path="url(#clip0)">
<path d="M77.2864 94.3295L77.2872 94.0461C77.8508 94.0478 78.4229 94.038 78.9878 94.0173L78.9982 94.3005C78.4296 94.3215 77.8537 94.3312 77.2864 94.3295ZM75.5752 94.2911C75.0087 94.2671 74.4339 94.2313 73.8669 94.1848L73.8901 93.9022C74.4535 93.9486 75.0244 93.9841 75.5872 94.008L75.5752 94.2911ZM80.7072 94.2034L80.6856 93.9207C81.2482 93.8776 81.8176 93.8223 82.3779 93.7564L82.411 94.0381C81.8469 94.1043 81.2737 94.1599 80.7072 94.2034ZM72.164 94.0102C71.5991 93.9407 71.029 93.859 70.4695 93.7673L70.5154 93.4876C71.0711 93.5787 71.6375 93.6599 72.1986 93.7288L72.164 94.0102ZM84.1067 93.8043L84.0623 93.5243C84.6185 93.4363 85.1816 93.3353 85.736 93.2245L85.7916 93.5023C85.2335 93.6141 84.6665 93.7156 84.1066 93.8043H84.1067ZM68.7862 93.4562C68.2288 93.3415 67.6672 93.2138 67.1168 93.0772L67.1851 92.8021C67.7318 92.938 68.2897 93.0646 68.8433 93.1785L68.7862 93.4562ZM87.4631 93.1323L87.3962 92.8569C87.9455 92.7237 88.4986 92.5775 89.0402 92.4225L89.1182 92.6951C88.5728 92.8511 88.016 92.9982 87.4631 93.1323H87.4631ZM65.4641 92.6309C64.9181 92.4714 64.3686 92.2988 63.8309 92.1179L63.9213 91.8492C64.4554 92.0289 65.0012 92.2004 65.5436 92.3588L65.4641 92.6309ZM90.754 92.1907L90.6651 91.9217C91.2007 91.7446 91.7401 91.5542 92.2685 91.3554L92.3683 91.6206C91.8364 91.8207 91.2933 92.0126 90.754 92.1907H90.754ZM62.2154 91.5373C61.6843 91.3341 61.1494 91.117 60.6255 90.8918L60.7374 90.6314C61.2578 90.8551 61.7892 91.0708 62.3167 91.2725L62.2154 91.5373ZM93.9537 90.9875L93.8433 90.7264C94.3621 90.5068 94.8831 90.2739 95.3917 90.034L95.5127 90.2905C95.0006 90.5318 94.476 90.7663 93.9537 90.9875H93.9537ZM59.0635 90.1825C58.5494 89.9364 58.0341 89.6767 57.5319 89.4106L57.6646 89.1603C58.1635 89.4244 58.6752 89.6824 59.1858 89.9268L59.0635 90.1825ZM97.0429 89.5308L96.9117 89.2796C97.4118 89.0186 97.9127 88.7441 98.4005 88.4641L98.5417 88.7098C98.0505 88.9917 97.5463 89.268 97.0429 89.5308ZM56.0333 88.5777C55.5403 88.2906 55.048 87.9903 54.5699 87.6852L54.7224 87.4463C55.1972 87.7493 55.6863 88.0476 56.176 88.3329L56.0333 88.5777ZM100.007 87.8288L99.8558 87.5889C100.332 87.2894 100.809 86.9756 101.275 86.6559L101.435 86.8895C100.967 87.2114 100.486 87.5274 100.007 87.8288ZM53.144 86.7349C52.6764 86.4095 52.21 86.0708 51.7577 85.7282L51.9288 85.5024C52.3781 85.8426 52.8414 86.1791 53.3059 86.5024L53.144 86.7349ZM102.826 85.8934L102.656 85.6664C103.107 85.33 103.558 84.9787 103.997 84.6222L104.175 84.8423C103.733 85.2011 103.279 85.5547 102.826 85.8934V85.8934ZM50.4132 84.6667C49.9743 84.3058 49.5368 83.9309 49.1127 83.5525L49.3013 83.3411C49.7227 83.7169 50.1573 84.0893 50.5933 84.4478L50.4132 84.6667ZM105.482 83.7376L105.295 83.5249C105.718 83.1521 106.14 82.7656 106.548 82.3762L106.744 82.5814C106.333 82.9732 105.909 83.3623 105.482 83.7376ZM47.8579 82.3876C47.4504 81.9935 47.0444 81.585 46.6512 81.1735L46.8561 80.9776C47.2467 81.3865 47.6501 81.7923 48.055 82.1837L47.8579 82.3876ZM107.959 81.3751L107.755 81.1779C108.147 80.7728 108.537 80.3538 108.913 79.9322L109.124 80.1211C108.746 80.5453 108.353 80.9673 107.959 81.3751ZM45.4942 79.9125C45.1177 79.4853 44.7458 79.0458 44.3887 78.6061L44.6088 78.4275C44.9634 78.8642 45.3329 79.3008 45.7068 79.725L45.4942 79.9125ZM110.239 78.8212L110.02 78.6411C110.38 78.2044 110.735 77.7552 111.076 77.3061L111.301 77.4774C110.959 77.9295 110.601 78.3816 110.239 78.8212V78.8212ZM43.3368 77.2572C42.9967 76.8026 42.6613 76.3351 42.3399 75.8675L42.5735 75.7069C42.8927 76.1714 43.2258 76.6359 43.5637 77.0874L43.3368 77.2572ZM112.309 76.0916L112.076 75.9297C112.4 75.4652 112.718 74.9888 113.021 74.5137L113.26 74.6662C112.955 75.1444 112.635 75.624 112.309 76.0916ZM41.3998 74.4392C41.0977 73.9593 40.801 73.4666 40.5181 72.9747L40.7638 72.8335C41.0448 73.3221 41.3395 73.8115 41.6396 74.2881L41.3998 74.4392ZM114.154 73.2033L113.909 73.0605C114.194 72.5711 114.473 72.0703 114.737 71.5723L114.987 71.7051C114.721 72.2065 114.441 72.7106 114.154 73.2033V73.2033ZM39.6964 71.4761C39.4339 70.9738 39.1781 70.4591 38.9359 69.9462L39.1922 69.8253C39.4328 70.3347 39.6869 70.8459 39.9476 71.3449L39.6964 71.4761ZM115.76 70.1741L115.504 70.0515C115.748 69.5418 115.986 69.02 116.21 68.5004L116.47 68.6125C116.245 69.1356 116.006 69.661 115.76 70.1741ZM38.238 68.3878C38.0165 67.8651 37.8032 67.3318 37.6039 66.8027L37.8691 66.7029C38.0671 67.2282 38.2789 67.758 38.499 68.2771L38.238 68.3878ZM117.116 67.0228L116.852 66.9214C117.054 66.3919 117.249 65.8521 117.429 65.3172L117.698 65.4078C117.516 65.9464 117.321 66.4896 117.116 67.0228V67.0228ZM37.0328 65.1888C36.8541 64.6495 36.6842 64.0991 36.5277 63.5531L36.8002 63.4751C36.9556 64.0173 37.1244 64.564 37.3019 65.0998L37.0328 65.1888ZM118.212 63.7746L117.94 63.6951C118.098 63.1547 118.247 62.6026 118.384 62.0537L118.659 62.1222C118.521 62.6748 118.371 63.2308 118.212 63.7746ZM36.0894 61.8983C35.9551 61.3459 35.8303 60.7837 35.7185 60.2271L35.9965 60.1713C36.1075 60.7241 36.2314 61.2827 36.3648 61.8313L36.0894 61.8983ZM119.039 60.4533L118.761 60.3959C118.875 59.8442 118.979 59.2817 119.071 58.7241L119.351 58.7701C119.259 59.3314 119.154 59.8977 119.039 60.4532V60.4533ZM35.4156 58.5423C35.3266 57.9824 35.2476 57.412 35.181 56.8467L35.4624 56.8136C35.5287 57.3751 35.6071 57.9417 35.6956 58.4978L35.4156 58.5423ZM119.595 57.0754L119.313 57.0407C119.383 56.4799 119.441 55.9109 119.488 55.3495L119.77 55.3728C119.723 55.938 119.664 56.5108 119.595 57.0754V57.0754ZM35.0147 55.1432C34.9708 54.5769 34.9378 54.0019 34.9167 53.4341L35.1998 53.4235C35.2209 53.9875 35.2537 54.5587 35.2973 55.1213L35.0147 55.1432ZM119.878 53.6646L119.595 53.6525C119.619 53.0878 119.632 52.5158 119.634 51.9525L119.634 51.8586L119.917 51.8595L119.917 51.9528C119.915 52.5204 119.902 53.0961 119.878 53.6646ZM35.1699 51.7233L34.8865 51.7223L34.8867 51.6747C34.8885 51.1218 34.9011 50.5619 34.9241 50.0112L35.2072 50.0231C35.1844 50.5702 35.1719 51.1264 35.1701 51.6763L35.1699 51.7233ZM119.602 50.1587C119.58 49.5959 119.547 49.0247 119.503 48.4611L119.785 48.4389C119.83 49.0063 119.864 49.5812 119.885 50.1479L119.602 50.1587ZM35.3121 48.3259L35.0295 48.3029C35.076 47.7354 35.1344 47.1625 35.2033 46.5999L35.4847 46.6343C35.4163 47.1932 35.3582 47.7624 35.3121 48.3259ZM119.336 46.7689C119.269 46.2097 119.19 45.6432 119.101 45.085L119.381 45.0402C119.471 45.6021 119.55 46.1725 119.617 46.7355L119.336 46.7689ZM35.7249 44.9511L35.4452 44.9053C35.5369 44.3444 35.6412 43.778 35.7555 43.2218L36.033 43.2788C35.9196 43.8312 35.816 44.3938 35.7249 44.9511H35.7249ZM118.798 43.4117C118.686 42.8575 118.561 42.2992 118.428 41.7522L118.703 41.6849C118.838 42.2356 118.963 42.7977 119.076 43.3556L118.798 43.4117ZM36.4085 41.6204L36.1333 41.5523C36.2699 41.0011 36.4198 40.4449 36.5788 39.8992L36.851 39.9785C36.693 40.5205 36.5441 41.073 36.4085 41.6204ZM117.991 40.1089C117.835 39.5671 117.665 39.0206 117.487 38.4848L117.756 38.3954C117.936 38.9349 118.106 39.485 118.263 40.0305L117.991 40.1089ZM37.3596 38.356L37.0909 38.2657C37.2721 37.7266 37.467 37.183 37.6705 36.65L37.9353 36.7511C37.7332 37.2805 37.5395 37.8205 37.3596 38.356ZM116.918 36.8824C116.719 36.3545 116.506 35.8251 116.287 35.3087L116.547 35.1978C116.768 35.7177 116.982 36.2507 117.183 36.7821L116.918 36.8824ZM38.5757 35.1713L38.3152 35.0595C38.5396 34.5366 38.778 34.0109 39.0236 33.4972L39.2793 33.6194C39.0353 34.1297 38.7986 34.6519 38.5757 35.1713H38.5757ZM115.592 33.7612C115.351 33.2523 115.096 32.7414 114.835 32.2425L115.086 32.111C115.349 32.6132 115.605 33.1276 115.848 33.64L115.592 33.7612ZM40.0452 32.0977L39.7946 31.9653C40.0604 31.4626 40.3404 30.9582 40.6266 30.4661L40.8717 30.6086C40.5873 31.0974 40.3092 31.5985 40.0452 32.0977ZM114.017 30.7551C113.735 30.2663 113.44 29.7772 113.139 29.3013L113.379 29.15C113.681 29.629 113.978 30.1215 114.262 30.6135L114.017 30.7551ZM41.7574 29.1545L41.5183 29.0022C41.8239 28.5225 42.1435 28.0425 42.468 27.5757L42.7006 27.7375C42.3783 28.2012 42.061 28.6779 41.7574 29.1545ZM112.204 27.8835C111.884 27.4191 111.55 26.955 111.212 26.5041L111.439 26.334C111.779 26.788 112.115 27.2552 112.437 27.7227L112.204 27.8835ZM43.6999 26.3599L43.4739 26.1889C43.817 25.7354 44.1738 25.2829 44.5344 24.8438L44.7535 25.0238C44.3952 25.4599 44.0408 25.9094 43.6999 26.3599ZM110.166 25.1651C109.81 24.7278 109.439 24.2917 109.066 23.8689L109.278 23.6812C109.654 24.1068 110.027 24.5459 110.385 24.9862L110.166 25.1651ZM45.8596 23.7312L45.648 23.5427C46.0257 23.1187 46.4174 22.6964 46.8124 22.2873L47.0163 22.4843C46.624 22.8905 46.2348 23.3101 45.8596 23.7312H45.8596ZM107.915 22.6173C107.525 22.209 107.121 21.8037 106.715 21.4125L106.912 21.2085C107.32 21.6023 107.727 22.0103 108.12 22.4213L107.915 22.6173ZM48.2216 21.2848L48.0258 21.0799C48.436 20.6877 48.8602 20.2982 49.2863 19.9222L49.4738 20.1347C49.0505 20.5082 48.6292 20.8952 48.2216 21.2848L48.2216 21.2848ZM105.468 20.2565C105.045 19.8807 104.61 19.5088 104.175 19.1512L104.354 18.9321C104.793 19.2921 105.231 19.6664 105.656 20.0448L105.468 20.2565ZM50.7707 19.0359L50.5918 18.8161C51.0327 18.4574 51.4864 18.1032 51.9403 17.7634L52.1102 17.9903C51.6593 18.3278 51.2087 18.6797 50.7707 19.0359L50.7707 19.0359ZM102.838 18.0984C102.387 17.7576 101.923 17.4216 101.46 17.0998L101.621 16.867C102.088 17.1909 102.554 17.5291 103.009 17.8722L102.838 18.0984ZM53.4903 16.9991L53.3296 16.7656C53.7979 16.4434 54.2782 16.1269 54.7574 15.8248L54.9086 16.0646C54.4326 16.3646 53.9554 16.679 53.4903 16.9991ZM100.042 16.1572C99.5651 15.8538 99.0757 15.5561 98.5872 15.2724L98.7298 15.0273C99.2212 15.3129 99.7139 15.6127 100.194 15.9181L100.042 16.1572ZM56.3628 15.1881L56.2214 14.9424C56.7124 14.6598 57.2164 14.383 57.7192 14.1198L57.8507 14.3709C57.3511 14.6323 56.8505 14.9073 56.3628 15.1881V15.1881ZM97.0979 14.4467C96.5982 14.1828 96.0861 13.9254 95.5758 13.6818L95.6979 13.426C96.2116 13.6713 96.7273 13.9304 97.2302 14.1961L97.0979 14.4467ZM59.3697 13.6147L59.2486 13.3584C59.7604 13.1164 60.2847 12.8814 60.8068 12.6597L60.9175 12.9206C60.3989 13.1407 59.8781 13.3742 59.3697 13.6147L59.3697 13.6147ZM94.0235 12.979C93.5033 12.756 92.9717 12.541 92.4434 12.3395L92.5445 12.0747C93.0762 12.2774 93.6115 12.4941 94.1351 12.7184L94.0235 12.979ZM62.4916 12.2898L62.3916 12.0246C62.9225 11.8241 63.4654 11.6317 64.0051 11.4527L64.0943 11.7217C63.5583 11.8995 63.0191 12.0907 62.4916 12.2898ZM90.8381 11.7646C90.3031 11.5852 89.7571 11.4144 89.2152 11.2569L89.2945 10.9848C89.8399 11.1433 90.3895 11.3153 90.9281 11.4959L90.8381 11.7646ZM65.7188 11.219L65.6406 10.9466C66.1861 10.7898 66.7429 10.642 67.2952 10.5073L67.3623 10.7827C66.8137 10.9165 66.2608 11.0633 65.7188 11.219ZM87.5731 10.8154C87.0264 10.6801 86.4683 10.5541 85.9145 10.4408L85.9713 10.1631C86.5288 10.2771 87.0907 10.4041 87.6412 10.5402L87.5731 10.8154ZM69.022 10.4135L68.9661 10.1357C69.5221 10.0238 70.0889 9.92154 70.6507 9.83183L70.6955 10.1117C70.1373 10.2008 69.5743 10.3024 69.022 10.4135ZM84.2421 10.1336C83.6851 10.043 83.1186 9.96235 82.5586 9.89423L82.5929 9.61284C83.1567 9.68146 83.7269 9.76257 84.2876 9.85394L84.2421 10.1336ZM72.3796 9.87762L72.3462 9.59615C72.9102 9.52935 73.4834 9.47303 74.0497 9.42893L74.0717 9.71148C73.5092 9.75537 72.9398 9.81123 72.3796 9.87762ZM80.867 9.72262C80.3053 9.67698 79.7342 9.64204 79.1698 9.61881L79.1815 9.33555C79.7497 9.359 80.3245 9.39416 80.8899 9.44009L80.867 9.72262ZM75.7694 9.61316L75.7587 9.32996C76.3256 9.30842 76.9014 9.29799 77.4703 9.29888L77.4698 9.58232C76.9047 9.58144 76.3326 9.59181 75.7694 9.61316Z" fill="#3F3D56"/>
<path d="M158.326 70.2763L131.312 117.067L122.381 132.534L120.68 131.552L103.688 121.742L91.0044 114.419L44.8844 87.7924L51.3371 0L158.326 70.2763Z" fill="#F1F1F1"/>
<path d="M32.194 89.0623C33.5514 83.516 37.9486 79.0452 43.5295 77.7451C46.496 77.0533 49.6008 77.2529 52.4543 78.3188C55.3592 79.4146 57.8508 81.3635 60.1695 83.3822C64.6487 87.2818 68.9873 91.3411 74.398 93.9432C79.231 96.2675 84.6732 97.2546 89.9284 95.8685C92.3104 95.2637 94.5231 94.1234 96.398 92.5345C98.3169 90.8733 99.6671 88.6984 100.563 86.3399C102.44 81.3964 102.403 75.989 103.836 70.9302C104.575 68.3231 105.748 65.8602 107.62 63.8735C109.472 61.9094 111.828 60.4702 114.327 59.4824C120.254 57.1399 126.669 57.3298 132.93 57.4125C138.848 57.4907 144.911 57.3887 150.454 55.0584C152.924 54.02 155.229 52.5522 157.052 50.5716C158.993 48.4617 160.286 45.8669 161.212 43.1737C161.69 41.7834 162.071 40.3629 162.413 38.9339C162.541 38.402 161.721 38.1751 161.593 38.7078C160.884 41.6662 160.003 44.6278 158.444 47.2622C156.987 49.7093 154.917 51.7346 152.439 53.1387C147.217 56.1389 141.052 56.595 135.161 56.5819C128.838 56.5678 122.371 56.0972 116.229 57.9284C111.231 59.4186 106.631 62.4042 104.317 67.2162C102.013 72.0063 101.933 77.4419 100.786 82.548C100.216 85.0841 99.3646 87.581 97.837 89.71C96.3144 91.8321 94.1337 93.4178 91.7198 94.3851C86.5588 96.4531 80.8036 95.8465 75.7936 93.6531C70.1772 91.194 65.6785 87.0973 61.132 83.0972C58.9418 81.1704 56.6384 79.2943 53.9803 78.0491C51.8125 77.0221 49.4431 76.491 47.0443 76.4943C44.6455 76.4977 42.2776 77.0355 40.1127 78.0685C37.9478 79.1016 36.0402 80.604 34.5286 82.4666C33.017 84.3291 31.9394 86.5051 31.374 88.8363C31.244 89.3677 32.0637 89.5945 32.194 89.0624L32.194 89.0623Z" fill="#3F3D56"/>
<path d="M92.4153 109.914H78.1761C77.2043 104.297 77.2043 98.5541 78.1761 92.9366H92.4153C90.8111 98.4821 90.8111 104.369 92.4153 109.914Z" fill="#FF6584"/>
<path d="M39.1505 92.9034H53.3897C54.3614 87.286 54.3614 81.5434 53.3897 75.9259H39.1505C40.7547 81.4714 40.7547 87.3579 39.1505 92.9034Z" fill="#37B5E8"/>
<path d="M42.1681 83.068C42.6449 82.881 43.1577 82.8038 43.6684 82.8422C44.1791 82.8806 44.6746 83.0336 45.1181 83.2898C45.8662 83.7079 46.545 84.2184 47.4132 84.3517C48.1239 84.459 48.8505 84.348 49.4967 84.0333C50.3262 83.6277 50.8382 82.847 51.5484 82.2871C51.9468 81.973 51.3851 81.4182 50.9905 81.7293C50.297 82.2762 49.8024 83.0715 48.9575 83.4075C48.053 83.7672 47.1725 83.5837 46.3521 83.111C45.6908 82.73 45.0745 82.2939 44.3152 82.1281C43.5288 81.9591 42.7102 82.0213 41.9584 82.3073C41.4867 82.4827 41.6908 83.2455 42.1681 83.0681L42.1681 83.068Z" fill="#F2F2F2"/>
<path d="M42.1681 86.881C42.6449 86.694 43.1577 86.6168 43.6684 86.6552C44.1791 86.6936 44.6746 86.8466 45.1181 87.1028C45.8662 87.5209 46.545 88.0314 47.4132 88.1646C48.1239 88.272 48.8505 88.1609 49.4968 87.8462C50.3263 87.4407 50.8383 86.66 51.5484 86.1001C51.9468 85.786 51.3851 85.2311 50.9905 85.5423C50.297 86.0891 49.8024 86.8845 48.9575 87.2205C48.053 87.5802 47.1725 87.3966 46.3521 86.924C45.6908 86.543 45.0745 86.1069 44.3152 85.9411C43.5288 85.772 42.7102 85.8343 41.9584 86.1203C41.4867 86.2957 41.6908 87.0585 42.1681 86.881H42.1681Z" fill="#F2F2F2"/>
<path d="M88.5338 97.9255C88.057 97.7384 87.5442 97.6612 87.0335 97.6996C86.5228 97.738 86.0273 97.891 85.5838 98.1472C84.8357 98.5653 84.1569 99.0758 83.2887 99.2091C82.5779 99.3164 81.8514 99.2054 81.2051 98.8907C80.3756 98.4851 79.8636 97.7045 79.1535 97.1445C78.7551 96.8304 79.3168 96.2756 79.7113 96.5867C80.4049 97.1336 80.8995 97.9289 81.7444 98.2649C82.6489 98.6246 83.5294 98.4411 84.3498 97.9684C85.0111 97.5874 85.6274 97.1513 86.3867 96.9856C87.1731 96.8165 87.9917 96.8787 88.7435 97.1648C89.2152 97.3401 89.0111 98.1029 88.5338 97.9255H88.5338Z" fill="#F2F2F2"/>
<path d="M88.5338 101.607C88.057 101.42 87.5442 101.343 87.0335 101.381C86.5228 101.42 86.0273 101.573 85.5838 101.829C84.8357 102.247 84.1569 102.757 83.2887 102.891C82.5779 102.998 81.8514 102.887 81.2051 102.572C80.3756 102.167 79.8636 101.386 79.1535 100.826C78.7551 100.512 79.3168 99.9571 79.7113 100.268C80.4049 100.815 80.8995 101.61 81.7444 101.946C82.6489 102.306 83.5294 102.123 84.3498 101.65C85.0111 101.269 85.6274 100.833 86.3867 100.667C87.1731 100.498 87.9917 100.56 88.7435 100.846C89.2152 101.022 89.0111 101.784 88.5338 101.607H88.5338Z" fill="#F2F2F2"/>
<path d="M88.5338 105.288C88.057 105.101 87.5442 105.024 87.0335 105.063C86.5228 105.101 86.0273 105.254 85.5838 105.51C84.8357 105.928 84.1569 106.439 83.2887 106.572C82.5779 106.679 81.8514 106.568 81.2051 106.254C80.3756 105.848 79.8636 105.067 79.1535 104.508C78.7551 104.193 79.3168 103.639 79.7113 103.95C80.4049 104.497 80.8995 105.292 81.7444 105.628C82.6489 105.988 83.5294 105.804 84.3498 105.331C85.0111 104.95 85.6274 104.514 86.3867 104.349C87.1731 104.18 87.9917 104.242 88.7435 104.528C89.2152 104.703 89.0111 105.466 88.5338 105.288H88.5338Z" fill="#F2F2F2"/>
<path d="M113.112 79.5528L124.55 71.0714C121.985 65.9803 118.564 61.3676 114.438 57.4341L103 65.9155C107.592 69.4145 111.098 74.1428 113.112 79.5528Z" fill="#37B5E8"/>
<path d="M108.824 68.7988C109.096 68.3645 109.462 67.9971 109.895 67.7237C110.328 67.4504 110.817 67.2781 111.326 67.2198C112.176 67.11 113.025 67.1158 113.802 66.7057C114.437 66.3685 114.955 65.8466 115.286 65.2088C115.711 64.389 115.657 63.457 115.894 62.5842C116.027 62.0946 115.245 61.9835 115.114 62.4684C114.882 63.3208 114.959 64.2543 114.48 65.0274C113.968 65.8551 113.151 66.2321 112.211 66.3411C111.453 66.429 110.698 66.4458 109.989 66.7649C109.257 67.0975 108.636 67.6351 108.203 68.3126C107.928 68.7345 108.547 69.2256 108.824 68.7988Z" fill="#F2F2F2"/>
<path d="M111.017 71.7559C111.289 71.3217 111.655 70.9542 112.088 70.6809C112.521 70.4075 113.01 70.2353 113.519 70.1769C114.369 70.0671 115.218 70.0729 115.995 69.6628C116.63 69.3257 117.147 68.8037 117.479 68.166C117.904 67.3462 117.85 66.4141 118.087 65.5414C118.22 65.0517 117.438 64.9406 117.307 65.4256C117.075 66.278 117.152 67.2114 116.673 67.9846C116.161 68.8123 115.344 69.1893 114.404 69.2983C113.646 69.3861 112.891 69.403 112.182 69.7221C111.45 70.0547 110.829 70.5922 110.396 71.2698C110.121 71.6916 110.74 72.1828 111.017 71.7559Z" fill="#F2F2F2"/>
<path d="M113.078 36.5511C113.708 36.5511 114.22 36.0398 114.22 35.4091C114.22 34.7785 113.708 34.2672 113.078 34.2672C112.447 34.2672 111.936 34.7785 111.936 35.4091C111.936 36.0398 112.447 36.5511 113.078 36.5511Z" fill="#FFB8B8"/>
<path d="M124.298 57.4695C131.748 57.0676 139.302 58.1252 146.632 56.3223C147.163 56.1917 146.938 55.3715 146.406 55.5024C139.156 57.2857 131.668 56.2216 124.298 56.6192C123.753 56.6485 123.75 57.499 124.298 57.4695V57.4695Z" fill="#3F3D56"/>
<path d="M157.184 69.8645L169 61.9187C166.672 56.715 163.467 51.9496 159.526 47.8303L147.71 55.7761C152.136 59.4827 155.421 64.3675 157.184 69.8645Z" fill="#37B5E8"/>
<path d="M154.2 60.019C154.491 59.5977 154.873 59.2475 155.319 58.9944C155.764 58.7412 156.26 58.5917 156.771 58.5569C157.625 58.4863 158.474 58.5312 159.268 58.1573C159.918 57.8497 160.459 57.3522 160.82 56.7304C161.282 55.931 161.271 54.9974 161.548 54.1365C161.703 53.6535 160.928 53.5065 160.774 53.9849C160.503 54.8258 160.537 55.7617 160.023 56.512C159.473 57.3153 158.64 57.6543 157.696 57.7198C156.934 57.7727 156.179 57.7547 155.457 58.0409C154.71 58.3394 154.065 58.8478 153.601 59.5047C153.308 59.9135 153.903 60.4326 154.2 60.019V60.019Z" fill="#F2F2F2"/>
<path d="M156.327 63.183C156.619 62.7618 157.001 62.4116 157.446 62.1584C157.892 61.9053 158.388 61.7558 158.899 61.7209C159.753 61.6504 160.601 61.6953 161.396 61.3213C162.046 61.0138 162.587 60.5162 162.947 59.8944C163.409 59.095 163.399 58.1615 163.676 57.3006C163.831 56.8176 163.055 56.6706 162.901 57.149C162.631 57.9898 162.664 58.9258 162.151 59.6761C161.601 60.4793 160.768 60.8183 159.823 60.8839C159.062 60.9368 158.307 60.9188 157.585 61.205C156.838 61.5035 156.193 62.0119 155.729 62.6688C155.435 63.0776 156.03 63.5967 156.327 63.1831V63.183Z" fill="#F2F2F2"/>
<path d="M59.7701 7.95213L0.050293 7.75684L1.09976e-05 23.1325L59.7199 23.3278L59.7701 7.95213Z" fill="#3F3D56"/>
<path d="M7.16209 19.6285C9.47268 19.6285 11.3458 17.7554 11.3458 15.4448C11.3458 13.1342 9.47268 11.2611 7.16209 11.2611C4.8515 11.2611 2.97839 13.1342 2.97839 15.4448C2.97839 17.7554 4.8515 19.6285 7.16209 19.6285Z" fill="#37B5E8"/>
<path d="M33.2601 12.0028L15.9512 11.9462L15.9471 13.1767L33.2561 13.2333L33.2601 12.0028Z" fill="white"/>
<path d="M54.0866 15.024L15.9414 14.8993L15.9374 16.1298L54.0826 16.2545L54.0866 15.024Z" fill="white"/>
<path d="M54.077 17.9772L15.9318 17.8524L15.9277 19.0829L54.073 19.2077L54.077 17.9772Z" fill="white"/>
<path d="M59.7701 48.9117L0.050293 48.7164L1.09902e-05 64.0921L59.7199 64.2874L59.7701 48.9117Z" fill="#3F3D56"/>
<path d="M7.16209 60.588C9.47268 60.588 11.3458 58.7149 11.3458 56.4043C11.3458 54.0937 9.47268 52.2206 7.16209 52.2206C4.8515 52.2206 2.97839 54.0937 2.97839 56.4043C2.97839 58.7149 4.8515 60.588 7.16209 60.588Z" fill="#37B5E8"/>
<path d="M33.2601 52.9622L15.9512 52.9056L15.9471 54.1361L33.2561 54.1927L33.2601 52.9622Z" fill="white"/>
<path d="M54.0866 55.9835L15.9414 55.8588L15.9374 57.0892L54.0826 57.214L54.0866 55.9835Z" fill="white"/>
<path d="M54.077 58.9368L15.9318 58.812L15.9277 60.0425L54.073 60.1673L54.077 58.9368Z" fill="white"/>
<path d="M14.421 43.8227L74.1409 43.6274L74.0906 28.2518L14.3707 28.4471L14.421 43.8227Z" fill="#3F3D56"/>
<path d="M66.9787 40.1235C69.2893 40.1235 71.1624 38.2504 71.1624 35.9398C71.1624 33.6292 69.2893 31.7561 66.9787 31.7561C64.6681 31.7561 62.795 33.6292 62.795 35.9398C62.795 38.2504 64.6681 40.1235 66.9787 40.1235Z" fill="#37B5E8"/>
<path d="M40.8848 33.7282L58.1937 33.6716L58.1897 32.4411L40.8808 32.4977L40.8848 33.7282Z" fill="white"/>
<path d="M20.0581 36.7495L58.2034 36.6248L58.1993 35.3942L20.0541 35.519L20.0581 36.7495Z" fill="white"/>
<path d="M20.0678 39.7027L58.213 39.578L58.209 38.3475L20.0638 38.4723L20.0678 39.7027Z" fill="white"/>
</g>
<defs>
<clipPath id="clip0">
<rect width="169" height="132.535" fill="white"/>
</clipPath>
</defs>
</svg>
