<svg width="176" height="133" viewBox="0 0 176 133" fill="none" xmlns="http://www.w3.org/2000/svg">
<g clip-path="url(#clip0)">
<path d="M85.1639 117.59C47.4574 114.721 2.49069 85.5045 4.78002 55.4214C7.06934 25.3384 50.6201 -2.66646 88.3266 0.203004C126.033 3.07247 147.738 59.2927 145.449 89.3757C143.16 119.459 122.87 120.46 85.1639 117.59Z" fill="#F2F2F2"/>
<path d="M88.3262 122.422C131.797 122.422 167.037 120.263 167.037 117.6C167.037 114.937 131.797 112.778 88.3262 112.778C44.8553 112.778 9.61511 114.937 9.61511 117.6C9.61511 120.263 44.8553 122.422 88.3262 122.422Z" fill="#3F3D56"/>
<path opacity="0.1" d="M88.3262 120.711C125.354 120.711 155.371 119.283 155.371 117.522C155.371 115.761 125.354 114.333 88.3262 114.333C51.2986 114.333 21.2817 115.761 21.2817 117.522C21.2817 119.283 51.2986 120.711 88.3262 120.711Z" fill="black"/>
<path d="M147.904 25.2H30.9263V116.978H147.904V25.2Z" fill="#3F3D56"/>
<path d="M88.0843 37.7423H59.226C59.1799 37.7424 59.1343 37.7334 59.0917 37.7159C59.0491 37.6983 59.0104 37.6725 58.9778 37.64C58.9452 37.6075 58.9194 37.5688 58.9017 37.5263C58.8841 37.4837 58.875 37.4381 58.875 37.3921C58.875 37.346 58.8841 37.3004 58.9017 37.2579C58.9194 37.2154 58.9452 37.1767 58.9778 37.1442C59.0104 37.1117 59.0491 37.0859 59.0917 37.0683C59.1343 37.0508 59.1799 37.0418 59.226 37.0419H88.0843C88.177 37.0421 88.2659 37.0791 88.3314 37.1447C88.397 37.2104 88.4337 37.2993 88.4337 37.3921C88.4337 37.4849 88.397 37.5738 88.3314 37.6395C88.2659 37.7051 88.177 37.7421 88.0843 37.7423Z" fill="#F2F2F2"/>
<path d="M119.674 41.5947H74.2855C74.1926 41.5947 74.1036 41.5578 74.0379 41.4922C73.9722 41.4265 73.9353 41.3374 73.9353 41.2445C73.9353 41.1516 73.9722 41.0625 74.0379 40.9969C74.1036 40.9312 74.1926 40.8943 74.2855 40.8943H119.674C119.72 40.8943 119.766 40.9033 119.808 40.9209C119.851 40.9385 119.889 40.9643 119.922 40.9969C119.955 41.0294 119.98 41.068 119.998 41.1105C120.016 41.153 120.025 41.1985 120.025 41.2445C120.025 41.2905 120.016 41.336 119.998 41.3785C119.98 41.421 119.955 41.4596 119.922 41.4922C119.889 41.5247 119.851 41.5505 119.808 41.5681C119.766 41.5857 119.72 41.5947 119.674 41.5947Z" fill="#F2F2F2"/>
<path d="M88.2244 45.4473H59.3661C59.2732 45.4473 59.1841 45.4104 59.1184 45.3447C59.0528 45.279 59.0159 45.1899 59.0159 45.097C59.0159 45.0042 59.0528 44.9151 59.1184 44.8494C59.1841 44.7837 59.2732 44.7468 59.3661 44.7468H88.2244C88.3173 44.7468 88.4063 44.7837 88.472 44.8494C88.5377 44.9151 88.5746 45.0042 88.5746 45.097C88.5746 45.1899 88.5377 45.279 88.472 45.3447C88.4063 45.4104 88.3173 45.4473 88.2244 45.4473Z" fill="#F2F2F2"/>
<path d="M119.674 45.5172H90.8159C90.723 45.5172 90.634 45.4803 90.5683 45.4146C90.5026 45.349 90.4657 45.2599 90.4657 45.167C90.4657 45.0741 90.5026 44.985 90.5683 44.9193C90.634 44.8537 90.723 44.8168 90.8159 44.8168H119.674C119.767 44.8168 119.856 44.8537 119.922 44.9193C119.988 44.985 120.024 45.0741 120.024 45.167C120.024 45.2599 119.988 45.349 119.922 45.4146C119.856 45.4803 119.767 45.5172 119.674 45.5172Z" fill="#F2F2F2"/>
<path d="M88.2944 49.2997H59.436C59.3432 49.2997 59.2541 49.2628 59.1884 49.1971C59.1227 49.1314 59.0858 49.0424 59.0858 48.9495C59.0858 48.8566 59.1227 48.7675 59.1884 48.7018C59.2541 48.6361 59.3432 48.5992 59.436 48.5992H88.2944C88.3873 48.5992 88.4763 48.6361 88.542 48.7018C88.6077 48.7675 88.6446 48.8566 88.6446 48.9495C88.6446 49.0424 88.6077 49.1314 88.542 49.1971C88.4763 49.2628 88.3873 49.2997 88.2944 49.2997Z" fill="#F2F2F2"/>
<path d="M88.3644 53.1521H59.5061C59.4132 53.1521 59.3241 53.1152 59.2585 53.0495C59.1928 52.9838 59.1559 52.8948 59.1559 52.8019C59.1559 52.709 59.1928 52.6199 59.2585 52.5542C59.3241 52.4886 59.4132 52.4517 59.5061 52.4517H88.3644C88.4573 52.4517 88.5464 52.4886 88.6121 52.5542C88.6778 52.6199 88.7147 52.709 88.7147 52.8019C88.7147 52.8948 88.6778 52.9838 88.6121 53.0495C88.5464 53.1152 88.4573 53.1521 88.3644 53.1521Z" fill="#F2F2F2"/>
<path d="M101.463 37.8124H93.1975C93.1046 37.8124 93.0155 37.7755 92.9499 37.7098C92.8842 37.6441 92.8473 37.555 92.8473 37.4622C92.8473 37.3693 92.8842 37.2802 92.9499 37.2145C93.0155 37.1488 93.1046 37.1119 93.1975 37.1119H101.463C101.556 37.1119 101.645 37.1488 101.71 37.2145C101.776 37.2802 101.813 37.3693 101.813 37.4622C101.813 37.555 101.776 37.6441 101.71 37.7098C101.645 37.7755 101.556 37.8124 101.463 37.8124Z" fill="#F2F2F2"/>
<path d="M101.463 49.2997H93.1975C93.1046 49.2997 93.0155 49.2628 92.9499 49.1971C92.8842 49.1314 92.8473 49.0424 92.8473 48.9495C92.8473 48.8566 92.8842 48.7675 92.9499 48.7018C93.0155 48.6361 93.1046 48.5992 93.1975 48.5992H101.463C101.556 48.5992 101.645 48.6361 101.71 48.7018C101.776 48.7675 101.813 48.8566 101.813 48.9495C101.813 49.0424 101.776 49.1314 101.71 49.1971C101.645 49.2628 101.556 49.2997 101.463 49.2997Z" fill="#F2F2F2"/>
<path d="M101.463 53.082H93.1975C93.1515 53.0821 93.1058 53.0732 93.0633 53.0556C93.0207 53.038 92.982 53.0123 92.9494 52.9797C92.9168 52.9472 92.8909 52.9086 92.8733 52.866C92.8556 52.8235 92.8466 52.7779 92.8466 52.7318C92.8466 52.6858 92.8556 52.6402 92.8733 52.5976C92.8909 52.5551 92.9168 52.5164 92.9494 52.4839C92.982 52.4514 93.0207 52.4256 93.0633 52.408C93.1058 52.3905 93.1515 52.3815 93.1975 52.3816H101.463C101.509 52.3815 101.554 52.3905 101.597 52.408C101.64 52.4256 101.678 52.4514 101.711 52.4839C101.743 52.5164 101.769 52.5551 101.787 52.5976C101.805 52.6402 101.814 52.6858 101.814 52.7318C101.814 52.7779 101.805 52.8235 101.787 52.866C101.769 52.9086 101.743 52.9472 101.711 52.9797C101.678 53.0123 101.64 53.038 101.597 53.0556C101.554 53.0732 101.509 53.0821 101.463 53.082Z" fill="#F2F2F2"/>
<path d="M115.332 53.082H107.066C106.974 53.0819 106.885 53.0449 106.819 52.9792C106.754 52.9135 106.717 52.8246 106.717 52.7318C106.717 52.6391 106.754 52.5501 106.819 52.4844C106.885 52.4188 106.974 52.3818 107.066 52.3816H115.332C115.378 52.3815 115.423 52.3905 115.466 52.408C115.508 52.4256 115.547 52.4514 115.58 52.4839C115.612 52.5164 115.638 52.5551 115.656 52.5976C115.673 52.6402 115.682 52.6858 115.682 52.7318C115.682 52.7779 115.673 52.8235 115.656 52.866C115.638 52.9086 115.612 52.9472 115.58 52.9797C115.547 53.0123 115.508 53.038 115.466 53.0556C115.423 53.0732 115.378 53.0821 115.332 53.082Z" fill="#F2F2F2"/>
<path d="M67.4211 41.5947H59.1559C59.063 41.5947 58.9739 41.5578 58.9082 41.4922C58.8426 41.4265 58.8057 41.3374 58.8057 41.2445C58.8057 41.1516 58.8426 41.0625 58.9082 40.9969C58.9739 40.9312 59.063 40.8943 59.1559 40.8943H67.4211C67.514 40.8943 67.6031 40.9312 67.6688 40.9969C67.7344 41.0625 67.7713 41.1516 67.7713 41.2445C67.7713 41.3374 67.7344 41.4265 67.6688 41.4922C67.6031 41.5578 67.514 41.5947 67.4211 41.5947Z" fill="#F2F2F2"/>
<path d="M88.1193 94.4784H59.261C59.1681 94.4784 59.079 94.4415 59.0133 94.3758C58.9477 94.3101 58.9108 94.2211 58.9108 94.1282C58.9108 94.0353 58.9477 93.9462 59.0133 93.8805C59.079 93.8149 59.1681 93.778 59.261 93.778H88.1193C88.2122 93.778 88.3012 93.8149 88.3669 93.8805C88.4326 93.9462 88.4695 94.0353 88.4695 94.1282C88.4695 94.2211 88.4326 94.3101 88.3669 94.3758C88.3012 94.4415 88.2122 94.4784 88.1193 94.4784Z" fill="#F2F2F2"/>
<path d="M87.9792 102.183H59.1209C59.028 102.183 58.9389 102.146 58.8732 102.081C58.8075 102.015 58.7706 101.926 58.7706 101.833C58.7706 101.74 58.8075 101.651 58.8732 101.585C58.9389 101.52 59.028 101.483 59.1209 101.483H87.9792C88.072 101.483 88.1611 101.52 88.2268 101.585C88.2925 101.651 88.3294 101.74 88.3294 101.833C88.3294 101.926 88.2925 102.015 88.2268 102.081C88.1611 102.146 88.072 102.183 87.9792 102.183Z" fill="#F2F2F2"/>
<path d="M88.0492 106.036H59.1909C59.1449 106.036 59.0993 106.027 59.0567 106.009C59.0141 105.992 58.9754 105.966 58.9428 105.933C58.9102 105.901 58.8843 105.862 58.8667 105.82C58.849 105.777 58.84 105.731 58.84 105.685C58.84 105.639 58.849 105.594 58.8667 105.551C58.8843 105.509 58.9102 105.47 58.9428 105.438C58.9754 105.405 59.0141 105.379 59.0567 105.362C59.0993 105.344 59.1449 105.335 59.1909 105.335H88.0492C88.0953 105.335 88.1409 105.344 88.1835 105.362C88.2261 105.379 88.2648 105.405 88.2974 105.438C88.33 105.47 88.3558 105.509 88.3735 105.551C88.3911 105.594 88.4002 105.639 88.4002 105.685C88.4002 105.731 88.3911 105.777 88.3735 105.82C88.3558 105.862 88.33 105.901 88.2974 105.933C88.2648 105.966 88.2261 105.992 88.1835 106.009C88.1409 106.027 88.0953 106.036 88.0492 106.036Z" fill="#F2F2F2"/>
<path d="M100.377 102.253H92.1118C92.0189 102.253 91.9299 102.216 91.8642 102.151C91.7985 102.085 91.7616 101.996 91.7616 101.903C91.7616 101.81 91.7985 101.721 91.8642 101.655C91.9299 101.59 92.0189 101.553 92.1118 101.553H100.377C100.47 101.553 100.559 101.59 100.625 101.655C100.69 101.721 100.727 101.81 100.727 101.903C100.727 101.996 100.69 102.085 100.625 102.151C100.559 102.216 100.47 102.253 100.377 102.253Z" fill="#F2F2F2"/>
<path d="M100.377 106.036H92.1118C92.0189 106.036 91.9299 105.999 91.8642 105.933C91.7985 105.867 91.7616 105.778 91.7616 105.685C91.7616 105.593 91.7985 105.503 91.8642 105.438C91.9299 105.372 92.0189 105.335 92.1118 105.335H100.377C100.47 105.335 100.559 105.372 100.625 105.438C100.69 105.503 100.727 105.593 100.727 105.685C100.727 105.778 100.69 105.867 100.625 105.933C100.559 105.999 100.47 106.036 100.377 106.036Z" fill="#F2F2F2"/>
<path d="M114.246 102.253H105.981C105.888 102.253 105.799 102.216 105.733 102.151C105.667 102.085 105.63 101.996 105.63 101.903C105.63 101.81 105.667 101.721 105.733 101.655C105.799 101.59 105.888 101.553 105.981 101.553H114.246C114.339 101.553 114.428 101.59 114.493 101.655C114.559 101.721 114.596 101.81 114.596 101.903C114.596 101.996 114.559 102.085 114.493 102.151C114.428 102.216 114.339 102.253 114.246 102.253Z" fill="#F2F2F2"/>
<path d="M119.709 98.3308H74.3206C74.2277 98.3308 74.1386 98.2939 74.0729 98.2282C74.0072 98.1626 73.9703 98.0735 73.9703 97.9806C73.9703 97.8877 74.0072 97.7986 74.0729 97.7329C74.1386 97.6673 74.2277 97.6304 74.3206 97.6304H119.709C119.802 97.6304 119.891 97.6673 119.957 97.7329C120.023 97.7986 120.06 97.8877 120.06 97.9806C120.06 98.0735 120.023 98.1626 119.957 98.2282C119.891 98.2939 119.802 98.3308 119.709 98.3308Z" fill="#F2F2F2"/>
<path d="M67.4562 98.3308H59.1909C59.098 98.3308 59.009 98.2939 58.9433 98.2282C58.8776 98.1626 58.8407 98.0735 58.8407 97.9806C58.8407 97.8877 58.8776 97.7986 58.9433 97.7329C59.009 97.6673 59.098 97.6304 59.1909 97.6304H67.4562C67.5491 97.6304 67.6381 97.6673 67.7038 97.7329C67.7695 97.7986 67.8064 97.8877 67.8064 97.9806C67.8064 98.0735 67.7695 98.1626 67.7038 98.2282C67.6381 98.2939 67.5491 98.3308 67.4562 98.3308Z" fill="#F2F2F2"/>
<path d="M119.709 109.958H74.3206C74.2745 109.958 74.2289 109.949 74.1863 109.932C74.1437 109.914 74.105 109.888 74.0724 109.856C74.0398 109.823 74.014 109.785 73.9963 109.742C73.9787 109.7 73.9696 109.654 73.9696 109.608C73.9696 109.562 73.9787 109.516 73.9963 109.474C74.014 109.431 74.0398 109.393 74.0724 109.36C74.105 109.327 74.1437 109.302 74.1863 109.284C74.2289 109.267 74.2745 109.258 74.3206 109.258H119.709C119.802 109.258 119.891 109.295 119.957 109.36C120.023 109.426 120.06 109.515 120.06 109.608C120.06 109.701 120.023 109.79 119.957 109.856C119.891 109.921 119.802 109.958 119.709 109.958Z" fill="#F2F2F2"/>
<path d="M67.4562 109.958H59.1909C59.1449 109.958 59.0993 109.949 59.0567 109.932C59.0141 109.914 58.9754 109.888 58.9428 109.856C58.9102 109.823 58.8843 109.785 58.8667 109.742C58.849 109.7 58.84 109.654 58.84 109.608C58.84 109.562 58.849 109.516 58.8667 109.474C58.8843 109.431 58.9102 109.393 58.9428 109.36C58.9754 109.327 59.0141 109.302 59.0567 109.284C59.0993 109.267 59.1449 109.258 59.1909 109.258H67.4562C67.5022 109.258 67.5478 109.267 67.5904 109.284C67.633 109.302 67.6717 109.327 67.7043 109.36C67.7369 109.393 67.7628 109.431 67.7804 109.474C67.7981 109.516 67.8071 109.562 67.8071 109.608C67.8071 109.654 67.7981 109.7 67.7804 109.742C67.7628 109.785 67.7369 109.823 67.7043 109.856C67.6717 109.888 67.633 109.914 67.5904 109.932C67.5478 109.949 67.5022 109.958 67.4562 109.958Z" fill="#F2F2F2"/>
<path d="M81.1499 62.3981L69.9427 73.4651L81.1499 84.5321L83.6715 82.0105L75.1962 73.5351L83.7415 64.9896L81.1499 62.3981Z" fill="#37B5E8"/>
<path d="M97.6803 62.3981L108.887 73.4651L97.6803 84.5321L95.1587 82.0105L103.634 73.5351L95.0887 64.9896L97.6803 62.3981Z" fill="#37B5E8"/>
<path d="M34.0373 28.9333C34.8105 28.9333 35.4373 28.3065 35.4373 27.5333C35.4373 26.7601 34.8105 26.1333 34.0373 26.1333C33.2641 26.1333 32.6373 26.7601 32.6373 27.5333C32.6373 28.3065 33.2641 28.9333 34.0373 28.9333Z" fill="#37B5E8"/>
<path d="M37.7706 28.9333C38.5438 28.9333 39.1706 28.3065 39.1706 27.5333C39.1706 26.7601 38.5438 26.1333 37.7706 26.1333C36.9974 26.1333 36.3706 26.7601 36.3706 27.5333C36.3706 28.3065 36.9974 28.9333 37.7706 28.9333Z" fill="#37B5E8"/>
<path d="M41.504 28.9333C42.2772 28.9333 42.904 28.3065 42.904 27.5333C42.904 26.7601 42.2772 26.1333 41.504 26.1333C40.7308 26.1333 40.104 26.7601 40.104 27.5333C40.104 28.3065 40.7308 28.9333 41.504 28.9333Z" fill="#37B5E8"/>
<path opacity="0.1" d="M147.904 29.8667H30.9263V30.3334H147.904V29.8667Z" fill="black"/>
<path d="M175.593 94.4928C175.593 104.413 169.696 107.876 162.421 107.876C155.146 107.876 149.249 104.413 149.249 94.4928C149.249 84.5729 162.421 71.9531 162.421 71.9531C162.421 71.9531 175.593 84.5729 175.593 94.4928Z" fill="#F2F2F2"/>
<path d="M161.941 106.359L162.076 98.0567L167.69 87.7859L162.097 96.7544L162.158 93.0214L166.027 85.5907L162.174 92.0336L162.283 85.3197L166.426 79.4038L162.3 84.2639L162.368 71.9531L161.94 88.2505L161.975 87.5782L157.763 81.1303L161.908 88.8689L161.515 96.3671L161.504 96.168L156.647 89.3825L161.489 96.8711L161.44 97.8088L161.431 97.8229L161.435 97.8999L160.439 116.924H161.77L161.929 107.098L166.759 99.6272L161.941 106.359Z" fill="#3F3D56"/>
</g>
<defs>
<clipPath id="clip0">
<rect x="0.407227" width="175.186" height="133" fill="white"/>
</clipPath>
</defs>
</svg>
