<svg width="108" height="111" viewBox="0 0 108 111" fill="none" xmlns="http://www.w3.org/2000/svg">
<path d="M77.1001 10.5649C78.4404 10.5649 79.527 9.47828 79.527 8.1379C79.527 6.79753 78.4404 5.71094 77.1001 5.71094C75.7597 5.71094 74.6731 6.79753 74.6731 8.1379C74.6731 9.47828 75.7597 10.5649 77.1001 10.5649Z" fill="#F1F1F1"/>
<path d="M62.7904 104.482C64.1307 104.482 65.2173 103.395 65.2173 102.055C65.2173 100.714 64.1307 99.6278 62.7904 99.6278C61.45 99.6278 60.3634 100.714 60.3634 102.055C60.3634 103.395 61.45 104.482 62.7904 104.482Z" fill="#F1F1F1"/>
<path d="M2.42696 33.9208C3.76734 33.9208 4.85392 32.8342 4.85392 31.4938C4.85392 30.1535 3.76734 29.0669 2.42696 29.0669C1.08659 29.0669 0 30.1535 0 31.4938C0 32.8342 1.08659 33.9208 2.42696 33.9208Z" fill="#F1F1F1"/>
<path d="M104.975 28.8235L20.8547 3.56323L0.561388 71.143L84.6817 96.4033L104.975 28.8235Z" fill="#F1F1F1"/>
<path d="M54.5664 23.3383L74.4913 31.3919" stroke="#3F3D56" stroke-width="2" stroke-miterlimit="10"/>
<path d="M55.0728 24.9941L55.3712 24.8548L54.6833 23.3858L56.1989 22.8072L56.0811 22.4998L54.2355 23.2049L55.0728 24.9941Z" fill="#3F3D56"/>
<path d="M72.9765 32.2308L72.8588 31.9233L74.3741 31.3449L73.6864 29.8758L73.9848 29.7365L74.822 31.526L72.9765 32.2308Z" fill="#3F3D56"/>
<path d="M64.5289 29.1743C65.5281 29.1743 66.3381 28.3643 66.3381 27.365C66.3381 26.3658 65.5281 25.5558 64.5289 25.5558C63.5296 25.5558 62.7196 26.3658 62.7196 27.365C62.7196 28.3643 63.5296 29.1743 64.5289 29.1743Z" fill="#3F3D56"/>
<path d="M53.0481 79.1715L71.4044 67.9951" stroke="#3F3D56" stroke-width="2" stroke-miterlimit="10"/>
<path d="M54.6788 79.7539L54.7451 79.4314L53.1561 79.1062L53.5965 77.545L53.2796 77.4558L52.7435 79.3573L54.6788 79.7539Z" fill="#3F3D56"/>
<path d="M71.1729 69.7112L70.856 69.622L71.2966 68.0611L69.7074 67.7356L69.7739 67.4132L71.7093 67.8099L71.1729 69.7112Z" fill="#3F3D56"/>
<path d="M62.2262 75.3926C63.2255 75.3926 64.0355 74.5826 64.0355 73.5833C64.0355 72.5841 63.2255 71.774 62.2262 71.774C61.227 71.774 60.417 72.5841 60.417 73.5833C60.417 74.5826 61.227 75.3926 62.2262 75.3926Z" fill="#3F3D56"/>
<path d="M29.9852 43.7584L29.9917 65.2494" stroke="#3F3D56" stroke-width="2" stroke-miterlimit="10"/>
<path d="M28.6403 44.8489L28.8812 45.0732L29.985 43.8847L31.0898 45.0725L31.3306 44.848L29.9849 43.4016L28.6403 44.8489Z" fill="#3F3D56"/>
<path d="M28.646 64.1599L28.887 63.9353L29.9914 65.1232L31.0956 63.9347L31.3366 64.159L29.9916 65.6061L28.646 64.1599Z" fill="#3F3D56"/>
<path d="M29.9885 56.3131C30.9877 56.3131 31.7977 55.5031 31.7977 54.5038C31.7977 53.5046 30.9877 52.6946 29.9885 52.6946C28.9892 52.6946 28.1792 53.5046 28.1792 54.5038C28.1792 55.5031 28.9892 56.3131 29.9885 56.3131Z" fill="#3F3D56"/>
<path d="M44.6706 0H14.7356V37.172H44.6706V0Z" fill="#3F3D56"/>
<path d="M27.8316 13.8383H21.038C20.5744 11.1582 20.5744 8.41838 21.038 5.73828H27.8316C27.0662 8.38404 27.0662 11.1925 27.8316 13.8383Z" fill="#FF6584"/>
<path d="M31.5747 17.9467H38.3683C38.8319 15.2666 38.8319 12.5268 38.3683 9.84668H31.5747C32.3401 12.4924 32.3401 15.3009 31.5747 17.9467Z" fill="#37B5E8"/>
<path d="M25.16 31.4339H31.9536C32.4172 28.7538 32.4172 26.014 31.9536 23.3339H25.16C25.9254 25.9796 25.9254 28.7881 25.16 31.4339Z" fill="#37B5E8"/>
<path d="M107.008 35.3628H77.0728V72.5348H107.008V35.3628Z" fill="#3F3D56"/>
<path d="M102.731 43.2577H81.3491V44.2446H102.731V43.2577Z" fill="#37B5E8"/>
<path d="M102.731 46.7118H81.3491V47.6987H102.731V46.7118Z" fill="#37B5E8"/>
<path d="M102.731 50.1658H81.3491V51.1526H102.731V50.1658Z" fill="#37B5E8"/>
<path d="M102.731 53.6199H81.3491V54.6067H102.731V53.6199Z" fill="#37B5E8"/>
<path d="M102.731 57.0739H81.3491V58.0607H102.731V57.0739Z" fill="#37B5E8"/>
<path d="M97.6325 60.6924H86.448V64.6399H97.6325V60.6924Z" fill="#37B5E8"/>
<path d="M47.3023 73.5216H17.3673V110.694H47.3023V73.5216Z" fill="#3F3D56"/>
<path d="M43.0746 94.2139H21.6925V95.2007H43.0746V94.2139Z" fill="#37B5E8"/>
<path d="M43.0746 97.668H21.6925V98.6548H43.0746V97.668Z" fill="#37B5E8"/>
<path d="M43.0746 101.122H21.6925V102.109H43.0746V101.122Z" fill="#37B5E8"/>
<path d="M43.0746 104.576H21.6925V105.563H43.0746V104.576Z" fill="#37B5E8"/>
<path opacity="0.3" d="M28.2427 86.7524H21.4491C20.9855 84.0723 20.9855 81.3326 21.4491 78.6525H28.2427C27.4773 81.2982 27.4773 84.1067 28.2427 86.7524Z" fill="#37B5E8"/>
<path opacity="0.3" d="M43.568 79.411H31.0677V80.2334H43.568V79.411Z" fill="#37B5E8"/>
<path opacity="0.3" d="M43.568 82.3716H31.0677V83.194H43.568V82.3716Z" fill="#37B5E8"/>
<path opacity="0.3" d="M43.568 85.332H31.0677V86.1544H43.568V85.332Z" fill="#37B5E8"/>
<path opacity="0.3" d="M43.568 88.2927H31.0677V89.1151H43.568V88.2927Z" fill="#37B5E8"/>
</svg>
