<svg xmlns="http://www.w3.org/2000/svg" xmlns:xlink="http://www.w3.org/1999/xlink" viewBox="0 0 1920 1080"><defs><style>.cls-1{fill:none;}.cls-2{clip-path:url(#clip-path);}.cls-3{clip-path:url(#clip-path-2);}.cls-4{fill:#f7f7f7;}.cls-5{fill:#ed2290;}.cls-6{fill:#4cb85d;}.cls-7{fill:#3bb4e8;}.cls-8{fill:#774a9e;}</style><clipPath id="clip-path" transform="translate(-740.18 -325.88)"><rect class="cls-1" x="740.18" y="326.38" width="1920" height="1153.68"/></clipPath><clipPath id="clip-path-2" transform="translate(-740.18 -325.88)"><ellipse class="cls-1" cx="1738.44" cy="698.7" rx="1738.44" ry="698.7"/></clipPath></defs><title>cindy hero</title><g id="Layer_2" data-name="Layer 2"><g id="Layer_1-2" data-name="Layer 1"><g class="cls-2"><g class="cls-3"><rect class="cls-4" width="1920" height="1080"/><path class="cls-5" d="M1745.1,385.84c-3.44,2.53-5.9,4-8,6-4.54,4.12-10.34,7.7-13,12.85-5.42,10.35-.28,20.41,12.29,27.42,9.24,5.15,8.79,6.26.92,12.53-6,4.74-10.62,11.31-15,17.68-.87,1.28,2,5.63,4,7.89.46.53,5.83-1.43,6.06-2.75,1.4-8,7.44-11.09,13.61-14.05,11.63-5.57,11.78-21.57.59-29.12-17.85-12.07-17.66-12.53.11-24.4,11.57-7.72,10.92-21-.76-28.56-5-3.23-8.62-8.41-13.1-12.45-1.86-1.68-4.31-2.71-6.49-4-1.43,2.55-4.69,6.1-3.94,7.48a70,70,0,0,0,10.75,14.45C1736.21,380,1740.39,382.34,1745.1,385.84Z" transform="translate(-740.18 -325.88)"/><path class="cls-5" d="M2298.24,1154.79c-4.45,2.81-7.59,4.87-10.8,6.82-7.05,4.26-14.16,8.58-12.44,18.51.37,2.17,2.13,5.32,3.79,5.7s6-1.82,6-3c.36-8.8,7.72-10.46,13.26-13.88,5.71-3.52,10.75-8.22,9-15-1.34-5.16-5.64-9.72-9.22-14.06-1.56-1.88-4.72-2.38-7-3.76-7.57-4.57-7.5-11.61.14-16.18,1.52-.91,3.24-1.48,4.81-2.3,6.37-3.31,11.49-7.55,11.63-15.54s-4.7-12.29-11-15.94c-4.86-2.81-11.28-4.3-11.35-12.18,0-1.22-4.4-2.93-6.92-3.3-.84-.12-3,3.15-3.17,5-.8,7.94,2.93,13.53,9.84,17.35,4.24,2.36,8.24,5.16,13,8.18-8.2,9.63-23.13,10.14-23.45,26.23C2274.07,1144.13,2288.79,1145.36,2298.24,1154.79Z" transform="translate(-740.18 -325.88)"/><path class="cls-6" d="M891.42,731.16c-3.22-5.39-5.7-10.08-8.7-14.42-4-5.75-9.35-9.49-16.7-8-1.77.35-3.88,2.63-4.41,4.44-.43,1.5,1.25,5.23,1.95,5.22,10.41-.15,11.39,9.44,15.69,15.21,7,9.43,16.44,10.7,24.54,2,3.59-3.86,6.14-8.67,9.46-12.8,4.27-5.3,8.63-4.6,12.57.52a68.84,68.84,0,0,1,4,5.89c10,16.3,22.25,16,32.07-.27,2.45-4.06,7.74-6.33,11.41-9.75,1.71-1.59,3.88-4.11,3.66-5.95s-3.13-4.28-5.09-4.52c-9-1.11-14.08,4.56-18.4,11.52-2.38,3.83-5.5,7.21-8.64,11.25-8.21-10-10.57-23.66-26.32-23.19C903.44,708.73,901.52,723.47,891.42,731.16Z" transform="translate(-740.18 -325.88)"/><path class="cls-5" d="M2017,1339.88c-2.51-3.79-4.87-7-6.84-10.39-4.38-7.56-9.34-14.21-19.46-12.39-1.87.34-4.45,2.18-4.85,3.78s1.3,5.38,2.43,5.53c9.26,1.23,11.34,9,15.36,15.33,6.93,11,19.56,10.56,26.83-.46,2-3,3.54-6.15,5.5-9.1,4-6.06,11.59-6.06,15.48.1,1.73,2.73,2.57,6,4.24,8.79,5,8.38,12.88,10.6,20.91,5.23,3.9-2.61,6.7-6.88,10-10.38,2.55-2.7,4.84-7.25,7.75-7.7,8.13-1.27,6.51-5.81,5.89-10.36-19.44-5.83-21,13.07-30.17,21.66-9.22-7.81-9.68-22.83-25.82-23C2027.73,1316.31,2026.13,1330.67,2017,1339.88Z" transform="translate(-740.18 -325.88)"/><path class="cls-5" d="M1410.17,356.89c-18-.06-33,13.84-34.44,29.41-1.68,18.33,10.28,34.95,26.81,37.69,5.23.87,11.27,3.68,12.45-4.23.26-1.76-5.31-5.7-8.67-6.45-11.09-2.44-20.32-12.59-19.75-23,.64-11.58,9.92-21.61,21.28-22.46,4.32-.32,8.68-.59,7.39-6.09C1414.66,359.28,1410.94,357.58,1410.17,356.89Z" transform="translate(-740.18 -325.88)"/><path class="cls-7" d="M935,616.49c.21-17.3-14.73-32.48-31.73-34.81-14.85-2-32.11,10.11-35.34,25.34-1,4.7-5.91,11.29,1.6,14,8.71,3.16,7.2-6,8.78-10.07,4.34-11.18,13-18.76,22.62-18.27,10.91.55,21.13,10.81,23.23,22.44.42,2.35,3.5,4.21,5.35,6.3Z" transform="translate(-740.18 -325.88)"/><path class="cls-7" d="M1833.33,1244.46c-19.57-.07-35.31,15.26-33.68,33.23.21,2.3,2.79,4.38,4.27,6.56a74.7,74.7,0,0,0,6.23-6c.61-.71,0-2.35.22-3.53,1.92-10.83,11.75-19.36,22.35-19.46s20.62,8.09,23,18.66c.52,2.3,1,4.82,2.38,6.64,1.18,1.6,4.26,3.72,5.16,3.22,2-1.16,4.75-3.88,4.61-5.78C1866.38,1257.59,1852.49,1245.26,1833.33,1244.46Z" transform="translate(-740.18 -325.88)"/><path class="cls-5" d="M829.82,1169.12c-1.59,2.09-4.45,4.91-6.05,8.31-1.06,2.24-.32,5.34-.39,8,2.94-.2,6.5.57,8.67-.82,3.29-2.1,5.62-5.71,9.58-10,2.53,3.22,4.28,6.83,7.16,8.65,2.29,1.46,6,.74,9,1-.35-2.92.11-6.3-1.24-8.64-1.86-3.22-5.09-5.64-8.65-9.37,3-2.58,6.18-4.31,7.76-7,1.4-2.36,1-5.77,1.44-8.72-3.16.24-6.92-.5-9.34,1-3.17,1.93-5.3,5.59-6.78,7.28-8.26-.42-9.54-15.88-18.25-7.21C814.56,1159.78,829.24,1161.23,829.82,1169.12Z" transform="translate(-740.18 -325.88)"/><path class="cls-8" d="M836.16,509.36c3.3-6.07,12.93-9,7.34-20.16L829,498.36c-7.08-2.24-16.64-6.89-17.78-5.35-7,9.46,4.63,11.56,9.38,17.82-3.14,2.75-6.84,5.14-9.28,8.46-1.38,1.89-.68,5.3-.92,8,2.94,0,6.64,1,8.65-.35,3.34-2.31,5.61-6.18,9.14-10.36,3.15,3.73,4.83,7.34,7.56,8.51,3,1.3,7,.35,10.49.38-.86-2.76-1.2-5.86-2.72-8.19C841.64,514.39,838.77,512.09,836.16,509.36Z" transform="translate(-740.18 -325.88)"/><path class="cls-8" d="M2358.16,1314.94c-1.85,2.63-4.39,5.31-5.75,8.5-1,2.43-.58,5.5-.78,8.28,3.47-.73,7.38-.71,10.28-2.42,2.7-1.58,4.34-5,6.85-8.12,3.23,3.48,5.28,6.87,8.28,8.54,2.55,1.41,6.2.83,9.37,1.13-.37-3,.16-6.5-1.31-8.72-2.09-3.15-5.65-5.34-9.76-9,3.4-2.74,7-4.32,8.25-7,1.35-3,.49-7,.59-10.49-2.75.79-5.89,1-8.17,2.5-3.12,2-5.58,5.09-8.11,7.51-6.25-3.89-9.11-12.69-20-7.44C2351.29,1303.8,2354.52,1309,2358.16,1314.94Z" transform="translate(-740.18 -325.88)"/><path class="cls-5" d="M2564.71,567.27c1.09,1.89,2.11,5.59,4.53,7.38s6.07,1.37,9.19,1.93c-.11-3,.69-6.43-.56-8.82-1.75-3.35-5-5.91-8.36-9.57,4.22-3.06,8.12-5.1,10.84-8.19,1.3-1.48,1.37-5.79.14-7.25s-5.52-2.11-7.16-1.07c-3.43,2.19-6,5.72-8.72,8.49-4.09-3.79-6.39-6.74-9.39-8.45-2.43-1.38-5.71-1.27-8.61-1.82.09,3.19-.75,6.84.52,9.45,1.55,3.17,4.88,5.46,7.4,8.09-4.27,5.66-13.39,7.52-9.51,19Z" transform="translate(-740.18 -325.88)"/><path class="cls-7" d="M1132.89,624.68a16.81,16.81,0,0,0-16.81,17c-.09,8.62,8.27,16.87,17.13,16.91s17.25-8.19,17.26-16.76C1150.47,631.91,1142.94,624.54,1132.89,624.68Z" transform="translate(-740.18 -325.88)"/><path class="cls-8" d="M2503.33,752.27c-6.23,3.46-11.22,5.1-14.7,8.37-11.6,10.9-22.46,22.59-34,33.56-4.69,4.45-6.54,8.88-4.2,14.9C2459.5,808.61,2503.35,764.42,2503.33,752.27Z" transform="translate(-740.18 -325.88)"/><path class="cls-8" d="M2404.36,362.32c-10,0-20-.37-29.88.26-2.52.16-4.84,3.48-7.25,5.35,2.24,1.75,4.44,5,6.71,5q31.26.58,62.52,0c2.29-.05,4.52-3.22,6.78-4.93-2.39-1.9-4.69-5.28-7.18-5.43C2425.53,362,2414.94,362.32,2404.36,362.32Z" transform="translate(-740.18 -325.88)"/><path class="cls-8" d="M836.56,822.63c9.94,0,19.91.44,29.8-.27,2.84-.2,5.44-3.7,8.16-5.69-2.65-1.62-5.26-4.6-7.94-4.66q-29.8-.59-59.64,0c-2.82,0-5.6,2.69-8.39,4.13,3,2.17,5.92,5.94,9.11,6.22C817.23,823.17,826.92,822.64,836.56,822.63Z" transform="translate(-740.18 -325.88)"/><path class="cls-5" d="M1929.48,509.13c-10.27,0-20.56-.31-30.8.23-2.35.13-4.55,3.18-6.82,4.89,2.07,1.91,4.11,5.42,6.22,5.46q30.8.63,61.61,0c2.15,0,4.24-3.47,6.36-5.33-2.22-1.75-4.37-4.89-6.68-5C1949.43,508.81,1939.44,509.13,1929.48,509.13Z" transform="translate(-740.18 -325.88)"/><path class="cls-7" d="M1152.3,407.64c-3.64,15.18-6.77,28.92-10.27,42.57-2.85,11.09-6.2,22.06-9.23,33.11-2.42,8.77-6.92,10.15-14,3.54-8.36-7.83-16.26-16.14-24.37-24.24s-16.26-16.15-24.31-24.31c-5.08-5.15-3.14-10.48,2.43-12.09,23.2-6.7,46.65-12.52,70-18.5C1144.85,407.15,1147.35,407.64,1152.3,407.64Zm-28.63,66.6,14.14-54.07-53.92,14.66Z" transform="translate(-740.18 -325.88)"/><path class="cls-6" d="M1297.21,1231c-2.88,10-5.45,18.45-7.72,27-3.88,14.55-7.17,29.27-11.45,43.7-3,10.13-6.67,10.65-14.65,2.92s-15.81-15.74-23.7-23.62c-7.67-7.68-15.45-15.25-23-23.06-7.19-7.45-6.11-10.67,3.85-13.39,20.45-5.57,40.84-11.32,61.3-16.83,3.11-.84,6.59-1.46,9.66-.91C1293.74,1227.19,1295.57,1229.71,1297.21,1231Zm-14.13,7.86L1230.91,1253l38.08,38.24Z" transform="translate(-740.18 -325.88)"/><path class="cls-7" d="M2291,469.24c0-11.15-.09-22.3,0-33.44.08-8.4,3.25-10.48,10.4-6.47q30.49,17.12,60.76,34.66c6.79,3.92,6.74,9-.14,13.1q-30,18-60.25,35.59c-6.88,4-10.52,1.87-10.71-6.39C2290.73,493.94,2291,481.59,2291,469.24Zm11.3,29.67,47.83-28-47.83-27.71Z" transform="translate(-740.18 -325.88)"/><path class="cls-6" d="M2557.17,1202c8.75,0,17.5,0,26.25,0,6,0,8.73,2.91,8.71,8.84-.05,16.58,0,33.16,0,49.74,0,7-3.71,10.28-10.59,10.27q-24.87,0-49.74,0c-5.53,0-8.73-1.86-8.61-8.38q.51-26.22,0-52.47c-.13-6.66,2.7-8.3,8.68-8.06C2540.27,1202.21,2548.73,1202,2557.17,1202Zm23.67,11.48h-46v46h46Z" transform="translate(-740.18 -325.88)"/><path class="cls-6" d="M1243.59,502.93c0-11.47-.1-22.95,0-34.42.09-7.79,4.39-10.46,10.94-6.75,19.56,11.07,39.11,22.17,58.53,33.5,9,5.28,8.78,10.73-.4,16q-28.87,16.57-57.82,33.06c-6.63,3.78-11.14,1.42-11.24-6C1243.47,526.49,1243.59,514.71,1243.59,502.93Zm11.05-27.82v55.95l48.41-27.9Z" transform="translate(-740.18 -325.88)"/><path class="cls-7" d="M1933.55,391.27c0-9,.2-18.07-.08-27.1-.16-5.53,2.11-7.42,7.49-7.36q26.2.3,52.4,0c5.59-.07,7.34,2.24,7.28,7.56-.19,17.76-.25,35.52,0,53.27.09,5.4-2.22,7.94-7.07,8q-26.64.25-53.27,0c-4.91-.05-7.12-2.87-6.9-8.15C1933.82,408.75,1933.55,400,1933.55,391.27Zm11.26,23H1989v-46h-44.21Z" transform="translate(-740.18 -325.88)"/><path class="cls-5" d="M1054,1090.35c0-9,.2-18.08-.07-27.1-.17-5.53,2.1-7.42,7.49-7.36q26.19.3,52.39,0c5.59-.07,7.35,2.24,7.29,7.56-.19,17.75-.26,35.51,0,53.27.09,5.4-2.22,7.94-7.08,8q-26.62.26-53.27,0c-4.91-.06-7.12-2.87-6.89-8.15C1054.27,1107.82,1054,1099.08,1054,1090.35Zm11.27,23h44.2v-46h-44.2Z" transform="translate(-740.18 -325.88)"/><path class="cls-5" d="M2366.44,592.27c9,1,17.94,2.21,26.95,2.76,6,.36,7.83,3.47,7.31,8.65q-2.57,25.61-5.43,51.18c-.57,5.11-2.85,7.81-8.87,7-17.61-2.2-35.29-4-53-5.67-5.33-.51-7.37-2.55-6.72-8.07q3.09-26,5.54-52.1c.51-5.4,2.68-7.39,8.14-6.64C2349,590.63,2357.75,591.35,2366.44,592.27Zm-23.1,8.88-4.67,44,45.79,4.87,4.66-44Z" transform="translate(-740.18 -325.88)"/><path class="cls-7" d="M1509.73,520c-17.09,2-34.66-16.43-34.44-34.41.23-18.37,16.44-34.59,34.87-34.43s34.31,15.24,34.2,32.41C1544.23,505.83,1530.78,520,1509.73,520Zm-.2-58c-11.06.14-23.82,13.32-23.31,24.06.52,10.95,12.74,23,23.4,23.08,12.84.1,23.84-11.37,23.67-24.7C1533.15,474.13,1520.15,461.84,1509.53,462Z" transform="translate(-740.18 -325.88)"/><path class="cls-7" d="M996.21,946.09c-20.52,1.39-35.15-15.49-35-34.14.14-20.52,13.62-34.47,34.24-34.26,19.5.19,33.82,12.31,34.27,32C1030.21,931.94,1016.65,946.08,996.21,946.09Zm22.34-33.58c1.19-12.56-10.65-22.51-21.8-24.13-11.74-1.7-25.68,11.73-24.79,24.08.73,10.2,9.92,22.62,23.43,22.81C1008,935.45,1018.15,925.64,1018.55,912.51Z" transform="translate(-740.18 -325.88)"/><path class="cls-7" d="M1567.5,1288c19.53-2.24,33.32,18.29,33.88,30.92,1.09,24.54-18.07,38.24-34.33,37.55-20.72-.87-34.53-13.29-34.51-34.24C1532.55,1304,1544.8,1287.09,1567.5,1288Zm22.58,33.66c-.14-13.09-10.81-22.67-24.39-22.93-12.12-.24-22.09,12.94-22.39,23.34-.35,11.72,12.53,24.7,23.34,23.49C1579.43,1344.09,1589.72,1335.86,1590.08,1321.62Z" transform="translate(-740.18 -325.88)"/><path class="cls-6" d="M2424.67,1099.94c-20,2.5-35-16.17-34.89-33.08.15-20.49,13.83-33.16,34.91-34.17,21.61-1,33.94,17.8,34.1,34.09C2459,1083.4,2444,1101.86,2424.67,1099.94Zm-.33-56.18c-12.86-2.46-23.33,10.64-23.41,22.41-.08,12.42,9.2,22.67,23.15,23,10.9.27,23.82-8.49,23.38-23.74C2447.14,1053.81,2436.61,1041.34,2424.34,1043.76Z" transform="translate(-740.18 -325.88)"/><path class="cls-8" d="M976.82,1264.45c.46,9-.36,8.75-10.58,7.89-17.13-1.46-28-16.84-28.57-32.31-.49-13.87,9.31-29.89,25.08-34a27.46,27.46,0,0,1,6.11-.94c3.89-.11,8.94-.66,8.08,5.21-.32,2.16-4.3,4.84-7,5.41-11.54,2.45-18.25,9.75-20.82,20.57-2.15,9.07,2.6,16.57,9.7,21.36C964,1261.07,970.67,1262.21,976.82,1264.45Z" transform="translate(-740.18 -325.88)"/><path class="cls-8" d="M967.22,416.62c1.69-3.41,2.68-7.5,5.2-10.12q18.72-19.5,38.23-38.24c2.63-2.53,6.7-3.57,10.1-5.29l2.92,2.49c-1.64,3.59-2.48,7.94-5,10.63q-18.68,19.56-38.21,38.26c-2.64,2.53-6.71,3.57-10.12,5.3Z" transform="translate(-740.18 -325.88)"/><path class="cls-6" d="M2497.74,974.12a16.83,16.83,0,0,1-17.62,17.07c-8.15-.28-15-8.33-15-17.58.05-10.69,5.47-16.68,15.23-16.81C2490.3,956.67,2497.78,964.13,2497.74,974.12Zm-16.65-7.55c-2.25,3.2-4.85,5.27-4.72,7.15.15,2.15,2.74,4.13,4.27,6.18,2.06-1.89,5.44-3.56,5.79-5.71C2486.72,972.32,2483.58,969.9,2481.09,966.57Z" transform="translate(-740.18 -325.88)"/><path class="cls-8" d="M2385.31,362.32c10.58,0,21.17-.35,31.7.26,2.49.15,4.79,3.53,7.18,5.43-2.26,1.71-4.49,4.88-6.79,4.93q-31.24.57-62.51,0c-2.27,0-4.48-3.25-6.71-5,2.41-1.87,4.73-5.19,7.25-5.35C2365.36,362,2375.35,362.32,2385.31,362.32Z" transform="translate(-740.18 -325.88)"/><path class="cls-8" d="M843.63,1014c-8.72-4.1-17.71-7.75-26-12.58-2.77-1.62-3.78-6.26-5.59-9.52,3.14-.11,6.78-1.31,9.35-.15q27.21,12.21,53.94,25.45c2.39,1.19,3.49,5,5.19,7.59-3.3.65-7.15,2.7-9.81,1.67C861.46,1022.84,852.62,1018.19,843.63,1014Z" transform="translate(-740.18 -325.88)"/><path class="cls-6" d="M2152.06,428.84c-8.66-3.5-17.27-7.12-26-10.45-4.67-1.78-8.58-4.42-6.48-9.62.55-1.36,6.8-1.72,9.7-.62q27.43,10.47,54.45,22c2.48,1.06,3.83,4.77,5.71,7.25-3.25.86-7,3.18-9.66,2.31C2170.36,436.7,2161.28,432.56,2152.06,428.84Z" transform="translate(-740.18 -325.88)"/><path class="cls-5" d="M1910.43,509.13c10,0,20-.32,29.89.24,2.31.13,4.46,3.27,6.68,5-2.12,1.86-4.21,5.29-6.36,5.33q-30.8.62-61.61,0c-2.11,0-4.15-3.55-6.22-5.46,2.27-1.71,4.47-4.76,6.82-4.89C1889.87,508.82,1900.16,509.13,1910.43,509.13Z" transform="translate(-740.18 -325.88)"/></g></g></g></g></svg>