<?xml version="1.0" encoding="utf-8"?>
<!-- Generator: Adobe Illustrator 19.2.0, SVG Export Plug-In . SVG Version: 6.00 Build 0)  -->
<svg version="1.1" id="Layer_1" xmlns="http://www.w3.org/2000/svg" xmlns:xlink="http://www.w3.org/1999/xlink" x="0px" y="0px"
	 viewBox="0 0 1286 713" style="enable-background:new 0 0 1286 713;" xml:space="preserve">
<style type="text/css">
	.st0{fill:#00AEEF;}
	.st1{fill:#EC008C;}
</style>
<g>
	<path class="st0" d="M569,563.3c-24,25.2-52,44.7-84,58.5s-66.4,20.7-103.3,20.7c-41.2,0-78-7.5-110.6-22.5
		c-32.7-15-60.5-35.5-83.6-61.3c-23-25.9-40.7-56-52.9-90.5c-12.4-34.4-18.5-71.4-18.5-110.6c0-41.9,6.8-80.3,20.4-115.3
		c13.4-35.1,32.2-65.2,56.2-90.5c24-25.2,52.2-44.7,84.4-58.5c32.3-13.8,67.2-20.7,104.7-20.7c37,0,71.4,6.9,103.3,20.7
		c32,13.8,60,33.3,84,58.5c12.6,13.2,23.7,27.9,33.3,43.7c11.3-22.7,24.7-43.3,40.1-61.9c-7.5-9.2-15.5-17.8-24-26
		c-31.1-30.2-67.1-53.6-108-70.2c-41-16.6-83.8-24.8-128.8-24.8c-45.4,0-88.8,8.2-130,24.8c-41.3,16.6-77.4,40-108.4,70.2
		S87.6,174,69.5,216.4c-18.2,42.5-27.3,89.5-27.3,141.3c0,49.2,8.5,94.9,25.3,136.9c17,42.2,40.3,78.6,70.2,109.4
		c29.8,30.8,65.5,54.9,107.1,72.3c41.4,17.6,87.1,26.3,136.9,26.3c45,0,87.8-8.2,128.8-24.8c40.8-16.6,76.8-40,108-70.2
		c8.2-8,8.7-7.6,16-16.5c-15.3-18.9-28-38-39.1-60.5C585.7,546.2,581.5,550.1,569,563.3z"/>
	<path class="st0" d="M719.4,357.6c0,51.6-9.1,98.6-27.1,141.1c-3.2,7.3-0.6,2.6-4.2,9.5c-9.7-16-14.2-30-20.7-48.6
		c-7.3-20.1-15.6-61.8-18.5-83.6c-1.1-16.9-3.8-34-3.9-40.4c-0.3-16.5-0.3-10.4-2.4-25.8c3.2-23.9,8.8-46.3,17.1-67.6
		c6.4-16.8,14.1-32.3,22.9-46.9c3.5,6.8,6.8,13.8,9.8,21C710.3,258.8,719.4,305.8,719.4,357.6z"/>
	<path class="st1" d="M1215.4,216.3c-18.2-42.4-42.8-78.6-73.9-108.8c-31-30.2-67-53.6-107.8-70.2c-41-16.6-83.8-24.8-128.8-24.8
		c-45.4,0-88.8,8.2-130,24.8c-41.3,16.6-77.4,40-108.4,70.2c-8.5,8.2-9.2,8.3-16.7,17.5c15.3,18.7,28.7,35.4,40,57.9
		c9.7-15.9,13.6-18,26-31.2c24-25.2,52.1-44.7,84.4-58.5c32.3-13.8,67.2-20.7,104.7-20.7c37,0,71.4,6.9,103.3,20.7
		c32,13.8,60,33.3,84,58.5c24,25.3,42.8,55.4,56.3,90.5c13.4,35,20.2,73.4,20.2,115.3c0,42.4-6.8,80.9-20.2,115.7
		c-13.6,34.8-32.3,64.7-56.3,90c-24,25.2-52,44.7-84,58.5s-66.4,20.7-103.3,20.7c-41.2,0-78-7.5-110.7-22.5
		c-32.6-15-60.3-35.5-83.5-61.3c-10.7-12-20.1-24.8-28.5-38.7c-11.4,22.7-24.8,43.4-40.5,62.2c6.1,7.5,12.5,14.8,19.1,21.7
		c29.8,30.8,65.5,54.9,107,72.3c41.6,17.6,87.2,26.3,137,26.3c45,0,87.8-8.2,128.8-24.8c40.8-16.6,76.8-40,107.8-70.2
		c31.1-30.2,55.7-66.4,73.9-108.8c18.1-42.5,27.1-89.5,27.1-141.1C1242.6,305.8,1233.5,258.8,1215.4,216.3z"/>
	<path class="st1" d="M682.2,520c-11.4,22.7-24.8,43.4-40.5,62.2c-15.3-18.9-28.5-39.6-39.5-62.2c9-14.5,16.6-30,23.1-46.8
		c8.2-21.3,13.9-44,17.1-68.1c2.9,21.8,8,42.9,15.3,63C664.3,486.7,672.5,504,682.2,520z"/>
	<path class="st1" d="M639.2,357.6c1.2,16.2,1.1,32.2,3.3,47.6c-3.2,24.1-8.8,46.8-17.1,68.1c-6.5,16.7-14.2,32.2-23.1,46.8
		c-4.1-8.2-8-16.8-11.5-25.6c-16.8-42-25.3-87.7-25.3-136.9c0-51.7,9.1-98.7,27.3-141.3c3-7.1-0.8,0.7,2.5-6.1
		c9,14.4,22.6,49.2,29.1,65.9c8.1,21.3,10.8,39.1,14,63C638.2,351.7,638.7,351.1,639.2,357.6z"/>
	<path class="st0" d="M682.4,195.3c-8.8,14.5-16.5,30-22.9,46.9c-8.2,21.3-13.9,43.7-17.1,67.6c-3.2-23.9-9-46.3-17.1-67.6
		c-6.4-16.7-14.1-32.3-23-46.8c11.3-22.7,24.7-43.3,40.1-61.9C657.7,152.2,671.2,172.8,682.4,195.3z"/>
	<g>
		<path d="M958.4,387c28.2-3,52-12.6,71-28.6c19.1-16,28.6-41.2,28.6-75.6c0-38.8-11.6-66.8-35-84S964.8,173,918.8,173H773.9v381.9
			h62.8V391.6h59l98.7,163.3h71L958.4,387z M906.7,338.2h-70V226.5h75.6c9.2,0,18.8,0.5,28.6,1.5c9.8,0.8,18.8,3.2,26.8,6.9
			c8,3.6,14.7,8.8,19.9,15.6c5.2,6.8,7.9,16,7.9,27.7c0,14.1-2.5,25.1-7.4,32.7c-5,7.8-11.4,13.7-19.4,17.9c-8,4.4-17.4,7-28.2,7.9
			C929.7,337.7,918.4,338.2,906.7,338.2z"/>
	</g>
	<path d="M480.3,424c-3,24-13.6,43.6-31.4,59s-40.6,23.1-68.2,23.1c-18.5,0-35.3-4-50.3-12.1c-15.1-7.9-28-18.7-38.8-32.2
		c-10.8-13.6-18.9-29.2-24.5-47c-5.6-17.9-8.2-37-8.2-57.2c0-19.1,2.5-37.1,7.8-54c5.2-17,13-31.5,23.1-43.9
		c10.1-12.2,22.5-22.1,37.3-29.4c14.8-7.4,32-11.1,51.6-11.1c26.5,0,48.8,7.4,67,22.2c18.1,14.8,29.6,33.8,34.5,57.2H543
		c-6.2-45.4-24.5-80.1-54.9-103.8c-30.4-23.6-66.9-35.5-109.4-35.5c-30,0-57.2,5.2-81.2,15.8c-24,10.4-44.2,24.5-60.8,41.9
		c-16.6,17.6-29.4,38.5-38.3,62.8c-9,24.4-13.4,50.3-13.4,78c0,29.4,4.6,56.9,13.9,82.5c9.2,25.6,22.4,47.7,39.6,66.4
		c17.2,18.8,37.8,33.4,61.8,43.9c24,10.4,50.8,15.6,80.3,15.6c20.2,0,39.5-3.2,57.7-9.7c18.1-6.4,34.3-15.7,48.3-28.1
		c14.2-12.2,26.3-27.1,36.5-44.7s17.1-37.4,20.8-59.5h-63.6V424z"/>
</g>
</svg>
