<svg width="200" height="35" viewBox="0 0 200 35" fill="none" xmlns="http://www.w3.org/2000/svg">
<rect y="11" width="183.227" height="24" fill="#AEE8FF"/>
<path d="M31.5396 17.0796C31.4012 18.992 30.6932 20.4976 29.4155 21.5962C28.146 22.6948 26.4696 23.2441 24.3862 23.2441C22.1076 23.2441 20.3132 22.4792 19.0029 20.9492C17.7008 19.4111 17.0498 17.3034 17.0498 14.626V13.5396C17.0498 11.8306 17.3509 10.325 17.9531 9.02295C18.5553 7.72087 19.4139 6.72396 20.5288 6.03223C21.6519 5.33236 22.9539 4.98242 24.4351 4.98242C26.4858 4.98242 28.1379 5.53174 29.3911 6.63037C30.6444 7.729 31.3687 9.27116 31.564 11.2568H27.9019C27.8123 10.1094 27.4909 9.2793 26.9375 8.7666C26.3923 8.24577 25.5581 7.98535 24.4351 7.98535C23.2144 7.98535 22.2988 8.4248 21.6885 9.30371C21.0863 10.1745 20.777 11.5295 20.7607 13.3687V14.7114C20.7607 16.632 21.0496 18.0358 21.6274 18.9229C22.2134 19.8099 23.133 20.2534 24.3862 20.2534C25.5174 20.2534 26.3597 19.9971 26.9131 19.4844C27.4746 18.9635 27.7961 18.1619 27.8774 17.0796H31.5396ZM48.4097 23H44.7476V15.3828H37.6064V23H33.9443V5.22656H37.6064V12.4287H44.7476V5.22656H48.4097V23ZM61.874 19.3379H55.4531L54.2324 23H50.3384L56.9546 5.22656H60.3481L67.001 23H63.1069L61.874 19.3379ZM56.4419 16.3716H60.8853L58.6514 9.71875L56.4419 16.3716ZM72.3232 20.0581H80.0991V23H68.6611V5.22656H72.3232V20.0581ZM85.873 20.0581H93.6489V23H82.2109V5.22656H85.873V20.0581ZM106.454 15.2974H99.4229V20.0581H107.675V23H95.7607V5.22656H107.65V8.19287H99.4229V12.4287H106.454V15.2974ZM124.276 23H120.614L113.485 11.3057V23H109.823V5.22656H113.485L120.626 16.9453V5.22656H124.276V23ZM141.537 20.7539C140.878 21.5433 139.946 22.1577 138.742 22.5972C137.537 23.0285 136.203 23.2441 134.738 23.2441C133.2 23.2441 131.849 22.9105 130.685 22.2432C129.529 21.5677 128.634 20.5911 128 19.3135C127.373 18.0358 127.051 16.5343 127.035 14.8091V13.6006C127.035 11.8265 127.332 10.2925 127.926 8.99854C128.528 7.69645 129.391 6.70361 130.514 6.02002C131.645 5.32829 132.968 4.98242 134.481 4.98242C136.589 4.98242 138.237 5.48698 139.425 6.49609C140.613 7.49707 141.317 8.95785 141.537 10.8784H137.973C137.81 9.86117 137.448 9.11654 136.886 8.64453C136.333 8.17253 135.568 7.93652 134.591 7.93652C133.346 7.93652 132.398 8.40446 131.747 9.34033C131.096 10.2762 130.766 11.6678 130.758 13.5151V14.6504C130.758 16.514 131.112 17.9219 131.82 18.874C132.528 19.8262 133.566 20.3022 134.933 20.3022C136.308 20.3022 137.289 20.0093 137.875 19.4233V16.3594H134.542V13.6616H141.537V20.7539ZM155.209 15.2974H148.178V20.0581H156.43V23H144.516V5.22656H156.405V8.19287H148.178V12.4287H155.209V15.2974ZM167.794 18.3369C167.794 17.6452 167.55 17.1162 167.062 16.75C166.574 16.3757 165.695 15.985 164.425 15.5781C163.156 15.1631 162.151 14.7562 161.41 14.3574C159.392 13.2669 158.383 11.798 158.383 9.95068C158.383 8.9904 158.651 8.1359 159.188 7.38721C159.734 6.63037 160.511 6.04036 161.52 5.61719C162.537 5.19401 163.677 4.98242 164.938 4.98242C166.208 4.98242 167.339 5.21436 168.332 5.67822C169.324 6.13395 170.093 6.78092 170.639 7.61914C171.192 8.45736 171.469 9.40951 171.469 10.4756H167.807C167.807 9.66178 167.55 9.03109 167.038 8.5835C166.525 8.12777 165.805 7.8999 164.877 7.8999C163.982 7.8999 163.286 8.09115 162.79 8.47363C162.293 8.84798 162.045 9.3444 162.045 9.96289C162.045 10.5407 162.334 11.0249 162.912 11.4155C163.498 11.8062 164.356 12.1724 165.487 12.5142C167.571 13.1408 169.088 13.918 170.041 14.8457C170.993 15.7734 171.469 16.929 171.469 18.3125C171.469 19.8506 170.887 21.0591 169.723 21.938C168.559 22.8088 166.993 23.2441 165.023 23.2441C163.656 23.2441 162.411 22.9959 161.288 22.4995C160.165 21.995 159.306 21.3073 158.712 20.4365C158.126 19.5658 157.833 18.5566 157.833 17.4092H161.508C161.508 19.3704 162.68 20.3511 165.023 20.3511C165.894 20.3511 166.574 20.1761 167.062 19.8262C167.55 19.4681 167.794 18.9717 167.794 18.3369Z" fill="black"/>
</svg>
