<svg width="1336" height="70" viewBox="0 0 1336 70" fill="none" xmlns="http://www.w3.org/2000/svg">
<rect y="24" width="686" height="31" fill="#AEE8FF"/>
<path d="M55.918 20.4629H42.8516V56H34.0625V20.4629H21.1719V13.3438H55.918V20.4629ZM52.9883 39.8574C52.9883 36.7129 53.5938 33.9102 54.8047 31.4492C56.0156 28.9883 57.7539 27.084 60.0195 25.7363C62.3047 24.3887 64.9512 23.7148 67.959 23.7148C72.2363 23.7148 75.7227 25.0234 78.418 27.6406C81.1328 30.2578 82.6465 33.8125 82.959 38.3047L83.0176 40.4727C83.0176 45.3359 81.6602 49.2422 78.9453 52.1914C76.2305 55.1211 72.5879 56.5859 68.0176 56.5859C63.4473 56.5859 59.7949 55.1211 57.0605 52.1914C54.3457 49.2617 52.9883 45.2773 52.9883 40.2383V39.8574ZM61.4551 40.4727C61.4551 43.4805 62.0215 45.7852 63.1543 47.3867C64.2871 48.9688 65.9082 49.7598 68.0176 49.7598C70.0684 49.7598 71.6699 48.9785 72.8223 47.416C73.9746 45.834 74.5508 43.3145 74.5508 39.8574C74.5508 36.9082 73.9746 34.623 72.8223 33.002C71.6699 31.3809 70.0488 30.5703 67.959 30.5703C65.8887 30.5703 64.2871 31.3809 63.1543 33.002C62.0215 34.6035 61.4551 37.0938 61.4551 40.4727ZM116.768 40.4434C116.768 45.3262 115.654 49.2422 113.428 52.1914C111.221 55.1211 108.232 56.5859 104.463 56.5859C101.26 56.5859 98.6719 55.4727 96.6992 53.2461V68.1875H88.2324V24.3008H96.084L96.377 27.4062C98.4277 24.9453 101.104 23.7148 104.404 23.7148C108.311 23.7148 111.348 25.1602 113.516 28.0508C115.684 30.9414 116.768 34.9258 116.768 40.0039V40.4434ZM108.301 39.8281C108.301 36.8789 107.773 34.6035 106.719 33.002C105.684 31.4004 104.17 30.5996 102.178 30.5996C99.5215 30.5996 97.6953 31.6152 96.6992 33.6465V46.625C97.7344 48.7148 99.5801 49.7598 102.236 49.7598C106.279 49.7598 108.301 46.4492 108.301 39.8281ZM137.891 35.0234L140.352 13.3438H164.258V20.4043H147.295L146.24 29.5742C148.252 28.5 150.391 27.9629 152.656 27.9629C156.719 27.9629 159.902 29.2227 162.207 31.7422C164.512 34.2617 165.664 37.7871 165.664 42.3184C165.664 45.0723 165.078 47.543 163.906 49.7305C162.754 51.8984 161.094 53.5879 158.926 54.7988C156.758 55.9902 154.199 56.5859 151.25 56.5859C148.672 56.5859 146.279 56.0684 144.072 55.0332C141.865 53.9785 140.117 52.5039 138.828 50.6094C137.559 48.7148 136.885 46.5566 136.807 44.1348H145.186C145.361 45.9121 145.977 47.2988 147.031 48.2949C148.105 49.2715 149.502 49.7598 151.221 49.7598C153.135 49.7598 154.609 49.0762 155.645 47.709C156.68 46.3223 157.197 44.3691 157.197 41.8496C157.197 39.4277 156.602 37.5723 155.41 36.2832C154.219 34.9941 152.529 34.3496 150.342 34.3496C148.33 34.3496 146.699 34.877 145.449 35.9316L144.629 36.6934L137.891 35.0234ZM220.42 41.791C220.088 46.3809 218.389 49.9941 215.322 52.6309C212.275 55.2676 208.252 56.5859 203.252 56.5859C197.783 56.5859 193.477 54.75 190.332 51.0781C187.207 47.3867 185.645 42.3281 185.645 35.9023V33.2949C185.645 29.1934 186.367 25.5801 187.812 22.4551C189.258 19.3301 191.318 16.9375 193.994 15.2773C196.689 13.5977 199.814 12.7578 203.369 12.7578C208.291 12.7578 212.256 14.0762 215.264 16.7129C218.271 19.3496 220.01 23.0508 220.479 27.8164H211.689C211.475 25.0625 210.703 23.0703 209.375 21.8398C208.066 20.5898 206.064 19.9648 203.369 19.9648C200.439 19.9648 198.242 21.0195 196.777 23.1289C195.332 25.2187 194.59 28.4707 194.551 32.8848V36.1074C194.551 40.7168 195.244 44.0859 196.631 46.2148C198.037 48.3438 200.244 49.4082 203.252 49.4082C205.967 49.4082 207.988 48.793 209.316 47.5625C210.664 46.3125 211.436 44.3887 211.631 41.791H220.42ZM234.57 56H226.074V11H234.57V56ZM250.508 56H242.012V24.3008H250.508V56ZM241.514 16.0977C241.514 14.8281 241.934 13.7832 242.773 12.9629C243.633 12.1426 244.795 11.7324 246.26 11.7324C247.705 11.7324 248.857 12.1426 249.717 12.9629C250.576 13.7832 251.006 14.8281 251.006 16.0977C251.006 17.3867 250.566 18.4414 249.688 19.2617C248.828 20.082 247.686 20.4922 246.26 20.4922C244.834 20.4922 243.682 20.082 242.803 19.2617C241.943 18.4414 241.514 17.3867 241.514 16.0977ZM259.824 56V30.5117H255.107V24.3008H259.824V21.6055C259.824 18.0508 260.84 15.2969 262.871 13.3438C264.922 11.3711 267.783 10.3848 271.455 10.3848C272.627 10.3848 274.062 10.5801 275.762 10.9707L275.674 17.5332C274.971 17.3574 274.111 17.2695 273.096 17.2695C269.912 17.2695 268.32 18.7637 268.32 21.752V24.3008H274.619V30.5117H268.32V56H259.824ZM281.328 56V30.5117H276.611V24.3008H281.328V21.6055C281.328 18.0508 282.344 15.2969 284.375 13.3438C286.426 11.3711 289.287 10.3848 292.959 10.3848C294.131 10.3848 295.566 10.5801 297.266 10.9707L297.178 17.5332C296.475 17.3574 295.615 17.2695 294.6 17.2695C291.416 17.2695 289.824 18.7637 289.824 21.752V24.3008H296.123V30.5117H289.824V56H281.328ZM310.654 16.5078V24.3008H316.074V30.5117H310.654V46.332C310.654 47.5039 310.879 48.3438 311.328 48.8516C311.777 49.3594 312.637 49.6133 313.906 49.6133C314.844 49.6133 315.674 49.5449 316.396 49.4082V55.8242C314.736 56.332 313.027 56.5859 311.27 56.5859C305.332 56.5859 302.305 53.5879 302.188 47.5918V30.5117H297.559V24.3008H302.188V16.5078H310.654ZM318.594 39.8574C318.594 36.7129 319.199 33.9102 320.41 31.4492C321.621 28.9883 323.359 27.084 325.625 25.7363C327.91 24.3887 330.557 23.7148 333.564 23.7148C337.842 23.7148 341.328 25.0234 344.023 27.6406C346.738 30.2578 348.252 33.8125 348.564 38.3047L348.623 40.4727C348.623 45.3359 347.266 49.2422 344.551 52.1914C341.836 55.1211 338.193 56.5859 333.623 56.5859C329.053 56.5859 325.4 55.1211 322.666 52.1914C319.951 49.2617 318.594 45.2773 318.594 40.2383V39.8574ZM327.061 40.4727C327.061 43.4805 327.627 45.7852 328.76 47.3867C329.893 48.9688 331.514 49.7598 333.623 49.7598C335.674 49.7598 337.275 48.9785 338.428 47.416C339.58 45.834 340.156 43.3145 340.156 39.8574C340.156 36.9082 339.58 34.623 338.428 33.002C337.275 31.3809 335.654 30.5703 333.564 30.5703C331.494 30.5703 329.893 31.3809 328.76 33.002C327.627 34.6035 327.061 37.0938 327.061 40.4727ZM361.631 24.3008L361.895 27.9629C364.16 25.1309 367.197 23.7148 371.006 23.7148C374.365 23.7148 376.865 24.7012 378.506 26.6738C380.146 28.6465 380.986 31.5957 381.025 35.5215V56H372.559V35.7266C372.559 33.9297 372.168 32.6309 371.387 31.8301C370.605 31.0098 369.307 30.5996 367.49 30.5996C365.107 30.5996 363.32 31.6152 362.129 33.6465V56H353.662V24.3008H361.631ZM425.088 44.8086C425.088 43.1484 424.502 41.8789 423.33 41C422.158 40.1016 420.049 39.1641 417.002 38.1875C413.955 37.1914 411.543 36.2148 409.766 35.2578C404.922 32.6406 402.5 29.1152 402.5 24.6816C402.5 22.377 403.145 20.3262 404.434 18.5293C405.742 16.7129 407.607 15.2969 410.029 14.2812C412.471 13.2656 415.205 12.7578 418.232 12.7578C421.279 12.7578 423.994 13.3145 426.377 14.4277C428.76 15.5215 430.605 17.0742 431.914 19.0859C433.242 21.0977 433.906 23.3828 433.906 25.9414H425.117C425.117 23.9883 424.502 22.4746 423.271 21.4004C422.041 20.3066 420.312 19.7598 418.086 19.7598C415.938 19.7598 414.268 20.2188 413.076 21.1367C411.885 22.0352 411.289 23.2266 411.289 24.7109C411.289 26.0977 411.982 27.2598 413.369 28.1973C414.775 29.1348 416.836 30.0137 419.551 30.834C424.551 32.3379 428.193 34.2031 430.479 36.4297C432.764 38.6562 433.906 41.4297 433.906 44.75C433.906 48.4414 432.51 51.3418 429.717 53.4512C426.924 55.541 423.164 56.5859 418.438 56.5859C415.156 56.5859 412.168 55.9902 409.473 54.7988C406.777 53.5879 404.717 51.9375 403.291 49.8477C401.885 47.7578 401.182 45.3359 401.182 42.582H410C410 47.2891 412.812 49.6426 418.438 49.6426C420.527 49.6426 422.158 49.2227 423.33 48.3828C424.502 47.5234 425.088 46.332 425.088 44.8086ZM449.463 16.5078V24.3008H454.883V30.5117H449.463V46.332C449.463 47.5039 449.688 48.3438 450.137 48.8516C450.586 49.3594 451.445 49.6133 452.715 49.6133C453.652 49.6133 454.482 49.5449 455.205 49.4082V55.8242C453.545 56.332 451.836 56.5859 450.078 56.5859C444.141 56.5859 441.113 53.5879 440.996 47.5918V30.5117H436.367V24.3008H440.996V16.5078H449.463ZM477.412 32.2402C476.26 32.084 475.244 32.0059 474.365 32.0059C471.162 32.0059 469.062 33.0898 468.066 35.2578V56H459.6V24.3008H467.598L467.832 28.0801C469.531 25.1699 471.885 23.7148 474.893 23.7148C475.83 23.7148 476.709 23.8418 477.529 24.0957L477.412 32.2402ZM495.518 56.5859C490.869 56.5859 487.08 55.1602 484.15 52.3086C481.24 49.457 479.785 45.6582 479.785 40.9121V40.0918C479.785 36.9082 480.4 34.0664 481.631 31.5664C482.861 29.0469 484.6 27.1133 486.846 25.7656C489.111 24.3984 491.689 23.7148 494.58 23.7148C498.916 23.7148 502.324 25.082 504.805 27.8164C507.305 30.5508 508.555 34.4277 508.555 39.4473V42.9043H488.369C488.643 44.9746 489.463 46.6348 490.83 47.8848C492.217 49.1348 493.965 49.7598 496.074 49.7598C499.336 49.7598 501.885 48.5781 503.721 46.2148L507.881 50.873C506.611 52.6699 504.893 54.0762 502.725 55.0918C500.557 56.0879 498.154 56.5859 495.518 56.5859ZM494.551 30.5703C492.871 30.5703 491.504 31.1367 490.449 32.2695C489.414 33.4023 488.75 35.0234 488.457 37.1328H500.234V36.459C500.195 34.584 499.688 33.1387 498.711 32.123C497.734 31.0879 496.348 30.5703 494.551 30.5703ZM521.182 24.3008L521.445 27.9629C523.711 25.1309 526.748 23.7148 530.557 23.7148C533.916 23.7148 536.416 24.7012 538.057 26.6738C539.697 28.6465 540.537 31.5957 540.576 35.5215V56H532.109V35.7266C532.109 33.9297 531.719 32.6309 530.938 31.8301C530.156 31.0098 528.857 30.5996 527.041 30.5996C524.658 30.5996 522.871 31.6152 521.68 33.6465V56H513.213V24.3008H521.182ZM545.791 39.916C545.791 35.0527 546.943 31.1367 549.248 28.168C551.572 25.1992 554.697 23.7148 558.623 23.7148C562.1 23.7148 564.805 24.9063 566.738 27.2891L567.09 24.3008H574.766V54.9453C574.766 57.7188 574.131 60.1309 572.861 62.1816C571.611 64.2324 569.844 65.7949 567.559 66.8691C565.273 67.9434 562.598 68.4805 559.531 68.4805C557.207 68.4805 554.941 68.0117 552.734 67.0742C550.527 66.1562 548.857 64.9648 547.725 63.5L551.475 58.3438C553.584 60.707 556.143 61.8887 559.15 61.8887C561.396 61.8887 563.145 61.2832 564.395 60.0723C565.645 58.8809 566.27 57.1816 566.27 54.9746V53.2754C564.316 55.4824 561.748 56.5859 558.564 56.5859C554.756 56.5859 551.67 55.1016 549.307 52.1328C546.963 49.1445 545.791 45.1895 545.791 40.2676V39.916ZM554.258 40.5312C554.258 43.4023 554.834 45.6582 555.986 47.2988C557.139 48.9199 558.721 49.7305 560.732 49.7305C563.311 49.7305 565.156 48.7637 566.27 46.8301V33.5C565.137 31.5664 563.311 30.5996 560.791 30.5996C558.76 30.5996 557.158 31.4297 555.986 33.0898C554.834 34.75 554.258 37.2305 554.258 40.5312ZM591.436 16.5078V24.3008H596.855V30.5117H591.436V46.332C591.436 47.5039 591.66 48.3438 592.109 48.8516C592.559 49.3594 593.418 49.6133 594.688 49.6133C595.625 49.6133 596.455 49.5449 597.178 49.4082V55.8242C595.518 56.332 593.809 56.5859 592.051 56.5859C586.113 56.5859 583.086 53.5879 582.969 47.5918V30.5117H578.34V24.3008H582.969V16.5078H591.436ZM609.834 27.7578C612.08 25.0625 614.902 23.7148 618.301 23.7148C625.176 23.7148 628.662 27.709 628.76 35.6973V56H620.293V35.9316C620.293 34.1152 619.902 32.7773 619.121 31.918C618.34 31.0391 617.041 30.5996 615.225 30.5996C612.744 30.5996 610.947 31.5566 609.834 33.4707V56H601.367V11H609.834V27.7578ZM652.314 47.2402C652.314 46.2051 651.797 45.3945 650.762 44.8086C649.746 44.2031 648.105 43.666 645.84 43.1973C638.301 41.6152 634.531 38.4121 634.531 33.5879C634.531 30.7754 635.693 28.4316 638.018 26.5566C640.361 24.6621 643.418 23.7148 647.188 23.7148C651.211 23.7148 654.424 24.6621 656.826 26.5566C659.248 28.4512 660.459 30.9121 660.459 33.9395H651.992C651.992 32.7285 651.602 31.7324 650.82 30.9512C650.039 30.1504 648.818 29.75 647.158 29.75C645.732 29.75 644.629 30.0723 643.848 30.7168C643.066 31.3613 642.676 32.1816 642.676 33.1777C642.676 34.1152 643.115 34.877 643.994 35.4629C644.893 36.0293 646.396 36.5273 648.506 36.957C650.615 37.3672 652.393 37.8359 653.838 38.3633C658.311 40.0039 660.547 42.8457 660.547 46.8887C660.547 49.7793 659.307 52.123 656.826 53.9199C654.346 55.6973 651.143 56.5859 647.217 56.5859C644.561 56.5859 642.197 56.1172 640.127 55.1797C638.076 54.2227 636.465 52.9238 635.293 51.2832C634.121 49.623 633.535 47.8359 633.535 45.9219H641.562C641.641 47.4258 642.197 48.5781 643.232 49.3789C644.268 50.1797 645.654 50.5801 647.393 50.5801C649.014 50.5801 650.234 50.2773 651.055 49.6719C651.895 49.0469 652.314 48.2363 652.314 47.2402Z" fill="black"/>
<path d="M749 38L1337 37.9999" stroke="#3D3D3D"/>
</svg>
