<svg width="333" height="35" viewBox="0 0 333 35" fill="none" xmlns="http://www.w3.org/2000/svg">
<rect y="11" width="300" height="24" fill="#AEE8FF"/>
<path d="M17.5869 23V5.22656H23.0557C24.6182 5.22656 26.0138 5.58057 27.2427 6.28857C28.4797 6.98844 29.444 7.98942 30.1357 9.2915C30.8275 10.5854 31.1733 12.0584 31.1733 13.7104V14.5283C31.1733 16.1803 30.8315 17.6493 30.1479 18.9351C29.4725 20.2209 28.5163 21.2178 27.2793 21.9258C26.0423 22.6338 24.6466 22.9919 23.0923 23H17.5869ZM21.249 8.19287V20.0581H23.019C24.4513 20.0581 25.5459 19.5902 26.3027 18.6543C27.0596 17.7184 27.4461 16.3797 27.4624 14.6382V13.6982C27.4624 11.8916 27.0881 10.5244 26.3394 9.59668C25.5907 8.66081 24.4961 8.19287 23.0557 8.19287H21.249ZM44.54 15.2974H37.5088V20.0581H45.7607V23H33.8467V5.22656H45.7363V8.19287H37.5088V12.4287H44.54V15.2974ZM57.1255 18.3369C57.1255 17.6452 56.8813 17.1162 56.3931 16.75C55.9048 16.3757 55.0259 15.985 53.7563 15.5781C52.4868 15.1631 51.4818 14.7562 50.7412 14.3574C48.723 13.2669 47.7139 11.798 47.7139 9.95068C47.7139 8.9904 47.9824 8.1359 48.5195 7.38721C49.0648 6.63037 49.842 6.04036 50.8511 5.61719C51.8683 5.19401 53.0076 4.98242 54.269 4.98242C55.5386 4.98242 56.6698 5.21436 57.6626 5.67822C58.6554 6.13395 59.4245 6.78092 59.9697 7.61914C60.5231 8.45736 60.7998 9.40951 60.7998 10.4756H57.1377C57.1377 9.66178 56.8813 9.03109 56.3687 8.5835C55.856 8.12777 55.1357 7.8999 54.208 7.8999C53.3128 7.8999 52.617 8.09115 52.1206 8.47363C51.6242 8.84798 51.376 9.3444 51.376 9.96289C51.376 10.5407 51.6649 11.0249 52.2427 11.4155C52.8286 11.8062 53.6872 12.1724 54.8184 12.5142C56.9017 13.1408 58.4194 13.918 59.3716 14.8457C60.3237 15.7734 60.7998 16.929 60.7998 18.3125C60.7998 19.8506 60.2179 21.0591 59.0542 21.938C57.8905 22.8088 56.3239 23.2441 54.3545 23.2441C52.9873 23.2441 51.7422 22.9959 50.6191 22.4995C49.4961 21.995 48.6375 21.3073 48.0435 20.4365C47.4575 19.5658 47.1646 18.5566 47.1646 17.4092H50.8389C50.8389 19.3704 52.0107 20.3511 54.3545 20.3511C55.2253 20.3511 55.9048 20.1761 56.3931 19.8262C56.8813 19.4681 57.1255 18.9717 57.1255 18.3369ZM67.1841 23H63.522V5.22656H67.1841V23ZM84.6523 20.7539C83.9932 21.5433 83.0614 22.1577 81.8569 22.5972C80.6525 23.0285 79.3179 23.2441 77.853 23.2441C76.3149 23.2441 74.964 22.9105 73.8003 22.2432C72.6447 21.5677 71.7495 20.5911 71.1147 19.3135C70.4881 18.0358 70.1667 16.5343 70.1504 14.8091V13.6006C70.1504 11.8265 70.4474 10.2925 71.0415 8.99854C71.6437 7.69645 72.5063 6.70361 73.6294 6.02002C74.7606 5.32829 76.083 4.98242 77.5967 4.98242C79.7044 4.98242 81.3524 5.48698 82.5405 6.49609C83.7287 7.49707 84.4326 8.95785 84.6523 10.8784H81.0879C80.9251 9.86117 80.563 9.11654 80.0015 8.64453C79.4481 8.17253 78.6831 7.93652 77.7065 7.93652C76.4614 7.93652 75.5133 8.40446 74.8623 9.34033C74.2113 10.2762 73.8817 11.6678 73.8735 13.5151V14.6504C73.8735 16.514 74.2275 17.9219 74.9355 18.874C75.6436 19.8262 76.6812 20.3022 78.0483 20.3022C79.4237 20.3022 80.4043 20.0093 80.9902 19.4233V16.3594H77.6577V13.6616H84.6523V20.7539ZM102.084 23H98.4219L91.293 11.3057V23H87.6309V5.22656H91.293L98.4341 16.9453V5.22656H102.084V23ZM109.176 23H105.514V5.22656H109.176V23ZM127.035 23H123.373L116.244 11.3057V23H112.582V5.22656H116.244L123.385 16.9453V5.22656H127.035V23ZM144.296 20.7539C143.637 21.5433 142.705 22.1577 141.5 22.5972C140.296 23.0285 138.961 23.2441 137.497 23.2441C135.958 23.2441 134.608 22.9105 133.444 22.2432C132.288 21.5677 131.393 20.5911 130.758 19.3135C130.132 18.0358 129.81 16.5343 129.794 14.8091V13.6006C129.794 11.8265 130.091 10.2925 130.685 8.99854C131.287 7.69645 132.15 6.70361 133.273 6.02002C134.404 5.32829 135.727 4.98242 137.24 4.98242C139.348 4.98242 140.996 5.48698 142.184 6.49609C143.372 7.49707 144.076 8.95785 144.296 10.8784H140.731C140.569 9.86117 140.207 9.11654 139.645 8.64453C139.092 8.17253 138.327 7.93652 137.35 7.93652C136.105 7.93652 135.157 8.40446 134.506 9.34033C133.855 10.2762 133.525 11.6678 133.517 13.5151V14.6504C133.517 16.514 133.871 17.9219 134.579 18.874C135.287 19.8262 136.325 20.3022 137.692 20.3022C139.067 20.3022 140.048 20.0093 140.634 19.4233V16.3594H137.301V13.6616H144.296V20.7539ZM162.716 18.3369C162.716 17.6452 162.472 17.1162 161.984 16.75C161.496 16.3757 160.617 15.985 159.347 15.5781C158.078 15.1631 157.073 14.7562 156.332 14.3574C154.314 13.2669 153.305 11.798 153.305 9.95068C153.305 8.9904 153.573 8.1359 154.11 7.38721C154.656 6.63037 155.433 6.04036 156.442 5.61719C157.459 5.19401 158.598 4.98242 159.86 4.98242C161.129 4.98242 162.261 5.21436 163.253 5.67822C164.246 6.13395 165.015 6.78092 165.561 7.61914C166.114 8.45736 166.391 9.40951 166.391 10.4756H162.729C162.729 9.66178 162.472 9.03109 161.959 8.5835C161.447 8.12777 160.727 7.8999 159.799 7.8999C158.904 7.8999 158.208 8.09115 157.711 8.47363C157.215 8.84798 156.967 9.3444 156.967 9.96289C156.967 10.5407 157.256 11.0249 157.833 11.4155C158.419 11.8062 159.278 12.1724 160.409 12.5142C162.493 13.1408 164.01 13.918 164.962 14.8457C165.915 15.7734 166.391 16.929 166.391 18.3125C166.391 19.8506 165.809 21.0591 164.645 21.938C163.481 22.8088 161.915 23.2441 159.945 23.2441C158.578 23.2441 157.333 22.9959 156.21 22.4995C155.087 21.995 154.228 21.3073 153.634 20.4365C153.048 19.5658 152.755 18.5566 152.755 17.4092H156.43C156.43 19.3704 157.602 20.3511 159.945 20.3511C160.816 20.3511 161.496 20.1761 161.984 19.8262C162.472 19.4681 162.716 18.9717 162.716 18.3369ZM183.48 14.5161C183.48 16.2658 183.171 17.7998 182.553 19.1182C181.934 20.4365 181.047 21.4538 179.892 22.1699C178.744 22.8861 177.426 23.2441 175.937 23.2441C174.464 23.2441 173.149 22.8901 171.994 22.1821C170.838 21.4741 169.943 20.465 169.308 19.1548C168.673 17.8364 168.352 16.3228 168.344 14.6138V13.7349C168.344 11.9852 168.657 10.4471 169.284 9.12061C169.918 7.78597 170.81 6.76465 171.957 6.05664C173.113 5.34049 174.431 4.98242 175.912 4.98242C177.393 4.98242 178.708 5.34049 179.855 6.05664C181.011 6.76465 181.902 7.78597 182.528 9.12061C183.163 10.4471 183.48 11.9811 183.48 13.7227V14.5161ZM179.77 13.7104C179.77 11.8468 179.436 10.4308 178.769 9.4624C178.101 8.49398 177.149 8.00977 175.912 8.00977C174.683 8.00977 173.735 8.48991 173.068 9.4502C172.401 10.4023 172.063 11.8021 172.055 13.6494V14.5161C172.055 16.3309 172.388 17.7388 173.056 18.7397C173.723 19.7407 174.683 20.2412 175.937 20.2412C177.165 20.2412 178.109 19.7611 178.769 18.8008C179.428 17.8324 179.761 16.4245 179.77 14.5771V13.7104ZM189.804 20.0581H197.58V23H186.142V5.22656H189.804V20.0581ZM212.851 5.22656V16.9331C212.851 18.8781 212.24 20.4162 211.02 21.5474C209.807 22.6785 208.147 23.2441 206.039 23.2441C203.964 23.2441 202.316 22.6948 201.095 21.5962C199.875 20.4976 199.252 18.988 199.228 17.0674V5.22656H202.89V16.9575C202.89 18.1213 203.166 18.9717 203.72 19.5088C204.281 20.0378 205.054 20.3022 206.039 20.3022C208.098 20.3022 209.144 19.2199 209.176 17.0552V5.22656H212.851ZM229.232 8.19287H223.788V23H220.126V8.19287H214.755V5.22656H229.232V8.19287ZM235.226 23H231.564V5.22656H235.226V23ZM253.231 14.5161C253.231 16.2658 252.922 17.7998 252.304 19.1182C251.685 20.4365 250.798 21.4538 249.643 22.1699C248.495 22.8861 247.177 23.2441 245.688 23.2441C244.215 23.2441 242.9 22.8901 241.745 22.1821C240.589 21.4741 239.694 20.465 239.059 19.1548C238.424 17.8364 238.103 16.3228 238.095 14.6138V13.7349C238.095 11.9852 238.408 10.4471 239.035 9.12061C239.669 7.78597 240.561 6.76465 241.708 6.05664C242.864 5.34049 244.182 4.98242 245.663 4.98242C247.144 4.98242 248.458 5.34049 249.606 6.05664C250.762 6.76465 251.653 7.78597 252.279 9.12061C252.914 10.4471 253.231 11.9811 253.231 13.7227V14.5161ZM249.521 13.7104C249.521 11.8468 249.187 10.4308 248.52 9.4624C247.852 8.49398 246.9 8.00977 245.663 8.00977C244.434 8.00977 243.486 8.48991 242.819 9.4502C242.152 10.4023 241.814 11.8021 241.806 13.6494V14.5161C241.806 16.3309 242.139 17.7388 242.807 18.7397C243.474 19.7407 244.434 20.2412 245.688 20.2412C246.916 20.2412 247.86 19.7611 248.52 18.8008C249.179 17.8324 249.512 16.4245 249.521 14.5771V13.7104ZM270.346 23H266.684L259.555 11.3057V23H255.893V5.22656H259.555L266.696 16.9453V5.22656H270.346V23ZM282.76 18.3369C282.76 17.6452 282.516 17.1162 282.028 16.75C281.54 16.3757 280.661 15.985 279.391 15.5781C278.122 15.1631 277.117 14.7562 276.376 14.3574C274.358 13.2669 273.349 11.798 273.349 9.95068C273.349 8.9904 273.617 8.1359 274.154 7.38721C274.7 6.63037 275.477 6.04036 276.486 5.61719C277.503 5.19401 278.642 4.98242 279.904 4.98242C281.173 4.98242 282.305 5.21436 283.297 5.67822C284.29 6.13395 285.059 6.78092 285.604 7.61914C286.158 8.45736 286.435 9.40951 286.435 10.4756H282.772C282.772 9.66178 282.516 9.03109 282.003 8.5835C281.491 8.12777 280.771 7.8999 279.843 7.8999C278.948 7.8999 278.252 8.09115 277.755 8.47363C277.259 8.84798 277.011 9.3444 277.011 9.96289C277.011 10.5407 277.3 11.0249 277.877 11.4155C278.463 11.8062 279.322 12.1724 280.453 12.5142C282.536 13.1408 284.054 13.918 285.006 14.8457C285.958 15.7734 286.435 16.929 286.435 18.3125C286.435 19.8506 285.853 21.0591 284.689 21.938C283.525 22.8088 281.959 23.2441 279.989 23.2441C278.622 23.2441 277.377 22.9959 276.254 22.4995C275.131 21.995 274.272 21.3073 273.678 20.4365C273.092 19.5658 272.799 18.5566 272.799 17.4092H276.474C276.474 19.3704 277.646 20.3511 279.989 20.3511C280.86 20.3511 281.54 20.1761 282.028 19.8262C282.516 19.4681 282.76 18.9717 282.76 18.3369Z" fill="black"/>
</svg>
