<svg width="1336" height="70" viewBox="0 0 1336 70" fill="none" xmlns="http://www.w3.org/2000/svg">
<rect y="24" width="342" height="31" fill="#AEE8FF"/>
<path d="M49.4727 37.5137H32.5977V48.9395H52.4023V56H23.8086V13.3438H52.3438V20.4629H32.5977V30.6289H49.4727V37.5137ZM69.0723 33.7637L74.4043 24.3008H83.457L74.4336 39.8281L83.8379 56H74.7559L69.1016 46.0391L63.4766 56H54.3652L63.7695 39.8281L54.7754 24.3008H63.8574L69.0723 33.7637ZM116.064 40.4434C116.064 45.3262 114.951 49.2422 112.725 52.1914C110.518 55.1211 107.529 56.5859 103.76 56.5859C100.557 56.5859 97.9688 55.4727 95.9961 53.2461V68.1875H87.5293V24.3008H95.3809L95.6738 27.4062C97.7246 24.9453 100.4 23.7148 103.701 23.7148C107.607 23.7148 110.645 25.1602 112.812 28.0508C114.98 30.9414 116.064 34.9258 116.064 40.0039V40.4434ZM107.598 39.8281C107.598 36.8789 107.07 34.6035 106.016 33.002C104.98 31.4004 103.467 30.5996 101.475 30.5996C98.8184 30.5996 96.9922 31.6152 95.9961 33.6465V46.625C97.0312 48.7148 98.877 49.7598 101.533 49.7598C105.576 49.7598 107.598 46.4492 107.598 39.8281ZM135.928 56.5859C131.279 56.5859 127.49 55.1602 124.561 52.3086C121.65 49.457 120.195 45.6582 120.195 40.9121V40.0918C120.195 36.9082 120.811 34.0664 122.041 31.5664C123.271 29.0469 125.01 27.1133 127.256 25.7656C129.521 24.3984 132.1 23.7148 134.99 23.7148C139.326 23.7148 142.734 25.082 145.215 27.8164C147.715 30.5508 148.965 34.4277 148.965 39.4473V42.9043H128.779C129.053 44.9746 129.873 46.6348 131.24 47.8848C132.627 49.1348 134.375 49.7598 136.484 49.7598C139.746 49.7598 142.295 48.5781 144.131 46.2148L148.291 50.873C147.021 52.6699 145.303 54.0762 143.135 55.0918C140.967 56.0879 138.564 56.5859 135.928 56.5859ZM134.961 30.5703C133.281 30.5703 131.914 31.1367 130.859 32.2695C129.824 33.4023 129.16 35.0234 128.867 37.1328H140.645V36.459C140.605 34.584 140.098 33.1387 139.121 32.123C138.145 31.0879 136.758 30.5703 134.961 30.5703ZM171.611 32.2402C170.459 32.084 169.443 32.0059 168.564 32.0059C165.361 32.0059 163.262 33.0898 162.266 35.2578V56H153.799V24.3008H161.797L162.031 28.0801C163.73 25.1699 166.084 23.7148 169.092 23.7148C170.029 23.7148 170.908 23.8418 171.729 24.0957L171.611 32.2402ZM184.648 56H176.152V24.3008H184.648V56ZM175.654 16.0977C175.654 14.8281 176.074 13.7832 176.914 12.9629C177.773 12.1426 178.936 11.7324 180.4 11.7324C181.846 11.7324 182.998 12.1426 183.857 12.9629C184.717 13.7832 185.146 14.8281 185.146 16.0977C185.146 17.3867 184.707 18.4414 183.828 19.2617C182.969 20.082 181.826 20.4922 180.4 20.4922C178.975 20.4922 177.822 20.082 176.943 19.2617C176.084 18.4414 175.654 17.3867 175.654 16.0977ZM206.24 56.5859C201.592 56.5859 197.803 55.1602 194.873 52.3086C191.963 49.457 190.508 45.6582 190.508 40.9121V40.0918C190.508 36.9082 191.123 34.0664 192.354 31.5664C193.584 29.0469 195.322 27.1133 197.568 25.7656C199.834 24.3984 202.412 23.7148 205.303 23.7148C209.639 23.7148 213.047 25.082 215.527 27.8164C218.027 30.5508 219.277 34.4277 219.277 39.4473V42.9043H199.092C199.365 44.9746 200.186 46.6348 201.553 47.8848C202.939 49.1348 204.688 49.7598 206.797 49.7598C210.059 49.7598 212.607 48.5781 214.443 46.2148L218.604 50.873C217.334 52.6699 215.615 54.0762 213.447 55.0918C211.279 56.0879 208.877 56.5859 206.24 56.5859ZM205.273 30.5703C203.594 30.5703 202.227 31.1367 201.172 32.2695C200.137 33.4023 199.473 35.0234 199.18 37.1328H210.957V36.459C210.918 34.584 210.41 33.1387 209.434 32.123C208.457 31.0879 207.07 30.5703 205.273 30.5703ZM231.904 24.3008L232.168 27.9629C234.434 25.1309 237.471 23.7148 241.279 23.7148C244.639 23.7148 247.139 24.7012 248.779 26.6738C250.42 28.6465 251.26 31.5957 251.299 35.5215V56H242.832V35.7266C242.832 33.9297 242.441 32.6309 241.66 31.8301C240.879 31.0098 239.58 30.5996 237.764 30.5996C235.381 30.5996 233.594 31.6152 232.402 33.6465V56H223.936V24.3008H231.904ZM270.928 49.7598C272.49 49.7598 273.76 49.3301 274.736 48.4707C275.713 47.6113 276.221 46.4688 276.26 45.043H284.199C284.18 47.1914 283.594 49.1641 282.441 50.9609C281.289 52.7383 279.707 54.125 277.695 55.1211C275.703 56.0977 273.496 56.5859 271.074 56.5859C266.543 56.5859 262.969 55.1504 260.352 52.2793C257.734 49.3887 256.426 45.4043 256.426 40.3262V39.7695C256.426 34.8867 257.725 30.9902 260.322 28.0801C262.92 25.1699 266.484 23.7148 271.016 23.7148C274.98 23.7148 278.154 24.8477 280.537 27.1133C282.939 29.3594 284.16 32.3574 284.199 36.1074H276.26C276.221 34.4668 275.713 33.1387 274.736 32.123C273.76 31.0879 272.471 30.5703 270.869 30.5703C268.896 30.5703 267.402 31.293 266.387 32.7383C265.391 34.1641 264.893 36.4883 264.893 39.7109V40.5898C264.893 43.8516 265.391 46.1953 266.387 47.6211C267.383 49.0469 268.896 49.7598 270.928 49.7598ZM303.623 56.5859C298.975 56.5859 295.186 55.1602 292.256 52.3086C289.346 49.457 287.891 45.6582 287.891 40.9121V40.0918C287.891 36.9082 288.506 34.0664 289.736 31.5664C290.967 29.0469 292.705 27.1133 294.951 25.7656C297.217 24.3984 299.795 23.7148 302.686 23.7148C307.021 23.7148 310.43 25.082 312.91 27.8164C315.41 30.5508 316.66 34.4277 316.66 39.4473V42.9043H296.475C296.748 44.9746 297.568 46.6348 298.936 47.8848C300.322 49.1348 302.07 49.7598 304.18 49.7598C307.441 49.7598 309.99 48.5781 311.826 46.2148L315.986 50.873C314.717 52.6699 312.998 54.0762 310.83 55.0918C308.662 56.0879 306.26 56.5859 303.623 56.5859ZM302.656 30.5703C300.977 30.5703 299.609 31.1367 298.555 32.2695C297.52 33.4023 296.855 35.0234 296.562 37.1328H308.34V36.459C308.301 34.584 307.793 33.1387 306.816 32.123C305.84 31.0879 304.453 30.5703 302.656 30.5703Z" fill="black"/>
<path d="M404 40L1372 39.9999" stroke="#3D3D3D"/>
</svg>
