<svg width="375" height="70" viewBox="0 0 375 70" fill="none" xmlns="http://www.w3.org/2000/svg">
<rect y="23" width="375" height="31" fill="#AEE8FF"/>
<path d="M51.5254 56H42.7363V37.7188H25.5977V56H16.8086V13.3438H25.5977V30.6289H42.7363V13.3438H51.5254V56ZM67.6094 56H59.1133V24.3008H67.6094V56ZM58.6152 16.0977C58.6152 14.8281 59.0352 13.7832 59.875 12.9629C60.7344 12.1426 61.8965 11.7324 63.3613 11.7324C64.8066 11.7324 65.959 12.1426 66.8184 12.9629C67.6777 13.7832 68.1074 14.8281 68.1074 16.0977C68.1074 17.3867 67.668 18.4414 66.7891 19.2617C65.9297 20.082 64.7871 20.4922 63.3613 20.4922C61.9355 20.4922 60.7832 20.082 59.9043 19.2617C59.0449 18.4414 58.6152 17.3867 58.6152 16.0977ZM76.8086 66.6934L72.3848 64.3789L73.4395 62.4746C74.748 60.0918 75.4219 57.7188 75.4609 55.3555V48.793H82.6094L82.5801 54.6523C82.5605 56.8203 82.0137 59.0078 80.9395 61.2148C79.8652 63.4219 78.4883 65.248 76.8086 66.6934ZM114.104 56H105.314V13.3438H114.104V56ZM124.152 26.4395L120.168 24.125C121.848 21.4883 122.717 18.7637 122.775 15.9512V11H129.514V15.541C129.514 17.2988 129.025 19.2031 128.049 21.2539C127.072 23.3047 125.773 25.0332 124.152 26.4395ZM142.844 24.3008L143.107 27.8457C145.354 25.0918 148.391 23.7148 152.219 23.7148C156.301 23.7148 159.104 25.3262 160.627 28.5488C162.854 25.3262 166.027 23.7148 170.148 23.7148C173.586 23.7148 176.145 24.7207 177.824 26.7324C179.504 28.7246 180.344 31.7324 180.344 35.7559V56H171.848V35.7852C171.848 33.9883 171.496 32.6797 170.793 31.8594C170.09 31.0195 168.85 30.5996 167.072 30.5996C164.533 30.5996 162.775 31.8105 161.799 34.2324L161.828 56H153.361V35.8145C153.361 33.9785 153 32.6504 152.277 31.8301C151.555 31.0098 150.324 30.5996 148.586 30.5996C146.184 30.5996 144.445 31.5957 143.371 33.5879V56H134.904V24.3008H142.844ZM235.861 41.791C235.529 46.3809 233.83 49.9941 230.764 52.6309C227.717 55.2676 223.693 56.5859 218.693 56.5859C213.225 56.5859 208.918 54.75 205.773 51.0781C202.648 47.3867 201.086 42.3281 201.086 35.9023V33.2949C201.086 29.1934 201.809 25.5801 203.254 22.4551C204.699 19.3301 206.76 16.9375 209.436 15.2773C212.131 13.5977 215.256 12.7578 218.811 12.7578C223.732 12.7578 227.697 14.0762 230.705 16.7129C233.713 19.3496 235.451 23.0508 235.92 27.8164H227.131C226.916 25.0625 226.145 23.0703 224.816 21.8398C223.508 20.5898 221.506 19.9648 218.811 19.9648C215.881 19.9648 213.684 21.0195 212.219 23.1289C210.773 25.2187 210.031 28.4707 209.992 32.8848V36.1074C209.992 40.7168 210.686 44.0859 212.072 46.2148C213.479 48.3438 215.686 49.4082 218.693 49.4082C221.408 49.4082 223.43 48.793 224.758 47.5625C226.105 46.3125 226.877 44.3887 227.072 41.791H235.861ZM250.012 56H241.516V24.3008H250.012V56ZM241.018 16.0977C241.018 14.8281 241.438 13.7832 242.277 12.9629C243.137 12.1426 244.299 11.7324 245.764 11.7324C247.209 11.7324 248.361 12.1426 249.221 12.9629C250.08 13.7832 250.51 14.8281 250.51 16.0977C250.51 17.3867 250.07 18.4414 249.191 19.2617C248.332 20.082 247.189 20.4922 245.764 20.4922C244.338 20.4922 243.186 20.082 242.307 19.2617C241.447 18.4414 241.018 17.3867 241.018 16.0977ZM264.807 24.3008L265.07 27.9629C267.336 25.1309 270.373 23.7148 274.182 23.7148C277.541 23.7148 280.041 24.7012 281.682 26.6738C283.322 28.6465 284.162 31.5957 284.201 35.5215V56H275.734V35.7266C275.734 33.9297 275.344 32.6309 274.562 31.8301C273.781 31.0098 272.482 30.5996 270.666 30.5996C268.283 30.5996 266.496 31.6152 265.305 33.6465V56H256.838V24.3008H264.807ZM289.328 39.916C289.328 34.9746 290.432 31.0391 292.639 28.1094C294.865 25.1797 297.902 23.7148 301.75 23.7148C304.836 23.7148 307.385 24.8672 309.396 27.1719V11H317.893V56H310.246L309.836 52.6309C307.727 55.2676 305.012 56.5859 301.691 56.5859C297.961 56.5859 294.963 55.1211 292.697 52.1914C290.451 49.2422 289.328 45.1504 289.328 39.916ZM297.795 40.5312C297.795 43.5 298.312 45.7754 299.348 47.3574C300.383 48.9395 301.887 49.7305 303.859 49.7305C306.477 49.7305 308.322 48.627 309.396 46.4199V33.9102C308.342 31.7031 306.516 30.5996 303.918 30.5996C299.836 30.5996 297.795 33.9102 297.795 40.5312ZM336.291 44.0176L342.15 24.3008H351.232L338.488 60.9219L337.785 62.5918C335.891 66.7324 332.766 68.8027 328.41 68.8027C327.18 68.8027 325.93 68.6172 324.66 68.2461V61.8301L325.949 61.8594C327.551 61.8594 328.742 61.6152 329.523 61.127C330.324 60.6387 330.949 59.8281 331.398 58.6953L332.395 56.0879L321.291 24.3008H330.402L336.291 44.0176ZM350.09 51.8398C350.09 50.4922 350.539 49.3984 351.438 48.5586C352.355 47.7188 353.498 47.2988 354.865 47.2988C356.252 47.2988 357.395 47.7188 358.293 48.5586C359.211 49.3984 359.67 50.4922 359.67 51.8398C359.67 53.168 359.221 54.252 358.322 55.0918C357.424 55.9121 356.271 56.3223 354.865 56.3223C353.479 56.3223 352.336 55.9121 351.438 55.0918C350.539 54.252 350.09 53.168 350.09 51.8398Z" fill="black"/>
</svg>
