<svg width="162" height="35" viewBox="0 0 162 35" fill="none" xmlns="http://www.w3.org/2000/svg">
<rect y="11" width="145.318" height="24" fill="#AEE8FF"/>
<path d="M32.1865 14.5161C32.1865 16.2658 31.8773 17.7998 31.2588 19.1182C30.6403 20.4365 29.7533 21.4538 28.5977 22.1699C27.4502 22.8861 26.1318 23.2441 24.6426 23.2441C23.1696 23.2441 21.8553 22.8901 20.6997 22.1821C19.5441 21.4741 18.6489 20.465 18.0142 19.1548C17.3794 17.8364 17.0579 16.3228 17.0498 14.6138V13.7349C17.0498 11.9852 17.3631 10.4471 17.9897 9.12061C18.6245 7.78597 19.5156 6.76465 20.6631 6.05664C21.8187 5.34049 23.137 4.98242 24.6182 4.98242C26.0993 4.98242 27.4136 5.34049 28.561 6.05664C29.7166 6.76465 30.6077 7.78597 31.2344 9.12061C31.8691 10.4471 32.1865 11.9811 32.1865 13.7227V14.5161ZM28.4756 13.7104C28.4756 11.8468 28.1419 10.4308 27.4746 9.4624C26.8073 8.49398 25.8551 8.00977 24.6182 8.00977C23.3893 8.00977 22.4412 8.48991 21.7739 9.4502C21.1066 10.4023 20.7689 11.8021 20.7607 13.6494V14.5161C20.7607 16.3309 21.0944 17.7388 21.7617 18.7397C22.429 19.7407 23.3893 20.2412 24.6426 20.2412C25.8714 20.2412 26.8154 19.7611 27.4746 18.8008C28.1338 17.8324 28.4674 16.4245 28.4756 14.5771V13.7104ZM41.1465 18.5933L45.1748 5.22656H49.252L43.063 23H39.2422L33.0776 5.22656H37.1426L41.1465 18.5933ZM61.6299 15.2974H54.5986V20.0581H62.8506V23H50.9365V5.22656H62.8262V8.19287H54.5986V12.4287H61.6299V15.2974ZM71.5786 16.4937H68.6611V23H64.999V5.22656H71.603C73.7026 5.22656 75.3221 5.6945 76.4614 6.63037C77.6007 7.56624 78.1704 8.88867 78.1704 10.5977C78.1704 11.8102 77.9059 12.8234 77.377 13.6372C76.8561 14.4429 76.0627 15.0858 74.9966 15.5659L78.8418 22.8291V23H74.9111L71.5786 16.4937ZM68.6611 13.5273H71.6152C72.5348 13.5273 73.2469 13.2954 73.7515 12.8315C74.256 12.3595 74.5083 11.7126 74.5083 10.8906C74.5083 10.0524 74.2682 9.39323 73.7881 8.91309C73.3161 8.43294 72.5877 8.19287 71.603 8.19287H68.6611V13.5273ZM87.2891 18.5933L91.3174 5.22656H95.3945L89.2056 23H85.3848L79.2202 5.22656H83.2852L87.2891 18.5933ZM100.973 23H97.311V5.22656H100.973V23ZM115.072 15.2974H108.041V20.0581H116.293V23H104.379V5.22656H116.269V8.19287H108.041V12.4287H115.072V15.2974ZM132.284 17.873L134.677 5.22656H138.327L134.384 23H130.697L127.804 11.1104L124.911 23H121.225L117.282 5.22656H120.932L123.336 17.8486L126.266 5.22656H129.367L132.284 17.873Z" fill="black"/>
</svg>
