<svg width="189" height="35" viewBox="0 0 189 35" fill="none" xmlns="http://www.w3.org/2000/svg">
<rect y="11" width="172.396" height="24" fill="#AEE8FF"/>
<path d="M24.1665 16.4937H21.249V23H17.5869V5.22656H24.1909C26.2905 5.22656 27.91 5.6945 29.0493 6.63037C30.1886 7.56624 30.7583 8.88867 30.7583 10.5977C30.7583 11.8102 30.4938 12.8234 29.9648 13.6372C29.444 14.4429 28.6506 15.0858 27.5845 15.5659L31.4297 22.8291V23H27.499L24.1665 16.4937ZM21.249 13.5273H24.2031C25.1227 13.5273 25.8348 13.2954 26.3394 12.8315C26.8439 12.3595 27.0962 11.7126 27.0962 10.8906C27.0962 10.0524 26.8561 9.39323 26.376 8.91309C25.904 8.43294 25.1756 8.19287 24.1909 8.19287H21.249V13.5273ZM44.2471 15.2974H37.2158V20.0581H45.4678V23H33.5537V5.22656H45.4434V8.19287H37.2158V12.4287H44.2471V15.2974ZM58.3096 15.7368H51.2783V23H47.6162V5.22656H59.1885V8.19287H51.2783V12.7827H58.3096V15.7368ZM64.9746 20.0581H72.7505V23H61.3125V5.22656H64.9746V20.0581ZM85.5557 15.2974H78.5244V20.0581H86.7764V23H74.8623V5.22656H86.752V8.19287H78.5244V12.4287H85.5557V15.2974ZM102.877 17.0796C102.739 18.992 102.031 20.4976 100.753 21.5962C99.4839 22.6948 97.8075 23.2441 95.7241 23.2441C93.4455 23.2441 91.651 22.4792 90.3408 20.9492C89.0387 19.4111 88.3877 17.3034 88.3877 14.626V13.5396C88.3877 11.8306 88.6888 10.325 89.291 9.02295C89.8932 7.72087 90.7518 6.72396 91.8667 6.03223C92.9897 5.33236 94.2918 4.98242 95.7729 4.98242C97.8237 4.98242 99.4757 5.53174 100.729 6.63037C101.982 7.729 102.707 9.27116 102.902 11.2568H99.2397C99.1502 10.1094 98.8288 9.2793 98.2754 8.7666C97.7301 8.24577 96.896 7.98535 95.7729 7.98535C94.5522 7.98535 93.6367 8.4248 93.0264 9.30371C92.4242 10.1745 92.1149 11.5295 92.0986 13.3687V14.7114C92.0986 16.632 92.3875 18.0358 92.9653 18.9229C93.5513 19.8099 94.4709 20.2534 95.7241 20.2534C96.8553 20.2534 97.6976 19.9971 98.251 19.4844C98.8125 18.9635 99.134 18.1619 99.2153 17.0796H102.877ZM118.295 8.19287H112.851V23H109.188V8.19287H103.817V5.22656H118.295V8.19287ZM124.289 23H120.626V5.22656H124.289V23ZM142.294 14.5161C142.294 16.2658 141.985 17.7998 141.366 19.1182C140.748 20.4365 139.861 21.4538 138.705 22.1699C137.558 22.8861 136.239 23.2441 134.75 23.2441C133.277 23.2441 131.963 22.8901 130.807 22.1821C129.652 21.4741 128.756 20.465 128.122 19.1548C127.487 17.8364 127.165 16.3228 127.157 14.6138V13.7349C127.157 11.9852 127.471 10.4471 128.097 9.12061C128.732 7.78597 129.623 6.76465 130.771 6.05664C131.926 5.34049 133.244 4.98242 134.726 4.98242C136.207 4.98242 137.521 5.34049 138.668 6.05664C139.824 6.76465 140.715 7.78597 141.342 9.12061C141.977 10.4471 142.294 11.9811 142.294 13.7227V14.5161ZM138.583 13.7104C138.583 11.8468 138.249 10.4308 137.582 9.4624C136.915 8.49398 135.963 8.00977 134.726 8.00977C133.497 8.00977 132.549 8.48991 131.881 9.4502C131.214 10.4023 130.876 11.8021 130.868 13.6494V14.5161C130.868 16.3309 131.202 17.7388 131.869 18.7397C132.536 19.7407 133.497 20.2412 134.75 20.2412C135.979 20.2412 136.923 19.7611 137.582 18.8008C138.241 17.8324 138.575 16.4245 138.583 14.5771V13.7104ZM159.408 23H155.746L148.617 11.3057V23H144.955V5.22656H148.617L155.758 16.9453V5.22656H159.408V23Z" fill="black"/>
</svg>
