<svg width="165" height="35" viewBox="0 0 165 35" fill="none" xmlns="http://www.w3.org/2000/svg">
<rect y="11" width="155" height="24" fill="#AEE8FF"/>
<path d="M24.1665 16.4937H21.249V23H17.5869V5.22656H24.1909C26.2905 5.22656 27.91 5.6945 29.0493 6.63037C30.1886 7.56624 30.7583 8.88867 30.7583 10.5977C30.7583 11.8102 30.4938 12.8234 29.9648 13.6372C29.444 14.4429 28.6506 15.0858 27.5845 15.5659L31.4297 22.8291V23H27.499L24.1665 16.4937ZM21.249 13.5273H24.2031C25.1227 13.5273 25.8348 13.2954 26.3394 12.8315C26.8439 12.3595 27.0962 11.7126 27.0962 10.8906C27.0962 10.0524 26.8561 9.39323 26.376 8.91309C25.904 8.43294 25.1756 8.19287 24.1909 8.19287H21.249V13.5273ZM44.2471 15.2974H37.2158V20.0581H45.4678V23H33.5537V5.22656H45.4434V8.19287H37.2158V12.4287H44.2471V15.2974ZM56.8325 18.3369C56.8325 17.6452 56.5884 17.1162 56.1001 16.75C55.6118 16.3757 54.7329 15.985 53.4634 15.5781C52.1938 15.1631 51.1888 14.7562 50.4482 14.3574C48.43 13.2669 47.4209 11.798 47.4209 9.95068C47.4209 8.9904 47.6895 8.1359 48.2266 7.38721C48.7718 6.63037 49.549 6.04036 50.5581 5.61719C51.5754 5.19401 52.7147 4.98242 53.9761 4.98242C55.2456 4.98242 56.3768 5.21436 57.3696 5.67822C58.3625 6.13395 59.1315 6.78092 59.6768 7.61914C60.2301 8.45736 60.5068 9.40951 60.5068 10.4756H56.8447C56.8447 9.66178 56.5884 9.03109 56.0757 8.5835C55.563 8.12777 54.8428 7.8999 53.915 7.8999C53.0199 7.8999 52.3241 8.09115 51.8276 8.47363C51.3312 8.84798 51.083 9.3444 51.083 9.96289C51.083 10.5407 51.3719 11.0249 51.9497 11.4155C52.5356 11.8062 53.3942 12.1724 54.5254 12.5142C56.6087 13.1408 58.1265 13.918 59.0786 14.8457C60.0308 15.7734 60.5068 16.929 60.5068 18.3125C60.5068 19.8506 59.925 21.0591 58.7612 21.938C57.5975 22.8088 56.0309 23.2441 54.0615 23.2441C52.6943 23.2441 51.4492 22.9959 50.3262 22.4995C49.2031 21.995 48.3446 21.3073 47.7505 20.4365C47.1646 19.5658 46.8716 18.5566 46.8716 17.4092H50.5459C50.5459 19.3704 51.7178 20.3511 54.0615 20.3511C54.9323 20.3511 55.6118 20.1761 56.1001 19.8262C56.5884 19.4681 56.8325 18.9717 56.8325 18.3369ZM73.6904 15.2974H66.6592V20.0581H74.9111V23H62.9971V5.22656H74.8867V8.19287H66.6592V12.4287H73.6904V15.2974ZM87.0938 19.3379H80.6729L79.4521 23H75.5581L82.1743 5.22656H85.5679L92.2207 23H88.3267L87.0938 19.3379ZM81.6616 16.3716H86.105L83.8711 9.71875L81.6616 16.3716ZM100.46 16.4937H97.543V23H93.8809V5.22656H100.485C102.584 5.22656 104.204 5.6945 105.343 6.63037C106.483 7.56624 107.052 8.88867 107.052 10.5977C107.052 11.8102 106.788 12.8234 106.259 13.6372C105.738 14.4429 104.944 15.0858 103.878 15.5659L107.724 22.8291V23H103.793L100.46 16.4937ZM97.543 13.5273H100.497C101.417 13.5273 102.129 13.2954 102.633 12.8315C103.138 12.3595 103.39 11.7126 103.39 10.8906C103.39 10.0524 103.15 9.39323 102.67 8.91309C102.198 8.43294 101.47 8.19287 100.485 8.19287H97.543V13.5273ZM123.8 17.0796C123.662 18.992 122.954 20.4976 121.676 21.5962C120.407 22.6948 118.73 23.2441 116.647 23.2441C114.368 23.2441 112.574 22.4792 111.264 20.9492C109.962 19.4111 109.311 17.3034 109.311 14.626V13.5396C109.311 11.8306 109.612 10.325 110.214 9.02295C110.816 7.72087 111.675 6.72396 112.79 6.03223C113.913 5.33236 115.215 4.98242 116.696 4.98242C118.747 4.98242 120.399 5.53174 121.652 6.63037C122.905 7.729 123.629 9.27116 123.825 11.2568H120.163C120.073 10.1094 119.752 9.2793 119.198 8.7666C118.653 8.24577 117.819 7.98535 116.696 7.98535C115.475 7.98535 114.56 8.4248 113.949 9.30371C113.347 10.1745 113.038 11.5295 113.021 13.3687V14.7114C113.021 16.632 113.31 18.0358 113.888 18.9229C114.474 19.8099 115.394 20.2534 116.647 20.2534C117.778 20.2534 118.62 19.9971 119.174 19.4844C119.735 18.9635 120.057 18.1619 120.138 17.0796H123.8ZM140.67 23H137.008V15.3828H129.867V23H126.205V5.22656H129.867V12.4287H137.008V5.22656H140.67V23Z" fill="black"/>
</svg>
