<svg width="1316" height="70" viewBox="0 0 1316 70" fill="none" xmlns="http://www.w3.org/2000/svg">
<rect y="21" width="190" height="31" fill="#AEE8FF"/>
<path d="M45.9277 44.8086C45.9277 43.1484 45.3418 41.8789 44.1699 41C42.998 40.1016 40.8887 39.1641 37.8418 38.1875C34.7949 37.1914 32.3828 36.2148 30.6055 35.2578C25.7617 32.6406 23.3398 29.1152 23.3398 24.6816C23.3398 22.377 23.9844 20.3262 25.2734 18.5293C26.582 16.7129 28.4473 15.2969 30.8691 14.2812C33.3105 13.2656 36.0449 12.7578 39.0723 12.7578C42.1191 12.7578 44.834 13.3145 47.2168 14.4277C49.5996 15.5215 51.4453 17.0742 52.7539 19.0859C54.082 21.0977 54.7461 23.3828 54.7461 25.9414H45.957C45.957 23.9883 45.3418 22.4746 44.1113 21.4004C42.8809 20.3066 41.1523 19.7598 38.9258 19.7598C36.7773 19.7598 35.1074 20.2188 33.916 21.1367C32.7246 22.0352 32.1289 23.2266 32.1289 24.7109C32.1289 26.0977 32.8223 27.2598 34.209 28.1973C35.6152 29.1348 37.6758 30.0137 40.3906 30.834C45.3906 32.3379 49.0332 34.2031 51.3184 36.4297C53.6035 38.6562 54.7461 41.4297 54.7461 44.75C54.7461 48.4414 53.3496 51.3418 50.5566 53.4512C47.7637 55.541 44.0039 56.5859 39.2773 56.5859C35.9961 56.5859 33.0078 55.9902 30.3125 54.7988C27.6172 53.5879 25.5566 51.9375 24.1309 49.8477C22.7246 47.7578 22.0215 45.3359 22.0215 42.582H30.8398C30.8398 47.2891 33.6523 49.6426 39.2773 49.6426C41.3672 49.6426 42.998 49.2227 44.1699 48.3828C45.3418 47.5234 45.9277 46.332 45.9277 44.8086ZM71.6797 43.2852L68.6328 46.332V56H60.166V11H68.6328V35.9316L70.2734 33.8223L78.3887 24.3008H88.5547L77.0996 37.5137L89.5508 56H79.8242L71.6797 43.2852ZM101.152 56H92.6562V24.3008H101.152V56ZM92.1582 16.0977C92.1582 14.8281 92.5781 13.7832 93.418 12.9629C94.2773 12.1426 95.4395 11.7324 96.9043 11.7324C98.3496 11.7324 99.502 12.1426 100.361 12.9629C101.221 13.7832 101.65 14.8281 101.65 16.0977C101.65 17.3867 101.211 18.4414 100.332 19.2617C99.4727 20.082 98.3301 20.4922 96.9043 20.4922C95.4785 20.4922 94.3262 20.082 93.4473 19.2617C92.5879 18.4414 92.1582 17.3867 92.1582 16.0977ZM117.09 56H108.594V11H117.09V56ZM133.027 56H124.531V11H133.027V56ZM157.197 47.2402C157.197 46.2051 156.68 45.3945 155.645 44.8086C154.629 44.2031 152.988 43.666 150.723 43.1973C143.184 41.6152 139.414 38.4121 139.414 33.5879C139.414 30.7754 140.576 28.4316 142.9 26.5566C145.244 24.6621 148.301 23.7148 152.07 23.7148C156.094 23.7148 159.307 24.6621 161.709 26.5566C164.131 28.4512 165.342 30.9121 165.342 33.9395H156.875C156.875 32.7285 156.484 31.7324 155.703 30.9512C154.922 30.1504 153.701 29.75 152.041 29.75C150.615 29.75 149.512 30.0723 148.73 30.7168C147.949 31.3613 147.559 32.1816 147.559 33.1777C147.559 34.1152 147.998 34.877 148.877 35.4629C149.775 36.0293 151.279 36.5273 153.389 36.957C155.498 37.3672 157.275 37.8359 158.721 38.3633C163.193 40.0039 165.43 42.8457 165.43 46.8887C165.43 49.7793 164.189 52.123 161.709 53.9199C159.229 55.6973 156.025 56.5859 152.1 56.5859C149.443 56.5859 147.08 56.1172 145.01 55.1797C142.959 54.2227 141.348 52.9238 140.176 51.2832C139.004 49.623 138.418 47.8359 138.418 45.9219H146.445C146.523 47.4258 147.08 48.5781 148.115 49.3789C149.15 50.1797 150.537 50.5801 152.275 50.5801C153.896 50.5801 155.117 50.2773 155.938 49.6719C156.777 49.0469 157.197 48.2363 157.197 47.2402Z" fill="black"/>
<path d="M253 35H1337" stroke="#3D3D3D"/>
</svg>
