<svg width="1316" height="70" viewBox="0 0 1316 70" fill="none" xmlns="http://www.w3.org/2000/svg">
<rect y="20" width="282" height="31" fill="#AEE8FF"/>
<path d="M35.293 13.3438L46.25 44.2812L57.1484 13.3438H68.6914V56H59.873V44.3398L60.752 24.2129L49.2383 56H43.2031L31.7188 24.2422L32.5977 44.3398V56H23.8086V13.3438H35.293ZM87.6465 44.0176L93.5059 24.3008H102.588L89.8438 60.9219L89.1406 62.5918C87.2461 66.7324 84.1211 68.8027 79.7656 68.8027C78.5352 68.8027 77.2852 68.6172 76.0156 68.2461V61.8301L77.3047 61.8594C78.9062 61.8594 80.0977 61.6152 80.8789 61.127C81.6797 60.6387 82.3047 59.8281 82.7539 58.6953L83.75 56.0879L72.6465 24.3008H81.7578L87.6465 44.0176ZM154.648 43.6953L160.391 13.3438H169.15L159.688 56H150.84L143.896 27.4648L136.953 56H128.105L118.643 13.3438H127.402L133.174 43.6367L140.205 13.3438H147.646L154.648 43.6953ZM171.113 39.8574C171.113 36.7129 171.719 33.9102 172.93 31.4492C174.141 28.9883 175.879 27.084 178.145 25.7363C180.43 24.3887 183.076 23.7148 186.084 23.7148C190.361 23.7148 193.848 25.0234 196.543 27.6406C199.258 30.2578 200.771 33.8125 201.084 38.3047L201.143 40.4727C201.143 45.3359 199.785 49.2422 197.07 52.1914C194.355 55.1211 190.713 56.5859 186.143 56.5859C181.572 56.5859 177.92 55.1211 175.186 52.1914C172.471 49.2617 171.113 45.2773 171.113 40.2383V39.8574ZM179.58 40.4727C179.58 43.4805 180.146 45.7852 181.279 47.3867C182.412 48.9688 184.033 49.7598 186.143 49.7598C188.193 49.7598 189.795 48.9785 190.947 47.416C192.1 45.834 192.676 43.3145 192.676 39.8574C192.676 36.9082 192.1 34.623 190.947 33.002C189.795 31.3809 188.174 30.5703 186.084 30.5703C184.014 30.5703 182.412 31.3809 181.279 33.002C180.146 34.6035 179.58 37.0938 179.58 40.4727ZM224.17 32.2402C223.018 32.084 222.002 32.0059 221.123 32.0059C217.92 32.0059 215.82 33.0898 214.824 35.2578V56H206.357V24.3008H214.355L214.59 28.0801C216.289 25.1699 218.643 23.7148 221.65 23.7148C222.588 23.7148 223.467 23.8418 224.287 24.0957L224.17 32.2402ZM239.785 43.2852L236.738 46.332V56H228.271V11H236.738V35.9316L238.379 33.8223L246.494 24.3008H256.66L245.205 37.5137L257.656 56H247.93L239.785 43.2852Z" fill="black"/>
<path d="M345 34L1322 33.9999" stroke="#3D3D3D"/>
</svg>
